%TF.GenerationSoftware,KiCad,Pcbnew,8.0.8*%
%TF.CreationDate,2025-02-17T15:57:01+09:00*%
%TF.ProjectId,hotdoggu_slimeVR_PCB,686f7464-6f67-4677-955f-736c696d6556,rev?*%
%TF.SameCoordinates,Original*%
%TF.FileFunction,Legend,Top*%
%TF.FilePolarity,Positive*%
%FSLAX46Y46*%
G04 Gerber Fmt 4.6, Leading zero omitted, Abs format (unit mm)*
G04 Created by KiCad (PCBNEW 8.0.8) date 2025-02-17 15:57:01*
%MOMM*%
%LPD*%
G01*
G04 APERTURE LIST*
%ADD10C,0.100000*%
%ADD11C,0.150000*%
%ADD12C,0.120000*%
G04 APERTURE END LIST*
D10*
X156831027Y-129279800D02*
X156902455Y-129303609D01*
X156902455Y-129303609D02*
X157021503Y-129303609D01*
X157021503Y-129303609D02*
X157069122Y-129279800D01*
X157069122Y-129279800D02*
X157092931Y-129255990D01*
X157092931Y-129255990D02*
X157116741Y-129208371D01*
X157116741Y-129208371D02*
X157116741Y-129160752D01*
X157116741Y-129160752D02*
X157092931Y-129113133D01*
X157092931Y-129113133D02*
X157069122Y-129089323D01*
X157069122Y-129089323D02*
X157021503Y-129065514D01*
X157021503Y-129065514D02*
X156926265Y-129041704D01*
X156926265Y-129041704D02*
X156878646Y-129017895D01*
X156878646Y-129017895D02*
X156854836Y-128994085D01*
X156854836Y-128994085D02*
X156831027Y-128946466D01*
X156831027Y-128946466D02*
X156831027Y-128898847D01*
X156831027Y-128898847D02*
X156854836Y-128851228D01*
X156854836Y-128851228D02*
X156878646Y-128827419D01*
X156878646Y-128827419D02*
X156926265Y-128803609D01*
X156926265Y-128803609D02*
X157045312Y-128803609D01*
X157045312Y-128803609D02*
X157116741Y-128827419D01*
X157331026Y-129303609D02*
X157331026Y-128803609D01*
X157331026Y-128803609D02*
X157450074Y-128803609D01*
X157450074Y-128803609D02*
X157521502Y-128827419D01*
X157521502Y-128827419D02*
X157569121Y-128875038D01*
X157569121Y-128875038D02*
X157592931Y-128922657D01*
X157592931Y-128922657D02*
X157616740Y-129017895D01*
X157616740Y-129017895D02*
X157616740Y-129089323D01*
X157616740Y-129089323D02*
X157592931Y-129184561D01*
X157592931Y-129184561D02*
X157569121Y-129232180D01*
X157569121Y-129232180D02*
X157521502Y-129279800D01*
X157521502Y-129279800D02*
X157450074Y-129303609D01*
X157450074Y-129303609D02*
X157331026Y-129303609D01*
X157807217Y-129160752D02*
X158045312Y-129160752D01*
X157759598Y-129303609D02*
X157926264Y-128803609D01*
X157926264Y-128803609D02*
X158092931Y-129303609D01*
X147826741Y-128837419D02*
X147779122Y-128813609D01*
X147779122Y-128813609D02*
X147707693Y-128813609D01*
X147707693Y-128813609D02*
X147636265Y-128837419D01*
X147636265Y-128837419D02*
X147588646Y-128885038D01*
X147588646Y-128885038D02*
X147564836Y-128932657D01*
X147564836Y-128932657D02*
X147541027Y-129027895D01*
X147541027Y-129027895D02*
X147541027Y-129099323D01*
X147541027Y-129099323D02*
X147564836Y-129194561D01*
X147564836Y-129194561D02*
X147588646Y-129242180D01*
X147588646Y-129242180D02*
X147636265Y-129289800D01*
X147636265Y-129289800D02*
X147707693Y-129313609D01*
X147707693Y-129313609D02*
X147755312Y-129313609D01*
X147755312Y-129313609D02*
X147826741Y-129289800D01*
X147826741Y-129289800D02*
X147850550Y-129265990D01*
X147850550Y-129265990D02*
X147850550Y-129099323D01*
X147850550Y-129099323D02*
X147755312Y-129099323D01*
X148064836Y-129313609D02*
X148064836Y-128813609D01*
X148064836Y-128813609D02*
X148350550Y-129313609D01*
X148350550Y-129313609D02*
X148350550Y-128813609D01*
X148588646Y-129313609D02*
X148588646Y-128813609D01*
X148588646Y-128813609D02*
X148707694Y-128813609D01*
X148707694Y-128813609D02*
X148779122Y-128837419D01*
X148779122Y-128837419D02*
X148826741Y-128885038D01*
X148826741Y-128885038D02*
X148850551Y-128932657D01*
X148850551Y-128932657D02*
X148874360Y-129027895D01*
X148874360Y-129027895D02*
X148874360Y-129099323D01*
X148874360Y-129099323D02*
X148850551Y-129194561D01*
X148850551Y-129194561D02*
X148826741Y-129242180D01*
X148826741Y-129242180D02*
X148779122Y-129289800D01*
X148779122Y-129289800D02*
X148707694Y-129313609D01*
X148707694Y-129313609D02*
X148588646Y-129313609D01*
X152177217Y-128843609D02*
X152486741Y-128843609D01*
X152486741Y-128843609D02*
X152320074Y-129034085D01*
X152320074Y-129034085D02*
X152391503Y-129034085D01*
X152391503Y-129034085D02*
X152439122Y-129057895D01*
X152439122Y-129057895D02*
X152462931Y-129081704D01*
X152462931Y-129081704D02*
X152486741Y-129129323D01*
X152486741Y-129129323D02*
X152486741Y-129248371D01*
X152486741Y-129248371D02*
X152462931Y-129295990D01*
X152462931Y-129295990D02*
X152439122Y-129319800D01*
X152439122Y-129319800D02*
X152391503Y-129343609D01*
X152391503Y-129343609D02*
X152248646Y-129343609D01*
X152248646Y-129343609D02*
X152201027Y-129319800D01*
X152201027Y-129319800D02*
X152177217Y-129295990D01*
X152629598Y-128843609D02*
X152796264Y-129343609D01*
X152796264Y-129343609D02*
X152962931Y-128843609D01*
X153081978Y-128843609D02*
X153391502Y-128843609D01*
X153391502Y-128843609D02*
X153224835Y-129034085D01*
X153224835Y-129034085D02*
X153296264Y-129034085D01*
X153296264Y-129034085D02*
X153343883Y-129057895D01*
X153343883Y-129057895D02*
X153367692Y-129081704D01*
X153367692Y-129081704D02*
X153391502Y-129129323D01*
X153391502Y-129129323D02*
X153391502Y-129248371D01*
X153391502Y-129248371D02*
X153367692Y-129295990D01*
X153367692Y-129295990D02*
X153343883Y-129319800D01*
X153343883Y-129319800D02*
X153296264Y-129343609D01*
X153296264Y-129343609D02*
X153153407Y-129343609D01*
X153153407Y-129343609D02*
X153105788Y-129319800D01*
X153105788Y-129319800D02*
X153081978Y-129295990D01*
X161531027Y-129259800D02*
X161602455Y-129283609D01*
X161602455Y-129283609D02*
X161721503Y-129283609D01*
X161721503Y-129283609D02*
X161769122Y-129259800D01*
X161769122Y-129259800D02*
X161792931Y-129235990D01*
X161792931Y-129235990D02*
X161816741Y-129188371D01*
X161816741Y-129188371D02*
X161816741Y-129140752D01*
X161816741Y-129140752D02*
X161792931Y-129093133D01*
X161792931Y-129093133D02*
X161769122Y-129069323D01*
X161769122Y-129069323D02*
X161721503Y-129045514D01*
X161721503Y-129045514D02*
X161626265Y-129021704D01*
X161626265Y-129021704D02*
X161578646Y-128997895D01*
X161578646Y-128997895D02*
X161554836Y-128974085D01*
X161554836Y-128974085D02*
X161531027Y-128926466D01*
X161531027Y-128926466D02*
X161531027Y-128878847D01*
X161531027Y-128878847D02*
X161554836Y-128831228D01*
X161554836Y-128831228D02*
X161578646Y-128807419D01*
X161578646Y-128807419D02*
X161626265Y-128783609D01*
X161626265Y-128783609D02*
X161745312Y-128783609D01*
X161745312Y-128783609D02*
X161816741Y-128807419D01*
X162316740Y-129235990D02*
X162292931Y-129259800D01*
X162292931Y-129259800D02*
X162221502Y-129283609D01*
X162221502Y-129283609D02*
X162173883Y-129283609D01*
X162173883Y-129283609D02*
X162102455Y-129259800D01*
X162102455Y-129259800D02*
X162054836Y-129212180D01*
X162054836Y-129212180D02*
X162031026Y-129164561D01*
X162031026Y-129164561D02*
X162007217Y-129069323D01*
X162007217Y-129069323D02*
X162007217Y-128997895D01*
X162007217Y-128997895D02*
X162031026Y-128902657D01*
X162031026Y-128902657D02*
X162054836Y-128855038D01*
X162054836Y-128855038D02*
X162102455Y-128807419D01*
X162102455Y-128807419D02*
X162173883Y-128783609D01*
X162173883Y-128783609D02*
X162221502Y-128783609D01*
X162221502Y-128783609D02*
X162292931Y-128807419D01*
X162292931Y-128807419D02*
X162316740Y-128831228D01*
X162769121Y-129283609D02*
X162531026Y-129283609D01*
X162531026Y-129283609D02*
X162531026Y-128783609D01*
D11*
X162574819Y-107136666D02*
X162098628Y-107469999D01*
X162574819Y-107708094D02*
X161574819Y-107708094D01*
X161574819Y-107708094D02*
X161574819Y-107327142D01*
X161574819Y-107327142D02*
X161622438Y-107231904D01*
X161622438Y-107231904D02*
X161670057Y-107184285D01*
X161670057Y-107184285D02*
X161765295Y-107136666D01*
X161765295Y-107136666D02*
X161908152Y-107136666D01*
X161908152Y-107136666D02*
X162003390Y-107184285D01*
X162003390Y-107184285D02*
X162051009Y-107231904D01*
X162051009Y-107231904D02*
X162098628Y-107327142D01*
X162098628Y-107327142D02*
X162098628Y-107708094D01*
X162574819Y-106184285D02*
X162574819Y-106755713D01*
X162574819Y-106469999D02*
X161574819Y-106469999D01*
X161574819Y-106469999D02*
X161717676Y-106565237D01*
X161717676Y-106565237D02*
X161812914Y-106660475D01*
X161812914Y-106660475D02*
X161860533Y-106755713D01*
X150174666Y-118770819D02*
X150174666Y-119485104D01*
X150174666Y-119485104D02*
X150127047Y-119627961D01*
X150127047Y-119627961D02*
X150031809Y-119723200D01*
X150031809Y-119723200D02*
X149888952Y-119770819D01*
X149888952Y-119770819D02*
X149793714Y-119770819D01*
X150603238Y-118866057D02*
X150650857Y-118818438D01*
X150650857Y-118818438D02*
X150746095Y-118770819D01*
X150746095Y-118770819D02*
X150984190Y-118770819D01*
X150984190Y-118770819D02*
X151079428Y-118818438D01*
X151079428Y-118818438D02*
X151127047Y-118866057D01*
X151127047Y-118866057D02*
X151174666Y-118961295D01*
X151174666Y-118961295D02*
X151174666Y-119056533D01*
X151174666Y-119056533D02*
X151127047Y-119199390D01*
X151127047Y-119199390D02*
X150555619Y-119770819D01*
X150555619Y-119770819D02*
X151174666Y-119770819D01*
X148008095Y-81816819D02*
X148008095Y-82626342D01*
X148008095Y-82626342D02*
X148055714Y-82721580D01*
X148055714Y-82721580D02*
X148103333Y-82769200D01*
X148103333Y-82769200D02*
X148198571Y-82816819D01*
X148198571Y-82816819D02*
X148389047Y-82816819D01*
X148389047Y-82816819D02*
X148484285Y-82769200D01*
X148484285Y-82769200D02*
X148531904Y-82721580D01*
X148531904Y-82721580D02*
X148579523Y-82626342D01*
X148579523Y-82626342D02*
X148579523Y-81816819D01*
X149008095Y-81912057D02*
X149055714Y-81864438D01*
X149055714Y-81864438D02*
X149150952Y-81816819D01*
X149150952Y-81816819D02*
X149389047Y-81816819D01*
X149389047Y-81816819D02*
X149484285Y-81864438D01*
X149484285Y-81864438D02*
X149531904Y-81912057D01*
X149531904Y-81912057D02*
X149579523Y-82007295D01*
X149579523Y-82007295D02*
X149579523Y-82102533D01*
X149579523Y-82102533D02*
X149531904Y-82245390D01*
X149531904Y-82245390D02*
X148960476Y-82816819D01*
X148960476Y-82816819D02*
X149579523Y-82816819D01*
X150119524Y-90389200D02*
X150262381Y-90436819D01*
X150262381Y-90436819D02*
X150500476Y-90436819D01*
X150500476Y-90436819D02*
X150595714Y-90389200D01*
X150595714Y-90389200D02*
X150643333Y-90341580D01*
X150643333Y-90341580D02*
X150690952Y-90246342D01*
X150690952Y-90246342D02*
X150690952Y-90151104D01*
X150690952Y-90151104D02*
X150643333Y-90055866D01*
X150643333Y-90055866D02*
X150595714Y-90008247D01*
X150595714Y-90008247D02*
X150500476Y-89960628D01*
X150500476Y-89960628D02*
X150310000Y-89913009D01*
X150310000Y-89913009D02*
X150214762Y-89865390D01*
X150214762Y-89865390D02*
X150167143Y-89817771D01*
X150167143Y-89817771D02*
X150119524Y-89722533D01*
X150119524Y-89722533D02*
X150119524Y-89627295D01*
X150119524Y-89627295D02*
X150167143Y-89532057D01*
X150167143Y-89532057D02*
X150214762Y-89484438D01*
X150214762Y-89484438D02*
X150310000Y-89436819D01*
X150310000Y-89436819D02*
X150548095Y-89436819D01*
X150548095Y-89436819D02*
X150690952Y-89484438D01*
X151690952Y-90341580D02*
X151643333Y-90389200D01*
X151643333Y-90389200D02*
X151500476Y-90436819D01*
X151500476Y-90436819D02*
X151405238Y-90436819D01*
X151405238Y-90436819D02*
X151262381Y-90389200D01*
X151262381Y-90389200D02*
X151167143Y-90293961D01*
X151167143Y-90293961D02*
X151119524Y-90198723D01*
X151119524Y-90198723D02*
X151071905Y-90008247D01*
X151071905Y-90008247D02*
X151071905Y-89865390D01*
X151071905Y-89865390D02*
X151119524Y-89674914D01*
X151119524Y-89674914D02*
X151167143Y-89579676D01*
X151167143Y-89579676D02*
X151262381Y-89484438D01*
X151262381Y-89484438D02*
X151405238Y-89436819D01*
X151405238Y-89436819D02*
X151500476Y-89436819D01*
X151500476Y-89436819D02*
X151643333Y-89484438D01*
X151643333Y-89484438D02*
X151690952Y-89532057D01*
X152595714Y-90436819D02*
X152119524Y-90436819D01*
X152119524Y-90436819D02*
X152119524Y-89436819D01*
X149976667Y-84356819D02*
X150310000Y-85356819D01*
X150310000Y-85356819D02*
X150643333Y-84356819D01*
X151548095Y-85261580D02*
X151500476Y-85309200D01*
X151500476Y-85309200D02*
X151357619Y-85356819D01*
X151357619Y-85356819D02*
X151262381Y-85356819D01*
X151262381Y-85356819D02*
X151119524Y-85309200D01*
X151119524Y-85309200D02*
X151024286Y-85213961D01*
X151024286Y-85213961D02*
X150976667Y-85118723D01*
X150976667Y-85118723D02*
X150929048Y-84928247D01*
X150929048Y-84928247D02*
X150929048Y-84785390D01*
X150929048Y-84785390D02*
X150976667Y-84594914D01*
X150976667Y-84594914D02*
X151024286Y-84499676D01*
X151024286Y-84499676D02*
X151119524Y-84404438D01*
X151119524Y-84404438D02*
X151262381Y-84356819D01*
X151262381Y-84356819D02*
X151357619Y-84356819D01*
X151357619Y-84356819D02*
X151500476Y-84404438D01*
X151500476Y-84404438D02*
X151548095Y-84452057D01*
X152548095Y-85261580D02*
X152500476Y-85309200D01*
X152500476Y-85309200D02*
X152357619Y-85356819D01*
X152357619Y-85356819D02*
X152262381Y-85356819D01*
X152262381Y-85356819D02*
X152119524Y-85309200D01*
X152119524Y-85309200D02*
X152024286Y-85213961D01*
X152024286Y-85213961D02*
X151976667Y-85118723D01*
X151976667Y-85118723D02*
X151929048Y-84928247D01*
X151929048Y-84928247D02*
X151929048Y-84785390D01*
X151929048Y-84785390D02*
X151976667Y-84594914D01*
X151976667Y-84594914D02*
X152024286Y-84499676D01*
X152024286Y-84499676D02*
X152119524Y-84404438D01*
X152119524Y-84404438D02*
X152262381Y-84356819D01*
X152262381Y-84356819D02*
X152357619Y-84356819D01*
X152357619Y-84356819D02*
X152500476Y-84404438D01*
X152500476Y-84404438D02*
X152548095Y-84452057D01*
X150048095Y-94516819D02*
X150714761Y-95516819D01*
X150714761Y-94516819D02*
X150048095Y-95516819D01*
X151095714Y-95516819D02*
X151095714Y-94516819D01*
X151095714Y-94516819D02*
X151333809Y-94516819D01*
X151333809Y-94516819D02*
X151476666Y-94564438D01*
X151476666Y-94564438D02*
X151571904Y-94659676D01*
X151571904Y-94659676D02*
X151619523Y-94754914D01*
X151619523Y-94754914D02*
X151667142Y-94945390D01*
X151667142Y-94945390D02*
X151667142Y-95088247D01*
X151667142Y-95088247D02*
X151619523Y-95278723D01*
X151619523Y-95278723D02*
X151571904Y-95373961D01*
X151571904Y-95373961D02*
X151476666Y-95469200D01*
X151476666Y-95469200D02*
X151333809Y-95516819D01*
X151333809Y-95516819D02*
X151095714Y-95516819D01*
X152048095Y-95231104D02*
X152524285Y-95231104D01*
X151952857Y-95516819D02*
X152286190Y-94516819D01*
X152286190Y-94516819D02*
X152619523Y-95516819D01*
X150095714Y-92929200D02*
X150238571Y-92976819D01*
X150238571Y-92976819D02*
X150476666Y-92976819D01*
X150476666Y-92976819D02*
X150571904Y-92929200D01*
X150571904Y-92929200D02*
X150619523Y-92881580D01*
X150619523Y-92881580D02*
X150667142Y-92786342D01*
X150667142Y-92786342D02*
X150667142Y-92691104D01*
X150667142Y-92691104D02*
X150619523Y-92595866D01*
X150619523Y-92595866D02*
X150571904Y-92548247D01*
X150571904Y-92548247D02*
X150476666Y-92500628D01*
X150476666Y-92500628D02*
X150286190Y-92453009D01*
X150286190Y-92453009D02*
X150190952Y-92405390D01*
X150190952Y-92405390D02*
X150143333Y-92357771D01*
X150143333Y-92357771D02*
X150095714Y-92262533D01*
X150095714Y-92262533D02*
X150095714Y-92167295D01*
X150095714Y-92167295D02*
X150143333Y-92072057D01*
X150143333Y-92072057D02*
X150190952Y-92024438D01*
X150190952Y-92024438D02*
X150286190Y-91976819D01*
X150286190Y-91976819D02*
X150524285Y-91976819D01*
X150524285Y-91976819D02*
X150667142Y-92024438D01*
X151095714Y-92976819D02*
X151095714Y-91976819D01*
X151095714Y-91976819D02*
X151333809Y-91976819D01*
X151333809Y-91976819D02*
X151476666Y-92024438D01*
X151476666Y-92024438D02*
X151571904Y-92119676D01*
X151571904Y-92119676D02*
X151619523Y-92214914D01*
X151619523Y-92214914D02*
X151667142Y-92405390D01*
X151667142Y-92405390D02*
X151667142Y-92548247D01*
X151667142Y-92548247D02*
X151619523Y-92738723D01*
X151619523Y-92738723D02*
X151571904Y-92833961D01*
X151571904Y-92833961D02*
X151476666Y-92929200D01*
X151476666Y-92929200D02*
X151333809Y-92976819D01*
X151333809Y-92976819D02*
X151095714Y-92976819D01*
X152048095Y-92691104D02*
X152524285Y-92691104D01*
X151952857Y-92976819D02*
X152286190Y-91976819D01*
X152286190Y-91976819D02*
X152619523Y-92976819D01*
X150405238Y-103136819D02*
X150405238Y-102136819D01*
X150881428Y-103136819D02*
X150881428Y-102136819D01*
X150881428Y-102136819D02*
X151452856Y-103136819D01*
X151452856Y-103136819D02*
X151452856Y-102136819D01*
X151786190Y-102136819D02*
X152357618Y-102136819D01*
X152071904Y-103136819D02*
X152071904Y-102136819D01*
X150071905Y-100311104D02*
X150548095Y-100311104D01*
X149976667Y-100596819D02*
X150310000Y-99596819D01*
X150310000Y-99596819D02*
X150643333Y-100596819D01*
X150976667Y-100596819D02*
X150976667Y-99596819D01*
X150976667Y-99596819D02*
X151214762Y-99596819D01*
X151214762Y-99596819D02*
X151357619Y-99644438D01*
X151357619Y-99644438D02*
X151452857Y-99739676D01*
X151452857Y-99739676D02*
X151500476Y-99834914D01*
X151500476Y-99834914D02*
X151548095Y-100025390D01*
X151548095Y-100025390D02*
X151548095Y-100168247D01*
X151548095Y-100168247D02*
X151500476Y-100358723D01*
X151500476Y-100358723D02*
X151452857Y-100453961D01*
X151452857Y-100453961D02*
X151357619Y-100549200D01*
X151357619Y-100549200D02*
X151214762Y-100596819D01*
X151214762Y-100596819D02*
X150976667Y-100596819D01*
X151976667Y-100596819D02*
X151976667Y-99596819D01*
X151976667Y-99596819D02*
X152214762Y-99596819D01*
X152214762Y-99596819D02*
X152357619Y-99644438D01*
X152357619Y-99644438D02*
X152452857Y-99739676D01*
X152452857Y-99739676D02*
X152500476Y-99834914D01*
X152500476Y-99834914D02*
X152548095Y-100025390D01*
X152548095Y-100025390D02*
X152548095Y-100168247D01*
X152548095Y-100168247D02*
X152500476Y-100358723D01*
X152500476Y-100358723D02*
X152452857Y-100453961D01*
X152452857Y-100453961D02*
X152357619Y-100549200D01*
X152357619Y-100549200D02*
X152214762Y-100596819D01*
X152214762Y-100596819D02*
X151976667Y-100596819D01*
X150071905Y-97056819D02*
X150738571Y-98056819D01*
X150738571Y-97056819D02*
X150071905Y-98056819D01*
X151690952Y-97961580D02*
X151643333Y-98009200D01*
X151643333Y-98009200D02*
X151500476Y-98056819D01*
X151500476Y-98056819D02*
X151405238Y-98056819D01*
X151405238Y-98056819D02*
X151262381Y-98009200D01*
X151262381Y-98009200D02*
X151167143Y-97913961D01*
X151167143Y-97913961D02*
X151119524Y-97818723D01*
X151119524Y-97818723D02*
X151071905Y-97628247D01*
X151071905Y-97628247D02*
X151071905Y-97485390D01*
X151071905Y-97485390D02*
X151119524Y-97294914D01*
X151119524Y-97294914D02*
X151167143Y-97199676D01*
X151167143Y-97199676D02*
X151262381Y-97104438D01*
X151262381Y-97104438D02*
X151405238Y-97056819D01*
X151405238Y-97056819D02*
X151500476Y-97056819D01*
X151500476Y-97056819D02*
X151643333Y-97104438D01*
X151643333Y-97104438D02*
X151690952Y-97152057D01*
X152595714Y-98056819D02*
X152119524Y-98056819D01*
X152119524Y-98056819D02*
X152119524Y-97056819D01*
X150548095Y-86944438D02*
X150452857Y-86896819D01*
X150452857Y-86896819D02*
X150310000Y-86896819D01*
X150310000Y-86896819D02*
X150167143Y-86944438D01*
X150167143Y-86944438D02*
X150071905Y-87039676D01*
X150071905Y-87039676D02*
X150024286Y-87134914D01*
X150024286Y-87134914D02*
X149976667Y-87325390D01*
X149976667Y-87325390D02*
X149976667Y-87468247D01*
X149976667Y-87468247D02*
X150024286Y-87658723D01*
X150024286Y-87658723D02*
X150071905Y-87753961D01*
X150071905Y-87753961D02*
X150167143Y-87849200D01*
X150167143Y-87849200D02*
X150310000Y-87896819D01*
X150310000Y-87896819D02*
X150405238Y-87896819D01*
X150405238Y-87896819D02*
X150548095Y-87849200D01*
X150548095Y-87849200D02*
X150595714Y-87801580D01*
X150595714Y-87801580D02*
X150595714Y-87468247D01*
X150595714Y-87468247D02*
X150405238Y-87468247D01*
X151024286Y-87896819D02*
X151024286Y-86896819D01*
X151024286Y-86896819D02*
X151595714Y-87896819D01*
X151595714Y-87896819D02*
X151595714Y-86896819D01*
X152071905Y-87896819D02*
X152071905Y-86896819D01*
X152071905Y-86896819D02*
X152310000Y-86896819D01*
X152310000Y-86896819D02*
X152452857Y-86944438D01*
X152452857Y-86944438D02*
X152548095Y-87039676D01*
X152548095Y-87039676D02*
X152595714Y-87134914D01*
X152595714Y-87134914D02*
X152643333Y-87325390D01*
X152643333Y-87325390D02*
X152643333Y-87468247D01*
X152643333Y-87468247D02*
X152595714Y-87658723D01*
X152595714Y-87658723D02*
X152548095Y-87753961D01*
X152548095Y-87753961D02*
X152452857Y-87849200D01*
X152452857Y-87849200D02*
X152310000Y-87896819D01*
X152310000Y-87896819D02*
X152071905Y-87896819D01*
D10*
X146898095Y-43777419D02*
X146898095Y-44586942D01*
X146898095Y-44586942D02*
X146945714Y-44682180D01*
X146945714Y-44682180D02*
X146993333Y-44729800D01*
X146993333Y-44729800D02*
X147088571Y-44777419D01*
X147088571Y-44777419D02*
X147279047Y-44777419D01*
X147279047Y-44777419D02*
X147374285Y-44729800D01*
X147374285Y-44729800D02*
X147421904Y-44682180D01*
X147421904Y-44682180D02*
X147469523Y-44586942D01*
X147469523Y-44586942D02*
X147469523Y-43777419D01*
X148469523Y-44777419D02*
X147898095Y-44777419D01*
X148183809Y-44777419D02*
X148183809Y-43777419D01*
X148183809Y-43777419D02*
X148088571Y-43920276D01*
X148088571Y-43920276D02*
X147993333Y-44015514D01*
X147993333Y-44015514D02*
X147898095Y-44063133D01*
D11*
X154988095Y-72893866D02*
X155035714Y-72846247D01*
X155035714Y-72846247D02*
X155130952Y-72798628D01*
X155130952Y-72798628D02*
X155321428Y-72893866D01*
X155321428Y-72893866D02*
X155416666Y-72846247D01*
X155416666Y-72846247D02*
X155464285Y-72798628D01*
X154776666Y-124204819D02*
X154776666Y-124919104D01*
X154776666Y-124919104D02*
X154729047Y-125061961D01*
X154729047Y-125061961D02*
X154633809Y-125157200D01*
X154633809Y-125157200D02*
X154490952Y-125204819D01*
X154490952Y-125204819D02*
X154395714Y-125204819D01*
X155776666Y-125204819D02*
X155205238Y-125204819D01*
X155490952Y-125204819D02*
X155490952Y-124204819D01*
X155490952Y-124204819D02*
X155395714Y-124347676D01*
X155395714Y-124347676D02*
X155300476Y-124442914D01*
X155300476Y-124442914D02*
X155205238Y-124490533D01*
D10*
X153749800Y-117546332D02*
X153797419Y-117403475D01*
X153797419Y-117403475D02*
X153797419Y-117165380D01*
X153797419Y-117165380D02*
X153749800Y-117070142D01*
X153749800Y-117070142D02*
X153702180Y-117022523D01*
X153702180Y-117022523D02*
X153606942Y-116974904D01*
X153606942Y-116974904D02*
X153511704Y-116974904D01*
X153511704Y-116974904D02*
X153416466Y-117022523D01*
X153416466Y-117022523D02*
X153368847Y-117070142D01*
X153368847Y-117070142D02*
X153321228Y-117165380D01*
X153321228Y-117165380D02*
X153273609Y-117355856D01*
X153273609Y-117355856D02*
X153225990Y-117451094D01*
X153225990Y-117451094D02*
X153178371Y-117498713D01*
X153178371Y-117498713D02*
X153083133Y-117546332D01*
X153083133Y-117546332D02*
X152987895Y-117546332D01*
X152987895Y-117546332D02*
X152892657Y-117498713D01*
X152892657Y-117498713D02*
X152845038Y-117451094D01*
X152845038Y-117451094D02*
X152797419Y-117355856D01*
X152797419Y-117355856D02*
X152797419Y-117117761D01*
X152797419Y-117117761D02*
X152845038Y-116974904D01*
X152797419Y-116641570D02*
X153797419Y-116403475D01*
X153797419Y-116403475D02*
X153083133Y-116212999D01*
X153083133Y-116212999D02*
X153797419Y-116022523D01*
X153797419Y-116022523D02*
X152797419Y-115784428D01*
X153797419Y-114879666D02*
X153797419Y-115451094D01*
X153797419Y-115165380D02*
X152797419Y-115165380D01*
X152797419Y-115165380D02*
X152940276Y-115260618D01*
X152940276Y-115260618D02*
X153035514Y-115355856D01*
X153035514Y-115355856D02*
X153083133Y-115451094D01*
D11*
X160504819Y-107166666D02*
X160028628Y-107499999D01*
X160504819Y-107738094D02*
X159504819Y-107738094D01*
X159504819Y-107738094D02*
X159504819Y-107357142D01*
X159504819Y-107357142D02*
X159552438Y-107261904D01*
X159552438Y-107261904D02*
X159600057Y-107214285D01*
X159600057Y-107214285D02*
X159695295Y-107166666D01*
X159695295Y-107166666D02*
X159838152Y-107166666D01*
X159838152Y-107166666D02*
X159933390Y-107214285D01*
X159933390Y-107214285D02*
X159981009Y-107261904D01*
X159981009Y-107261904D02*
X160028628Y-107357142D01*
X160028628Y-107357142D02*
X160028628Y-107738094D01*
X159600057Y-106785713D02*
X159552438Y-106738094D01*
X159552438Y-106738094D02*
X159504819Y-106642856D01*
X159504819Y-106642856D02*
X159504819Y-106404761D01*
X159504819Y-106404761D02*
X159552438Y-106309523D01*
X159552438Y-106309523D02*
X159600057Y-106261904D01*
X159600057Y-106261904D02*
X159695295Y-106214285D01*
X159695295Y-106214285D02*
X159790533Y-106214285D01*
X159790533Y-106214285D02*
X159933390Y-106261904D01*
X159933390Y-106261904D02*
X160504819Y-106833332D01*
X160504819Y-106833332D02*
X160504819Y-106214285D01*
D12*
%TO.C,R1*%
X161190000Y-110830000D02*
X161190000Y-114670000D01*
X161190000Y-114670000D02*
X163030000Y-114670000D01*
X162110000Y-109880000D02*
X162110000Y-110830000D01*
X162110000Y-115620000D02*
X162110000Y-114670000D01*
X163030000Y-110830000D02*
X161190000Y-110830000D01*
X163030000Y-114670000D02*
X163030000Y-110830000D01*
%TO.C,U2*%
X146230000Y-83378000D02*
X162740000Y-83378000D01*
X146230000Y-103952000D02*
X146230000Y-83378000D01*
X162740000Y-83378000D02*
X162740000Y-103952000D01*
X162740000Y-103952000D02*
X146230000Y-103952000D01*
X161567832Y-85664000D02*
G75*
G02*
X158832168Y-85664000I-1367832J0D01*
G01*
X158832168Y-85664000D02*
G75*
G02*
X161567832Y-85664000I1367832J0D01*
G01*
X161567832Y-101666000D02*
G75*
G02*
X158832168Y-101666000I-1367832J0D01*
G01*
X158832168Y-101666000D02*
G75*
G02*
X161567832Y-101666000I1367832J0D01*
G01*
%TO.C,U1*%
D10*
X146220000Y-43340000D02*
X164000000Y-43340000D01*
X164000000Y-73820000D01*
X146220000Y-73820000D01*
X146220000Y-43340000D01*
%TO.C,SW1*%
X154220000Y-118293000D02*
X158220000Y-118293000D01*
X158220000Y-106793000D01*
X154220000Y-106793000D01*
X154220000Y-118293000D01*
D12*
%TO.C,R2*%
X159080000Y-110830000D02*
X159080000Y-114670000D01*
X159080000Y-114670000D02*
X160920000Y-114670000D01*
X160000000Y-109880000D02*
X160000000Y-110830000D01*
X160000000Y-115620000D02*
X160000000Y-114670000D01*
X160920000Y-110830000D02*
X159080000Y-110830000D01*
X160920000Y-114670000D02*
X160920000Y-110830000D01*
%TD*%
M02*
