%TF.GenerationSoftware,KiCad,Pcbnew,8.0.8*%
%TF.CreationDate,2025-02-17T15:57:02+09:00*%
%TF.ProjectId,hotdoggu_slimeVR_PCB,686f7464-6f67-4677-955f-736c696d6556,rev?*%
%TF.SameCoordinates,Original*%
%TF.FileFunction,Soldermask,Top*%
%TF.FilePolarity,Negative*%
%FSLAX46Y46*%
G04 Gerber Fmt 4.6, Leading zero omitted, Abs format (unit mm)*
G04 Created by KiCad (PCBNEW 8.0.8) date 2025-02-17 15:57:02*
%MOMM*%
%LPD*%
G01*
G04 APERTURE LIST*
G04 Aperture macros list*
%AMRoundRect*
0 Rectangle with rounded corners*
0 $1 Rounding radius*
0 $2 $3 $4 $5 $6 $7 $8 $9 X,Y pos of 4 corners*
0 Add a 4 corners polygon primitive as box body*
4,1,4,$2,$3,$4,$5,$6,$7,$8,$9,$2,$3,0*
0 Add four circle primitives for the rounded corners*
1,1,$1+$1,$2,$3*
1,1,$1+$1,$4,$5*
1,1,$1+$1,$6,$7*
1,1,$1+$1,$8,$9*
0 Add four rect primitives between the rounded corners*
20,1,$1+$1,$2,$3,$4,$5,0*
20,1,$1+$1,$4,$5,$6,$7,0*
20,1,$1+$1,$6,$7,$8,$9,0*
20,1,$1+$1,$8,$9,$2,$3,0*%
G04 Aperture macros list end*
%ADD10C,0.100000*%
%ADD11R,0.700000X1.524000*%
%ADD12C,1.400000*%
%ADD13O,1.400000X1.400000*%
%ADD14RoundRect,0.250001X-0.899999X-0.899999X0.899999X-0.899999X0.899999X0.899999X-0.899999X0.899999X0*%
%ADD15C,2.300000*%
%ADD16C,1.524000*%
%ADD17RoundRect,0.080000X-1.420000X-0.720000X1.420000X-0.720000X1.420000X0.720000X-1.420000X0.720000X0*%
%ADD18RoundRect,0.250001X-0.799999X-0.799999X0.799999X-0.799999X0.799999X0.799999X-0.799999X0.799999X0*%
%ADD19C,2.100000*%
G04 APERTURE END LIST*
D10*
X153250000Y-75500000D02*
X164000000Y-75500000D01*
X164000000Y-83250000D01*
X153250000Y-83250000D01*
X153250000Y-75500000D01*
G36*
X153250000Y-75500000D02*
G01*
X164000000Y-75500000D01*
X164000000Y-83250000D01*
X153250000Y-83250000D01*
X153250000Y-75500000D01*
G37*
D11*
%TO.C,\u002A1*%
X161050000Y-76250000D03*
X159250000Y-76250000D03*
%TD*%
D12*
%TO.C,R1*%
X162110000Y-108940000D03*
D13*
X162110000Y-116560000D03*
%TD*%
D14*
%TO.C,J2*%
X148108000Y-121666000D03*
D15*
X152908000Y-121666000D03*
%TD*%
D16*
%TO.C,U2*%
X147500000Y-84902000D03*
X147500000Y-87442000D03*
X147500000Y-89982000D03*
X147500000Y-92522000D03*
X147500000Y-95062000D03*
X147500000Y-97602000D03*
X147500000Y-100142000D03*
X147500000Y-102682000D03*
%TD*%
D17*
%TO.C,U1*%
X146500000Y-69960000D03*
X146500000Y-67420000D03*
X146500000Y-64880000D03*
X146500000Y-62340000D03*
X146500000Y-59800000D03*
X146500000Y-57260000D03*
X146500000Y-54720000D03*
X146500000Y-52180000D03*
X146500000Y-49640000D03*
X146500000Y-47100000D03*
X163500000Y-70000000D03*
X163500000Y-67460000D03*
X163500000Y-64920000D03*
X163500000Y-62380000D03*
X163500000Y-59840000D03*
X163500000Y-57300000D03*
X163500000Y-54760000D03*
X163500000Y-52220000D03*
X163500000Y-49680000D03*
X163500000Y-47140000D03*
%TD*%
D18*
%TO.C,J1*%
X148210000Y-127000000D03*
D19*
X152810000Y-127000000D03*
X157410000Y-127000000D03*
X162010000Y-127000000D03*
%TD*%
D16*
%TO.C,SW1*%
X156220000Y-115043000D03*
X156220000Y-112543000D03*
X156220000Y-110043000D03*
%TD*%
D12*
%TO.C,R2*%
X160000000Y-116560000D03*
D13*
X160000000Y-108940000D03*
%TD*%
M02*
