M48
; DRILL file {KiCad 8.0.8} date 2025-02-17T15:57:04+0900
; FORMAT={-:-/ absolute / metric / decimal}
; #@! TF.CreationDate,2025-02-17T15:57:04+09:00
; #@! TF.GenerationSoftware,Kicad,Pcbnew,8.0.8
; #@! TF.FileFunction,Plated,1,2,PTH
FMAT,2
METRIC
; #@! TA.AperFunction,Plated,PTH,ViaDrill
T1C0.300
; #@! TA.AperFunction,Plated,PTH,ComponentDrill
T2C0.700
; #@! TA.AperFunction,Plated,PTH,ComponentDrill
T3C0.762
; #@! TA.AperFunction,Plated,PTH,ComponentDrill
T4C1.100
%
G90
G05
T1
X148.844Y-84.582
X149.0Y-60.25
X149.25Y-47.75
X149.86Y-57.912
X150.044Y-82.544
X150.46Y-74.645
X161.08Y-47.14
T2
X160.0Y-108.94
X160.0Y-116.56
X162.11Y-108.94
X162.11Y-116.56
T3
X147.5Y-84.902
X147.5Y-87.442
X147.5Y-89.982
X147.5Y-92.522
X147.5Y-95.062
X147.5Y-97.602
X147.5Y-100.142
X147.5Y-102.682
X156.22Y-110.043
X156.22Y-112.543
X156.22Y-115.043
T4
X148.108Y-121.666
X148.21Y-127.0
X152.81Y-127.0
X152.908Y-121.666
X157.41Y-127.0
X162.01Y-127.0
M30
