%TF.GenerationSoftware,KiCad,Pcbnew,8.0.8*%
%TF.CreationDate,2025-02-17T15:57:01+09:00*%
%TF.ProjectId,hotdoggu_slimeVR_PCB,686f7464-6f67-4677-955f-736c696d6556,rev?*%
%TF.SameCoordinates,Original*%
%TF.FileFunction,Copper,L1,Top*%
%TF.FilePolarity,Positive*%
%FSLAX46Y46*%
G04 Gerber Fmt 4.6, Leading zero omitted, Abs format (unit mm)*
G04 Created by KiCad (PCBNEW 8.0.8) date 2025-02-17 15:57:01*
%MOMM*%
%LPD*%
G01*
G04 APERTURE LIST*
G04 Aperture macros list*
%AMRoundRect*
0 Rectangle with rounded corners*
0 $1 Rounding radius*
0 $2 $3 $4 $5 $6 $7 $8 $9 X,Y pos of 4 corners*
0 Add a 4 corners polygon primitive as box body*
4,1,4,$2,$3,$4,$5,$6,$7,$8,$9,$2,$3,0*
0 Add four circle primitives for the rounded corners*
1,1,$1+$1,$2,$3*
1,1,$1+$1,$4,$5*
1,1,$1+$1,$6,$7*
1,1,$1+$1,$8,$9*
0 Add four rect primitives between the rounded corners*
20,1,$1+$1,$2,$3,$4,$5,0*
20,1,$1+$1,$4,$5,$6,$7,0*
20,1,$1+$1,$6,$7,$8,$9,0*
20,1,$1+$1,$8,$9,$2,$3,0*%
G04 Aperture macros list end*
%TA.AperFunction,Conductor*%
%ADD10C,0.100000*%
%TD*%
%TA.AperFunction,EtchedComponent*%
%ADD11C,0.700000*%
%TD*%
%TA.AperFunction,ConnectorPad*%
%ADD12R,0.700000X1.524000*%
%TD*%
%TA.AperFunction,ComponentPad*%
%ADD13C,1.400000*%
%TD*%
%TA.AperFunction,ComponentPad*%
%ADD14O,1.400000X1.400000*%
%TD*%
%TA.AperFunction,ComponentPad*%
%ADD15RoundRect,0.250001X-0.899999X-0.899999X0.899999X-0.899999X0.899999X0.899999X-0.899999X0.899999X0*%
%TD*%
%TA.AperFunction,ComponentPad*%
%ADD16C,2.300000*%
%TD*%
%TA.AperFunction,ComponentPad*%
%ADD17C,1.524000*%
%TD*%
%TA.AperFunction,SMDPad,CuDef*%
%ADD18RoundRect,0.080000X-1.420000X-0.720000X1.420000X-0.720000X1.420000X0.720000X-1.420000X0.720000X0*%
%TD*%
%TA.AperFunction,ComponentPad*%
%ADD19RoundRect,0.250001X-0.799999X-0.799999X0.799999X-0.799999X0.799999X0.799999X-0.799999X0.799999X0*%
%TD*%
%TA.AperFunction,ComponentPad*%
%ADD20C,2.100000*%
%TD*%
%TA.AperFunction,ViaPad*%
%ADD21C,0.600000*%
%TD*%
%TA.AperFunction,Conductor*%
%ADD22C,0.200000*%
%TD*%
G04 APERTURE END LIST*
%TO.N,GND*%
D10*
X158400000Y-74720000D02*
X162340000Y-74720000D01*
X162340000Y-75320000D01*
X158400000Y-75320000D01*
X158400000Y-74720000D01*
%TA.AperFunction,Conductor*%
G36*
X158400000Y-74720000D02*
G01*
X162340000Y-74720000D01*
X162340000Y-75320000D01*
X158400000Y-75320000D01*
X158400000Y-74720000D01*
G37*
%TD.AperFunction*%
X160750000Y-74920000D02*
X161350000Y-74920000D01*
X161350000Y-75520000D01*
X160750000Y-75520000D01*
X160750000Y-74920000D01*
%TA.AperFunction,Conductor*%
G36*
X160750000Y-74920000D02*
G01*
X161350000Y-74920000D01*
X161350000Y-75520000D01*
X160750000Y-75520000D01*
X160750000Y-74920000D01*
G37*
%TD.AperFunction*%
D11*
%TD*%
%TO.C,\u002A1*%
X163530000Y-82060000D02*
X157970000Y-82060000D01*
%TO.C,\u002A1*%
X163530000Y-80060000D02*
X163530000Y-82060000D01*
X163530000Y-80060000D02*
X153559980Y-80060000D01*
X161050000Y-78060000D02*
X153550000Y-78060000D01*
X161050000Y-76250000D02*
X161050000Y-78060000D01*
X159250000Y-76250000D02*
X159250000Y-78060000D01*
X153550000Y-78060000D02*
X153550000Y-80060000D01*
%TD*%
D12*
%TO.P,\u002A1,1,GND*%
%TO.N,GND*%
X161050000Y-76250000D03*
%TO.P,\u002A1,2,ANT*%
%TO.N,unconnected-(\u002A1-ANT-Pad2)*%
X159250000Y-76250000D03*
%TD*%
D13*
%TO.P,R1,1*%
%TO.N,/VBAT_SW*%
X162110000Y-108940000D03*
D14*
%TO.P,R1,2*%
%TO.N,Net-(U1-D0)*%
X162110000Y-116560000D03*
%TD*%
D15*
%TO.P,J2,1,Pin_1*%
%TO.N,+BATT*%
X148108000Y-121666000D03*
D16*
%TO.P,J2,2,Pin_2*%
%TO.N,GND*%
X152908000Y-121666000D03*
%TD*%
D17*
%TO.P,U2,1,VCC*%
%TO.N,+3V3*%
X147500000Y-84902000D03*
%TO.P,U2,2,GND*%
%TO.N,GND*%
X147500000Y-87442000D03*
%TO.P,U2,3,SCL*%
%TO.N,/SCL*%
X147500000Y-89982000D03*
%TO.P,U2,4,SDA*%
%TO.N,/SDA*%
X147500000Y-92522000D03*
%TO.P,U2,5,XDA*%
%TO.N,unconnected-(U2-XDA-Pad5)*%
X147500000Y-95062000D03*
%TO.P,U2,6,XCL*%
%TO.N,unconnected-(U2-XCL-Pad6)*%
X147500000Y-97602000D03*
%TO.P,U2,7,ADD*%
%TO.N,unconnected-(U2-ADD-Pad7)*%
X147500000Y-100142000D03*
%TO.P,U2,8,INT*%
%TO.N,unconnected-(U2-INT-Pad8)*%
X147500000Y-102682000D03*
%TD*%
D18*
%TO.P,U1,1,VIN*%
%TO.N,/VBAT_SW*%
X146500000Y-69960000D03*
%TO.P,U1,2,GND*%
%TO.N,GND*%
X146500000Y-67420000D03*
%TO.P,U1,3,D9*%
%TO.N,unconnected-(U1-D9-Pad3)*%
X146500000Y-64880000D03*
%TO.P,U1,4,VUSB*%
%TO.N,unconnected-(U1-VUSB-Pad4)*%
X146500000Y-62340000D03*
%TO.P,U1,5,D5*%
%TO.N,/SCL*%
X146500000Y-59800000D03*
%TO.P,U1,6,D4*%
%TO.N,/SDA*%
X146500000Y-57260000D03*
%TO.P,U1,7,D3*%
%TO.N,unconnected-(U1-D3-Pad7)*%
X146500000Y-54720000D03*
%TO.P,U1,8,D2*%
%TO.N,unconnected-(U1-D2-Pad8)*%
X146500000Y-52180000D03*
%TO.P,U1,9,D1*%
%TO.N,unconnected-(U1-D1-Pad9)*%
X146500000Y-49640000D03*
%TO.P,U1,10,D0*%
%TO.N,Net-(U1-D0)*%
X146500000Y-47100000D03*
%TO.P,U1,11,D21/TX*%
%TO.N,unconnected-(U1-D21{slash}TX-Pad11)*%
X163500000Y-70000000D03*
%TO.P,U1,12,D20/RX*%
%TO.N,unconnected-(U1-D20{slash}RX-Pad12)*%
X163500000Y-67460000D03*
%TO.P,U1,13,RESET*%
%TO.N,unconnected-(U1-RESET-Pad13)*%
X163500000Y-64920000D03*
%TO.P,U1,14,GND*%
%TO.N,GND*%
X163500000Y-62380000D03*
%TO.P,U1,15,D6*%
%TO.N,unconnected-(U1-D6-Pad15)*%
X163500000Y-59840000D03*
%TO.P,U1,16,D7*%
%TO.N,unconnected-(U1-D7-Pad16)*%
X163500000Y-57300000D03*
%TO.P,U1,17,D8*%
%TO.N,unconnected-(U1-D8-Pad17)*%
X163500000Y-54760000D03*
%TO.P,U1,18,D9*%
%TO.N,unconnected-(U1-D9-Pad18)*%
X163500000Y-52220000D03*
%TO.P,U1,19,D10*%
%TO.N,unconnected-(U1-D10-Pad19)*%
X163500000Y-49680000D03*
%TO.P,U1,20,3V3*%
%TO.N,+3V3*%
X163500000Y-47140000D03*
%TD*%
D19*
%TO.P,J1,1,Pin_1*%
%TO.N,GND*%
X148210000Y-127000000D03*
D20*
%TO.P,J1,2,Pin_2*%
%TO.N,+3V3*%
X152810000Y-127000000D03*
%TO.P,J1,3,Pin_3*%
%TO.N,/SDA*%
X157410000Y-127000000D03*
%TO.P,J1,4,Pin_4*%
%TO.N,/SCL*%
X162010000Y-127000000D03*
%TD*%
D17*
%TO.P,SW1,1,B*%
%TO.N,unconnected-(SW1-B-Pad1)*%
X156220000Y-115043000D03*
%TO.P,SW1,2,C*%
%TO.N,+BATT*%
X156220000Y-112543000D03*
%TO.P,SW1,3,A*%
%TO.N,/VBAT_SW*%
X156220000Y-110043000D03*
%TD*%
D13*
%TO.P,R2,1*%
%TO.N,Net-(U1-D0)*%
X160000000Y-116560000D03*
D14*
%TO.P,R2,2*%
%TO.N,GND*%
X160000000Y-108940000D03*
%TD*%
D21*
%TO.N,/SCL*%
X149000000Y-60250000D03*
%TO.N,/SDA*%
X150044000Y-82543998D03*
X149860000Y-57912000D03*
%TO.N,+3V3*%
X148844000Y-84582000D03*
X161080000Y-47140000D03*
%TO.N,Net-(U1-D0)*%
X149250000Y-47750000D03*
%TO.N,/VBAT_SW*%
X150460000Y-74645000D03*
%TD*%
D22*
%TO.N,/SCL*%
X146500000Y-59800000D02*
X148550000Y-59800000D01*
X148550000Y-59800000D02*
X149000000Y-60250000D01*
%TO.N,/SDA*%
X157410000Y-127000000D02*
X158000000Y-126410000D01*
X149208000Y-57260000D02*
X149860000Y-57912000D01*
X150250000Y-101500000D02*
X150250000Y-95272000D01*
X146500000Y-57260000D02*
X149208000Y-57260000D01*
X150250000Y-82749998D02*
X150250000Y-89772000D01*
X150250000Y-89772000D02*
X150250000Y-95272000D01*
X158000000Y-126410000D02*
X158000000Y-109250000D01*
X158000000Y-109250000D02*
X150250000Y-101500000D01*
X150250000Y-89772000D02*
X147500000Y-92522000D01*
X150044000Y-82543998D02*
X150250000Y-82749998D01*
%TO.N,+3V3*%
X147500000Y-84902000D02*
X148524000Y-84902000D01*
X163500000Y-47140000D02*
X161080000Y-47140000D01*
X148524000Y-84902000D02*
X148844000Y-84582000D01*
%TO.N,Net-(U1-D0)*%
X160000000Y-116560000D02*
X162110000Y-116560000D01*
X146500000Y-47100000D02*
X148600000Y-47100000D01*
X148600000Y-47100000D02*
X149250000Y-47750000D01*
%TO.N,+BATT*%
X148108000Y-121666000D02*
X148108000Y-120655000D01*
X148108000Y-120655000D02*
X156220000Y-112543000D01*
%TO.N,/VBAT_SW*%
X149624000Y-69960000D02*
X146500000Y-69960000D01*
X150250000Y-70586000D02*
X149624000Y-69960000D01*
X146812000Y-70272000D02*
X146500000Y-69960000D01*
X150460000Y-74645000D02*
X150250000Y-74435000D01*
X150250000Y-74435000D02*
X150250000Y-70586000D01*
%TD*%
%TA.AperFunction,Conductor*%
%TO.N,GND*%
G36*
X163952539Y-43810185D02*
G01*
X163998294Y-43862989D01*
X164009500Y-43914500D01*
X164009500Y-46015500D01*
X163989815Y-46082539D01*
X163937011Y-46128294D01*
X163885500Y-46139500D01*
X162038118Y-46139500D01*
X162014666Y-46142221D01*
X162014664Y-46142221D01*
X161918732Y-46184580D01*
X161844580Y-46258732D01*
X161802221Y-46354664D01*
X161802221Y-46354666D01*
X161799500Y-46378118D01*
X161799500Y-46715500D01*
X161779815Y-46782539D01*
X161727011Y-46828294D01*
X161675500Y-46839500D01*
X161538501Y-46839500D01*
X161471462Y-46819815D01*
X161444788Y-46796703D01*
X161432515Y-46782539D01*
X161411128Y-46757857D01*
X161290053Y-46680047D01*
X161290051Y-46680046D01*
X161290049Y-46680045D01*
X161290050Y-46680045D01*
X161151963Y-46639500D01*
X161151961Y-46639500D01*
X161008039Y-46639500D01*
X161008036Y-46639500D01*
X160869949Y-46680045D01*
X160748873Y-46757856D01*
X160654623Y-46866626D01*
X160654622Y-46866628D01*
X160594834Y-46997543D01*
X160574353Y-47140000D01*
X160594834Y-47282456D01*
X160598300Y-47290045D01*
X160654623Y-47413373D01*
X160748872Y-47522143D01*
X160869947Y-47599953D01*
X160869950Y-47599954D01*
X160869949Y-47599954D01*
X161008036Y-47640499D01*
X161008038Y-47640500D01*
X161008039Y-47640500D01*
X161151962Y-47640500D01*
X161151962Y-47640499D01*
X161290053Y-47599953D01*
X161411128Y-47522143D01*
X161444788Y-47483296D01*
X161503567Y-47445523D01*
X161538501Y-47440500D01*
X161675500Y-47440500D01*
X161742539Y-47460185D01*
X161788294Y-47512989D01*
X161799500Y-47564500D01*
X161799500Y-47901881D01*
X161802221Y-47925333D01*
X161802221Y-47925335D01*
X161826918Y-47981267D01*
X161844580Y-48021267D01*
X161918733Y-48095420D01*
X162014667Y-48137779D01*
X162038120Y-48140500D01*
X163885500Y-48140500D01*
X163952539Y-48160185D01*
X163998294Y-48212989D01*
X164009500Y-48264500D01*
X164009500Y-48555500D01*
X163989815Y-48622539D01*
X163937011Y-48668294D01*
X163885500Y-48679500D01*
X162038118Y-48679500D01*
X162014666Y-48682221D01*
X162014664Y-48682221D01*
X161918732Y-48724580D01*
X161844580Y-48798732D01*
X161802221Y-48894664D01*
X161802221Y-48894666D01*
X161799500Y-48918118D01*
X161799500Y-50441881D01*
X161802221Y-50465333D01*
X161802221Y-50465335D01*
X161826918Y-50521267D01*
X161844580Y-50561267D01*
X161918733Y-50635420D01*
X162014667Y-50677779D01*
X162038120Y-50680500D01*
X163885500Y-50680500D01*
X163952539Y-50700185D01*
X163998294Y-50752989D01*
X164009500Y-50804500D01*
X164009500Y-51095500D01*
X163989815Y-51162539D01*
X163937011Y-51208294D01*
X163885500Y-51219500D01*
X162038118Y-51219500D01*
X162014666Y-51222221D01*
X162014664Y-51222221D01*
X161918732Y-51264580D01*
X161844580Y-51338732D01*
X161802221Y-51434664D01*
X161802221Y-51434666D01*
X161799500Y-51458118D01*
X161799500Y-52981881D01*
X161802221Y-53005333D01*
X161802221Y-53005335D01*
X161826918Y-53061267D01*
X161844580Y-53101267D01*
X161918733Y-53175420D01*
X162014667Y-53217779D01*
X162038120Y-53220500D01*
X163885500Y-53220500D01*
X163952539Y-53240185D01*
X163998294Y-53292989D01*
X164009500Y-53344500D01*
X164009500Y-53635500D01*
X163989815Y-53702539D01*
X163937011Y-53748294D01*
X163885500Y-53759500D01*
X162038118Y-53759500D01*
X162014666Y-53762221D01*
X162014664Y-53762221D01*
X161918732Y-53804580D01*
X161844580Y-53878732D01*
X161802221Y-53974664D01*
X161802221Y-53974666D01*
X161799500Y-53998118D01*
X161799500Y-55521881D01*
X161802221Y-55545333D01*
X161802221Y-55545335D01*
X161826918Y-55601267D01*
X161844580Y-55641267D01*
X161918733Y-55715420D01*
X162014667Y-55757779D01*
X162038120Y-55760500D01*
X163885500Y-55760500D01*
X163952539Y-55780185D01*
X163998294Y-55832989D01*
X164009500Y-55884500D01*
X164009500Y-56175500D01*
X163989815Y-56242539D01*
X163937011Y-56288294D01*
X163885500Y-56299500D01*
X162038118Y-56299500D01*
X162014666Y-56302221D01*
X162014664Y-56302221D01*
X161918732Y-56344580D01*
X161844580Y-56418732D01*
X161802221Y-56514664D01*
X161802221Y-56514666D01*
X161799500Y-56538118D01*
X161799500Y-58061881D01*
X161802221Y-58085333D01*
X161802221Y-58085335D01*
X161826918Y-58141267D01*
X161844580Y-58181267D01*
X161918733Y-58255420D01*
X162014667Y-58297779D01*
X162038120Y-58300500D01*
X163885500Y-58300500D01*
X163952539Y-58320185D01*
X163998294Y-58372989D01*
X164009500Y-58424500D01*
X164009500Y-58715500D01*
X163989815Y-58782539D01*
X163937011Y-58828294D01*
X163885500Y-58839500D01*
X162038118Y-58839500D01*
X162014666Y-58842221D01*
X162014664Y-58842221D01*
X161918732Y-58884580D01*
X161844580Y-58958732D01*
X161802221Y-59054664D01*
X161802221Y-59054666D01*
X161799500Y-59078118D01*
X161799500Y-60601881D01*
X161802221Y-60625333D01*
X161802221Y-60625335D01*
X161826918Y-60681267D01*
X161844580Y-60721267D01*
X161918733Y-60795420D01*
X162008346Y-60834988D01*
X162010216Y-60836568D01*
X162014662Y-60837777D01*
X162014667Y-60837779D01*
X162038120Y-60840500D01*
X162467177Y-60840500D01*
X162534216Y-60860185D01*
X162579971Y-60912989D01*
X162589915Y-60982147D01*
X162581738Y-61011953D01*
X162553551Y-61080000D01*
X163589094Y-62115543D01*
X163622579Y-62176866D01*
X163617595Y-62246558D01*
X163589095Y-62290905D01*
X163500000Y-62380000D01*
X163589095Y-62469095D01*
X163622580Y-62530418D01*
X163617596Y-62600110D01*
X163589095Y-62644457D01*
X162553552Y-63680000D01*
X162581739Y-63748047D01*
X162589208Y-63817516D01*
X162557933Y-63879996D01*
X162497844Y-63915648D01*
X162467178Y-63919500D01*
X162038118Y-63919500D01*
X162014662Y-63922221D01*
X162013734Y-63922474D01*
X162008349Y-63925010D01*
X161918731Y-63964581D01*
X161844580Y-64038732D01*
X161802221Y-64134664D01*
X161802221Y-64134666D01*
X161799500Y-64158118D01*
X161799500Y-65681881D01*
X161802221Y-65705333D01*
X161802221Y-65705335D01*
X161826918Y-65761267D01*
X161844580Y-65801267D01*
X161918733Y-65875420D01*
X162014667Y-65917779D01*
X162038120Y-65920500D01*
X163885500Y-65920500D01*
X163952539Y-65940185D01*
X163998294Y-65992989D01*
X164009500Y-66044500D01*
X164009500Y-66335500D01*
X163989815Y-66402539D01*
X163937011Y-66448294D01*
X163885500Y-66459500D01*
X162038118Y-66459500D01*
X162014666Y-66462221D01*
X162014664Y-66462221D01*
X161918732Y-66504580D01*
X161844580Y-66578732D01*
X161802221Y-66674664D01*
X161802221Y-66674666D01*
X161799500Y-66698118D01*
X161799500Y-68221881D01*
X161802221Y-68245333D01*
X161802221Y-68245335D01*
X161822565Y-68291408D01*
X161844580Y-68341267D01*
X161918733Y-68415420D01*
X162014667Y-68457779D01*
X162038120Y-68460500D01*
X163885500Y-68460500D01*
X163952539Y-68480185D01*
X163998294Y-68532989D01*
X164009500Y-68584500D01*
X164009500Y-68875500D01*
X163989815Y-68942539D01*
X163937011Y-68988294D01*
X163885500Y-68999500D01*
X162038118Y-68999500D01*
X162014666Y-69002221D01*
X162014664Y-69002221D01*
X161918732Y-69044580D01*
X161844580Y-69118732D01*
X161802221Y-69214664D01*
X161802221Y-69214666D01*
X161799500Y-69238118D01*
X161799500Y-70761881D01*
X161802221Y-70785333D01*
X161802221Y-70785335D01*
X161826918Y-70841267D01*
X161844580Y-70881267D01*
X161918733Y-70955420D01*
X162014667Y-70997779D01*
X162038120Y-71000500D01*
X163885500Y-71000500D01*
X163952539Y-71020185D01*
X163998294Y-71072989D01*
X164009500Y-71124500D01*
X164009500Y-75236000D01*
X163989815Y-75303039D01*
X163937011Y-75348794D01*
X163885500Y-75360000D01*
X161972001Y-75360000D01*
X161904962Y-75340315D01*
X161859207Y-75287511D01*
X161855820Y-75279335D01*
X161843352Y-75245909D01*
X161843351Y-75245907D01*
X161757190Y-75130812D01*
X161757187Y-75130809D01*
X161642093Y-75044649D01*
X161642086Y-75044645D01*
X161507379Y-74994403D01*
X161507372Y-74994401D01*
X161447844Y-74988000D01*
X161300000Y-74988000D01*
X161300000Y-75585468D01*
X161280315Y-75652507D01*
X161227511Y-75698262D01*
X161158353Y-75708206D01*
X161143910Y-75705243D01*
X161122475Y-75699500D01*
X160977525Y-75699500D01*
X160956092Y-75705242D01*
X160886243Y-75703580D01*
X160828381Y-75664417D01*
X160800877Y-75600189D01*
X160800000Y-75585468D01*
X160800000Y-74988000D01*
X160652155Y-74988000D01*
X160592627Y-74994401D01*
X160592620Y-74994403D01*
X160457913Y-75044645D01*
X160457906Y-75044649D01*
X160342812Y-75130809D01*
X160342809Y-75130812D01*
X160256648Y-75245907D01*
X160256647Y-75245909D01*
X160244180Y-75279335D01*
X160202308Y-75335268D01*
X160136843Y-75359684D01*
X160127999Y-75360000D01*
X159806939Y-75360000D01*
X159739900Y-75340315D01*
X159738089Y-75339129D01*
X159678231Y-75299133D01*
X159678229Y-75299132D01*
X159678227Y-75299131D01*
X159678229Y-75299131D01*
X159619752Y-75287500D01*
X159619748Y-75287500D01*
X158880252Y-75287500D01*
X158880247Y-75287500D01*
X158821771Y-75299131D01*
X158815923Y-75303039D01*
X158761951Y-75339102D01*
X158695275Y-75359980D01*
X158693061Y-75360000D01*
X152840000Y-75360000D01*
X152840000Y-83360000D01*
X163885500Y-83360000D01*
X163952539Y-83379685D01*
X163998294Y-83432489D01*
X164009500Y-83484000D01*
X164009500Y-131265500D01*
X163989815Y-131332539D01*
X163937011Y-131378294D01*
X163885500Y-131389500D01*
X146334500Y-131389500D01*
X146267461Y-131369815D01*
X146221706Y-131317011D01*
X146210500Y-131265500D01*
X146210500Y-126150014D01*
X146660000Y-126150014D01*
X146660000Y-126750000D01*
X147719252Y-126750000D01*
X147697482Y-126787708D01*
X147660000Y-126927591D01*
X147660000Y-127072409D01*
X147697482Y-127212292D01*
X147719252Y-127250000D01*
X146660000Y-127250000D01*
X146660000Y-127849985D01*
X146670493Y-127952689D01*
X146670494Y-127952696D01*
X146725641Y-128119118D01*
X146725643Y-128119123D01*
X146817684Y-128268344D01*
X146941655Y-128392315D01*
X147090876Y-128484356D01*
X147090881Y-128484358D01*
X147257303Y-128539505D01*
X147257310Y-128539506D01*
X147360014Y-128549999D01*
X147360027Y-128550000D01*
X147960000Y-128550000D01*
X147960000Y-127490747D01*
X147997708Y-127512518D01*
X148137591Y-127550000D01*
X148282409Y-127550000D01*
X148422292Y-127512518D01*
X148460000Y-127490747D01*
X148460000Y-128550000D01*
X149059973Y-128550000D01*
X149059985Y-128549999D01*
X149162689Y-128539506D01*
X149162696Y-128539505D01*
X149329118Y-128484358D01*
X149329123Y-128484356D01*
X149478344Y-128392315D01*
X149602315Y-128268344D01*
X149694356Y-128119123D01*
X149694358Y-128119118D01*
X149749505Y-127952696D01*
X149749506Y-127952689D01*
X149759999Y-127849985D01*
X149760000Y-127849972D01*
X149760000Y-127250000D01*
X148700748Y-127250000D01*
X148722518Y-127212292D01*
X148760000Y-127072409D01*
X148760000Y-126999997D01*
X151554723Y-126999997D01*
X151554723Y-127000002D01*
X151573793Y-127217975D01*
X151573793Y-127217979D01*
X151630422Y-127429322D01*
X151630424Y-127429326D01*
X151630425Y-127429330D01*
X151635452Y-127440110D01*
X151722897Y-127627638D01*
X151722898Y-127627639D01*
X151848402Y-127806877D01*
X152003123Y-127961598D01*
X152182361Y-128087102D01*
X152380670Y-128179575D01*
X152592023Y-128236207D01*
X152774926Y-128252208D01*
X152809998Y-128255277D01*
X152810000Y-128255277D01*
X152810002Y-128255277D01*
X152838254Y-128252805D01*
X153027977Y-128236207D01*
X153239330Y-128179575D01*
X153437639Y-128087102D01*
X153616877Y-127961598D01*
X153771598Y-127806877D01*
X153897102Y-127627639D01*
X153989575Y-127429330D01*
X154046207Y-127217977D01*
X154065277Y-127000000D01*
X154046207Y-126782023D01*
X153989575Y-126570670D01*
X153897102Y-126372362D01*
X153897100Y-126372359D01*
X153897099Y-126372357D01*
X153771599Y-126193124D01*
X153700500Y-126122025D01*
X153616877Y-126038402D01*
X153437639Y-125912898D01*
X153437640Y-125912898D01*
X153437638Y-125912897D01*
X153338484Y-125866661D01*
X153239330Y-125820425D01*
X153239326Y-125820424D01*
X153239322Y-125820422D01*
X153027977Y-125763793D01*
X152810002Y-125744723D01*
X152809998Y-125744723D01*
X152664682Y-125757436D01*
X152592023Y-125763793D01*
X152592020Y-125763793D01*
X152380677Y-125820422D01*
X152380668Y-125820426D01*
X152182361Y-125912898D01*
X152182357Y-125912900D01*
X152003121Y-126038402D01*
X151848402Y-126193121D01*
X151722900Y-126372357D01*
X151722898Y-126372361D01*
X151630426Y-126570668D01*
X151630422Y-126570677D01*
X151573793Y-126782020D01*
X151573793Y-126782024D01*
X151554723Y-126999997D01*
X148760000Y-126999997D01*
X148760000Y-126927591D01*
X148722518Y-126787708D01*
X148700748Y-126750000D01*
X149760000Y-126750000D01*
X149760000Y-126150027D01*
X149759999Y-126150014D01*
X149749506Y-126047310D01*
X149749505Y-126047303D01*
X149694358Y-125880881D01*
X149694356Y-125880876D01*
X149602315Y-125731655D01*
X149478344Y-125607684D01*
X149329123Y-125515643D01*
X149329118Y-125515641D01*
X149162696Y-125460494D01*
X149162689Y-125460493D01*
X149059985Y-125450000D01*
X148460000Y-125450000D01*
X148460000Y-126509252D01*
X148422292Y-126487482D01*
X148282409Y-126450000D01*
X148137591Y-126450000D01*
X147997708Y-126487482D01*
X147960000Y-126509252D01*
X147960000Y-125450000D01*
X147360014Y-125450000D01*
X147257310Y-125460493D01*
X147257303Y-125460494D01*
X147090881Y-125515641D01*
X147090876Y-125515643D01*
X146941655Y-125607684D01*
X146817684Y-125731655D01*
X146725643Y-125880876D01*
X146725641Y-125880881D01*
X146670494Y-126047303D01*
X146670493Y-126047310D01*
X146660000Y-126150014D01*
X146210500Y-126150014D01*
X146210500Y-120711731D01*
X146757500Y-120711731D01*
X146757500Y-122620258D01*
X146760354Y-122650698D01*
X146760354Y-122650699D01*
X146805206Y-122778881D01*
X146805207Y-122778882D01*
X146885850Y-122888150D01*
X146995118Y-122968793D01*
X147123302Y-123013646D01*
X147123301Y-123013646D01*
X147127271Y-123014018D01*
X147153735Y-123016500D01*
X149062264Y-123016499D01*
X149092698Y-123013646D01*
X149220882Y-122968793D01*
X149330150Y-122888150D01*
X149410793Y-122778882D01*
X149455646Y-122650698D01*
X149458500Y-122620265D01*
X149458499Y-121666000D01*
X151252898Y-121666000D01*
X151273274Y-121924912D01*
X151333901Y-122177445D01*
X151333906Y-122177462D01*
X151433290Y-122417397D01*
X151433292Y-122417400D01*
X151568993Y-122638844D01*
X151574801Y-122645644D01*
X152384212Y-121836233D01*
X152395482Y-121878292D01*
X152467890Y-122003708D01*
X152570292Y-122106110D01*
X152695708Y-122178518D01*
X152737766Y-122189787D01*
X151928355Y-122999197D01*
X151935155Y-123005005D01*
X152156599Y-123140707D01*
X152156602Y-123140709D01*
X152396537Y-123240093D01*
X152396554Y-123240098D01*
X152649088Y-123300725D01*
X152649087Y-123300725D01*
X152908000Y-123321101D01*
X153166912Y-123300725D01*
X153419445Y-123240098D01*
X153419462Y-123240093D01*
X153659397Y-123140709D01*
X153659400Y-123140707D01*
X153880841Y-123005007D01*
X153880851Y-123005000D01*
X153887643Y-122999198D01*
X153887643Y-122999197D01*
X153078233Y-122189787D01*
X153120292Y-122178518D01*
X153245708Y-122106110D01*
X153348110Y-122003708D01*
X153420518Y-121878292D01*
X153431787Y-121836233D01*
X154241197Y-122645643D01*
X154241198Y-122645643D01*
X154247000Y-122638851D01*
X154247007Y-122638841D01*
X154382707Y-122417400D01*
X154382709Y-122417397D01*
X154482093Y-122177462D01*
X154482098Y-122177445D01*
X154542725Y-121924912D01*
X154563101Y-121666000D01*
X154542725Y-121407087D01*
X154482098Y-121154554D01*
X154482093Y-121154537D01*
X154382709Y-120914602D01*
X154382707Y-120914599D01*
X154247005Y-120693155D01*
X154241197Y-120686355D01*
X153431787Y-121495765D01*
X153420518Y-121453708D01*
X153348110Y-121328292D01*
X153245708Y-121225890D01*
X153120292Y-121153482D01*
X153078234Y-121142212D01*
X153887644Y-120332801D01*
X153880844Y-120326993D01*
X153659400Y-120191292D01*
X153659397Y-120191290D01*
X153419462Y-120091906D01*
X153419445Y-120091901D01*
X153166911Y-120031274D01*
X153166912Y-120031274D01*
X152908000Y-120010898D01*
X152649087Y-120031274D01*
X152396554Y-120091901D01*
X152396537Y-120091906D01*
X152156602Y-120191290D01*
X152156599Y-120191292D01*
X151935157Y-120326992D01*
X151935156Y-120326993D01*
X151928355Y-120332801D01*
X152737766Y-121142212D01*
X152695708Y-121153482D01*
X152570292Y-121225890D01*
X152467890Y-121328292D01*
X152395482Y-121453708D01*
X152384212Y-121495766D01*
X151574801Y-120686355D01*
X151568993Y-120693156D01*
X151568992Y-120693157D01*
X151433292Y-120914599D01*
X151433290Y-120914602D01*
X151333906Y-121154537D01*
X151333901Y-121154554D01*
X151273274Y-121407087D01*
X151252898Y-121666000D01*
X149458499Y-121666000D01*
X149458499Y-120711736D01*
X149455646Y-120681302D01*
X149410793Y-120553118D01*
X149330150Y-120443850D01*
X149220882Y-120363207D01*
X149220881Y-120363206D01*
X149113712Y-120325707D01*
X149056936Y-120284985D01*
X149031188Y-120220033D01*
X149044644Y-120151471D01*
X149066982Y-120120987D01*
X154144969Y-115043000D01*
X155252843Y-115043000D01*
X155271426Y-115231681D01*
X155271427Y-115231683D01*
X155326463Y-115413115D01*
X155326464Y-115413118D01*
X155326465Y-115413119D01*
X155326466Y-115413122D01*
X155415834Y-115580318D01*
X155415838Y-115580325D01*
X155536116Y-115726883D01*
X155682674Y-115847161D01*
X155682681Y-115847165D01*
X155849877Y-115936533D01*
X155849878Y-115936533D01*
X155849885Y-115936537D01*
X156031317Y-115991573D01*
X156031316Y-115991573D01*
X156048233Y-115993239D01*
X156220000Y-116010157D01*
X156408683Y-115991573D01*
X156590115Y-115936537D01*
X156757324Y-115847162D01*
X156903883Y-115726883D01*
X157024162Y-115580324D01*
X157113537Y-115413115D01*
X157168573Y-115231683D01*
X157187157Y-115043000D01*
X157168573Y-114854317D01*
X157113537Y-114672885D01*
X157024162Y-114505676D01*
X157024161Y-114505674D01*
X156903883Y-114359116D01*
X156757325Y-114238838D01*
X156757318Y-114238834D01*
X156590122Y-114149466D01*
X156590119Y-114149465D01*
X156590118Y-114149464D01*
X156590115Y-114149463D01*
X156408683Y-114094427D01*
X156408681Y-114094426D01*
X156408683Y-114094426D01*
X156220000Y-114075843D01*
X156031318Y-114094426D01*
X155924194Y-114126921D01*
X155849885Y-114149463D01*
X155849882Y-114149464D01*
X155849880Y-114149465D01*
X155849877Y-114149466D01*
X155682681Y-114238834D01*
X155682674Y-114238838D01*
X155536116Y-114359116D01*
X155415838Y-114505674D01*
X155415834Y-114505681D01*
X155326466Y-114672877D01*
X155326465Y-114672880D01*
X155271426Y-114854318D01*
X155252843Y-115043000D01*
X154144969Y-115043000D01*
X155721795Y-113466174D01*
X155783116Y-113432691D01*
X155845470Y-113435196D01*
X155849877Y-113436533D01*
X155849885Y-113436537D01*
X156031317Y-113491573D01*
X156220000Y-113510157D01*
X156408683Y-113491573D01*
X156590115Y-113436537D01*
X156757324Y-113347162D01*
X156903883Y-113226883D01*
X157024162Y-113080324D01*
X157113537Y-112913115D01*
X157168573Y-112731683D01*
X157187157Y-112543000D01*
X157168573Y-112354317D01*
X157113537Y-112172885D01*
X157024162Y-112005676D01*
X157024161Y-112005674D01*
X156903883Y-111859116D01*
X156757325Y-111738838D01*
X156757318Y-111738834D01*
X156590122Y-111649466D01*
X156590119Y-111649465D01*
X156590118Y-111649464D01*
X156590115Y-111649463D01*
X156408683Y-111594427D01*
X156408681Y-111594426D01*
X156408683Y-111594426D01*
X156220000Y-111575843D01*
X156031318Y-111594426D01*
X155924194Y-111626921D01*
X155849885Y-111649463D01*
X155849882Y-111649464D01*
X155849880Y-111649465D01*
X155849877Y-111649466D01*
X155682681Y-111738834D01*
X155682674Y-111738838D01*
X155536116Y-111859116D01*
X155415838Y-112005674D01*
X155415834Y-112005681D01*
X155326466Y-112172877D01*
X155326465Y-112172880D01*
X155271426Y-112354318D01*
X155252843Y-112543000D01*
X155271426Y-112731681D01*
X155327802Y-112917529D01*
X155328425Y-112987396D01*
X155296822Y-113041205D01*
X148058846Y-120279181D01*
X147997523Y-120312666D01*
X147971165Y-120315500D01*
X147153741Y-120315500D01*
X147123301Y-120318354D01*
X147123300Y-120318354D01*
X146995118Y-120363206D01*
X146885850Y-120443850D01*
X146805206Y-120553118D01*
X146760353Y-120681302D01*
X146757500Y-120711731D01*
X146210500Y-120711731D01*
X146210500Y-110043000D01*
X155252843Y-110043000D01*
X155271426Y-110231681D01*
X155271427Y-110231683D01*
X155326463Y-110413115D01*
X155326464Y-110413118D01*
X155326465Y-110413119D01*
X155326466Y-110413122D01*
X155415834Y-110580318D01*
X155415838Y-110580325D01*
X155536116Y-110726883D01*
X155682674Y-110847161D01*
X155682681Y-110847165D01*
X155849877Y-110936533D01*
X155849878Y-110936533D01*
X155849885Y-110936537D01*
X156031317Y-110991573D01*
X156031316Y-110991573D01*
X156048233Y-110993239D01*
X156220000Y-111010157D01*
X156408683Y-110991573D01*
X156590115Y-110936537D01*
X156757324Y-110847162D01*
X156903883Y-110726883D01*
X157024162Y-110580324D01*
X157113537Y-110413115D01*
X157168573Y-110231683D01*
X157187157Y-110043000D01*
X157168573Y-109854317D01*
X157113537Y-109672885D01*
X157024162Y-109505676D01*
X157024161Y-109505674D01*
X156903883Y-109359116D01*
X156757325Y-109238838D01*
X156757318Y-109238834D01*
X156590122Y-109149466D01*
X156590119Y-109149465D01*
X156590118Y-109149464D01*
X156590115Y-109149463D01*
X156408683Y-109094427D01*
X156408681Y-109094426D01*
X156408683Y-109094426D01*
X156220000Y-109075843D01*
X156031318Y-109094426D01*
X155924194Y-109126921D01*
X155849885Y-109149463D01*
X155849882Y-109149464D01*
X155849880Y-109149465D01*
X155849877Y-109149466D01*
X155682681Y-109238834D01*
X155682674Y-109238838D01*
X155536116Y-109359116D01*
X155415838Y-109505674D01*
X155415834Y-109505681D01*
X155326466Y-109672877D01*
X155326465Y-109672880D01*
X155271426Y-109854318D01*
X155252843Y-110043000D01*
X146210500Y-110043000D01*
X146210500Y-102682000D01*
X146532843Y-102682000D01*
X146551426Y-102870681D01*
X146551427Y-102870683D01*
X146606463Y-103052115D01*
X146606464Y-103052118D01*
X146606465Y-103052119D01*
X146606466Y-103052122D01*
X146695834Y-103219318D01*
X146695838Y-103219325D01*
X146816116Y-103365883D01*
X146962674Y-103486161D01*
X146962681Y-103486165D01*
X147129877Y-103575533D01*
X147129878Y-103575533D01*
X147129885Y-103575537D01*
X147311317Y-103630573D01*
X147311316Y-103630573D01*
X147328233Y-103632239D01*
X147500000Y-103649157D01*
X147688683Y-103630573D01*
X147870115Y-103575537D01*
X148037324Y-103486162D01*
X148183883Y-103365883D01*
X148304162Y-103219324D01*
X148393537Y-103052115D01*
X148448573Y-102870683D01*
X148467157Y-102682000D01*
X148448573Y-102493317D01*
X148393537Y-102311885D01*
X148304162Y-102144676D01*
X148304161Y-102144674D01*
X148183883Y-101998116D01*
X148037325Y-101877838D01*
X148037318Y-101877834D01*
X147870122Y-101788466D01*
X147870119Y-101788465D01*
X147870118Y-101788464D01*
X147870115Y-101788463D01*
X147688683Y-101733427D01*
X147688681Y-101733426D01*
X147688683Y-101733426D01*
X147500000Y-101714843D01*
X147311318Y-101733426D01*
X147204194Y-101765921D01*
X147129885Y-101788463D01*
X147129882Y-101788464D01*
X147129880Y-101788465D01*
X147129877Y-101788466D01*
X146962681Y-101877834D01*
X146962674Y-101877838D01*
X146816116Y-101998116D01*
X146695838Y-102144674D01*
X146695834Y-102144681D01*
X146606466Y-102311877D01*
X146606465Y-102311880D01*
X146551426Y-102493318D01*
X146532843Y-102682000D01*
X146210500Y-102682000D01*
X146210500Y-100142000D01*
X146532843Y-100142000D01*
X146551426Y-100330681D01*
X146551427Y-100330683D01*
X146606463Y-100512115D01*
X146606464Y-100512118D01*
X146606465Y-100512119D01*
X146606466Y-100512122D01*
X146695834Y-100679318D01*
X146695838Y-100679325D01*
X146816116Y-100825883D01*
X146962674Y-100946161D01*
X146962681Y-100946165D01*
X147129877Y-101035533D01*
X147129878Y-101035533D01*
X147129885Y-101035537D01*
X147311317Y-101090573D01*
X147311316Y-101090573D01*
X147328233Y-101092239D01*
X147500000Y-101109157D01*
X147688683Y-101090573D01*
X147870115Y-101035537D01*
X148037324Y-100946162D01*
X148183883Y-100825883D01*
X148304162Y-100679324D01*
X148393537Y-100512115D01*
X148448573Y-100330683D01*
X148467157Y-100142000D01*
X148448573Y-99953317D01*
X148393537Y-99771885D01*
X148304162Y-99604676D01*
X148304161Y-99604674D01*
X148183883Y-99458116D01*
X148037325Y-99337838D01*
X148037318Y-99337834D01*
X147870122Y-99248466D01*
X147870119Y-99248465D01*
X147870118Y-99248464D01*
X147870115Y-99248463D01*
X147688683Y-99193427D01*
X147688681Y-99193426D01*
X147688683Y-99193426D01*
X147500000Y-99174843D01*
X147311318Y-99193426D01*
X147204194Y-99225921D01*
X147129885Y-99248463D01*
X147129882Y-99248464D01*
X147129880Y-99248465D01*
X147129877Y-99248466D01*
X146962681Y-99337834D01*
X146962674Y-99337838D01*
X146816116Y-99458116D01*
X146695838Y-99604674D01*
X146695834Y-99604681D01*
X146606466Y-99771877D01*
X146606465Y-99771880D01*
X146551426Y-99953318D01*
X146532843Y-100142000D01*
X146210500Y-100142000D01*
X146210500Y-97602000D01*
X146532843Y-97602000D01*
X146551426Y-97790681D01*
X146551427Y-97790683D01*
X146606463Y-97972115D01*
X146606464Y-97972118D01*
X146606465Y-97972119D01*
X146606466Y-97972122D01*
X146695834Y-98139318D01*
X146695838Y-98139325D01*
X146816116Y-98285883D01*
X146962674Y-98406161D01*
X146962681Y-98406165D01*
X147129877Y-98495533D01*
X147129878Y-98495533D01*
X147129885Y-98495537D01*
X147311317Y-98550573D01*
X147311316Y-98550573D01*
X147328233Y-98552239D01*
X147500000Y-98569157D01*
X147688683Y-98550573D01*
X147870115Y-98495537D01*
X148037324Y-98406162D01*
X148183883Y-98285883D01*
X148304162Y-98139324D01*
X148393537Y-97972115D01*
X148448573Y-97790683D01*
X148467157Y-97602000D01*
X148448573Y-97413317D01*
X148393537Y-97231885D01*
X148304162Y-97064676D01*
X148304161Y-97064674D01*
X148183883Y-96918116D01*
X148037325Y-96797838D01*
X148037318Y-96797834D01*
X147870122Y-96708466D01*
X147870119Y-96708465D01*
X147870118Y-96708464D01*
X147870115Y-96708463D01*
X147688683Y-96653427D01*
X147688681Y-96653426D01*
X147688683Y-96653426D01*
X147500000Y-96634843D01*
X147311318Y-96653426D01*
X147204194Y-96685921D01*
X147129885Y-96708463D01*
X147129882Y-96708464D01*
X147129880Y-96708465D01*
X147129877Y-96708466D01*
X146962681Y-96797834D01*
X146962674Y-96797838D01*
X146816116Y-96918116D01*
X146695838Y-97064674D01*
X146695834Y-97064681D01*
X146606466Y-97231877D01*
X146606465Y-97231880D01*
X146551426Y-97413318D01*
X146532843Y-97602000D01*
X146210500Y-97602000D01*
X146210500Y-95062000D01*
X146532843Y-95062000D01*
X146551426Y-95250681D01*
X146551427Y-95250683D01*
X146606463Y-95432115D01*
X146606464Y-95432118D01*
X146606465Y-95432119D01*
X146606466Y-95432122D01*
X146695834Y-95599318D01*
X146695838Y-95599325D01*
X146816116Y-95745883D01*
X146962674Y-95866161D01*
X146962681Y-95866165D01*
X147129877Y-95955533D01*
X147129878Y-95955533D01*
X147129885Y-95955537D01*
X147311317Y-96010573D01*
X147311316Y-96010573D01*
X147328233Y-96012239D01*
X147500000Y-96029157D01*
X147688683Y-96010573D01*
X147870115Y-95955537D01*
X148037324Y-95866162D01*
X148183883Y-95745883D01*
X148304162Y-95599324D01*
X148393537Y-95432115D01*
X148448573Y-95250683D01*
X148467157Y-95062000D01*
X148448573Y-94873317D01*
X148393537Y-94691885D01*
X148304162Y-94524676D01*
X148304161Y-94524674D01*
X148183883Y-94378116D01*
X148037325Y-94257838D01*
X148037318Y-94257834D01*
X147870122Y-94168466D01*
X147870119Y-94168465D01*
X147870118Y-94168464D01*
X147870115Y-94168463D01*
X147688683Y-94113427D01*
X147688681Y-94113426D01*
X147688683Y-94113426D01*
X147500000Y-94094843D01*
X147311318Y-94113426D01*
X147204194Y-94145921D01*
X147129885Y-94168463D01*
X147129882Y-94168464D01*
X147129880Y-94168465D01*
X147129877Y-94168466D01*
X146962681Y-94257834D01*
X146962674Y-94257838D01*
X146816116Y-94378116D01*
X146695838Y-94524674D01*
X146695834Y-94524681D01*
X146606466Y-94691877D01*
X146606465Y-94691880D01*
X146551426Y-94873318D01*
X146532843Y-95062000D01*
X146210500Y-95062000D01*
X146210500Y-92522000D01*
X146532843Y-92522000D01*
X146551426Y-92710681D01*
X146551427Y-92710683D01*
X146606463Y-92892115D01*
X146606464Y-92892118D01*
X146606465Y-92892119D01*
X146606466Y-92892122D01*
X146695834Y-93059318D01*
X146695838Y-93059325D01*
X146816116Y-93205883D01*
X146962674Y-93326161D01*
X146962681Y-93326165D01*
X147129877Y-93415533D01*
X147129878Y-93415533D01*
X147129885Y-93415537D01*
X147311317Y-93470573D01*
X147311316Y-93470573D01*
X147328233Y-93472239D01*
X147500000Y-93489157D01*
X147688683Y-93470573D01*
X147870115Y-93415537D01*
X148037324Y-93326162D01*
X148183883Y-93205883D01*
X148304162Y-93059324D01*
X148393537Y-92892115D01*
X148448573Y-92710683D01*
X148467157Y-92522000D01*
X148448573Y-92333317D01*
X148393537Y-92151885D01*
X148393533Y-92151877D01*
X148392196Y-92147470D01*
X148391573Y-92077603D01*
X148423174Y-92023795D01*
X149737820Y-90709149D01*
X149799142Y-90675666D01*
X149868834Y-90680650D01*
X149924767Y-90722522D01*
X149949184Y-90787986D01*
X149949500Y-90796832D01*
X149949500Y-95232438D01*
X149949500Y-101539562D01*
X149963152Y-101590513D01*
X149969979Y-101615990D01*
X149969982Y-101615995D01*
X150009535Y-101684504D01*
X150009541Y-101684512D01*
X157663181Y-109338152D01*
X157696666Y-109399475D01*
X157699500Y-109425833D01*
X157699500Y-125634728D01*
X157679815Y-125701767D01*
X157627011Y-125747522D01*
X157564693Y-125758256D01*
X157410002Y-125744723D01*
X157409998Y-125744723D01*
X157264682Y-125757436D01*
X157192023Y-125763793D01*
X157192020Y-125763793D01*
X156980677Y-125820422D01*
X156980668Y-125820426D01*
X156782361Y-125912898D01*
X156782357Y-125912900D01*
X156603121Y-126038402D01*
X156448402Y-126193121D01*
X156322900Y-126372357D01*
X156322898Y-126372361D01*
X156230426Y-126570668D01*
X156230422Y-126570677D01*
X156173793Y-126782020D01*
X156173793Y-126782024D01*
X156154723Y-126999997D01*
X156154723Y-127000002D01*
X156173793Y-127217975D01*
X156173793Y-127217979D01*
X156230422Y-127429322D01*
X156230424Y-127429326D01*
X156230425Y-127429330D01*
X156235452Y-127440110D01*
X156322897Y-127627638D01*
X156322898Y-127627639D01*
X156448402Y-127806877D01*
X156603123Y-127961598D01*
X156782361Y-128087102D01*
X156980670Y-128179575D01*
X157192023Y-128236207D01*
X157374926Y-128252208D01*
X157409998Y-128255277D01*
X157410000Y-128255277D01*
X157410002Y-128255277D01*
X157438254Y-128252805D01*
X157627977Y-128236207D01*
X157839330Y-128179575D01*
X158037639Y-128087102D01*
X158216877Y-127961598D01*
X158371598Y-127806877D01*
X158497102Y-127627639D01*
X158589575Y-127429330D01*
X158646207Y-127217977D01*
X158665277Y-127000000D01*
X158665277Y-126999997D01*
X160754723Y-126999997D01*
X160754723Y-127000002D01*
X160773793Y-127217975D01*
X160773793Y-127217979D01*
X160830422Y-127429322D01*
X160830424Y-127429326D01*
X160830425Y-127429330D01*
X160835452Y-127440110D01*
X160922897Y-127627638D01*
X160922898Y-127627639D01*
X161048402Y-127806877D01*
X161203123Y-127961598D01*
X161382361Y-128087102D01*
X161580670Y-128179575D01*
X161792023Y-128236207D01*
X161974926Y-128252208D01*
X162009998Y-128255277D01*
X162010000Y-128255277D01*
X162010002Y-128255277D01*
X162038254Y-128252805D01*
X162227977Y-128236207D01*
X162439330Y-128179575D01*
X162637639Y-128087102D01*
X162816877Y-127961598D01*
X162971598Y-127806877D01*
X163097102Y-127627639D01*
X163189575Y-127429330D01*
X163246207Y-127217977D01*
X163265277Y-127000000D01*
X163246207Y-126782023D01*
X163189575Y-126570670D01*
X163097102Y-126372362D01*
X163097100Y-126372359D01*
X163097099Y-126372357D01*
X162971599Y-126193124D01*
X162900500Y-126122025D01*
X162816877Y-126038402D01*
X162637639Y-125912898D01*
X162637640Y-125912898D01*
X162637638Y-125912897D01*
X162538484Y-125866661D01*
X162439330Y-125820425D01*
X162439326Y-125820424D01*
X162439322Y-125820422D01*
X162227977Y-125763793D01*
X162010002Y-125744723D01*
X162009998Y-125744723D01*
X161864682Y-125757436D01*
X161792023Y-125763793D01*
X161792020Y-125763793D01*
X161580677Y-125820422D01*
X161580668Y-125820426D01*
X161382361Y-125912898D01*
X161382357Y-125912900D01*
X161203121Y-126038402D01*
X161048402Y-126193121D01*
X160922900Y-126372357D01*
X160922898Y-126372361D01*
X160830426Y-126570668D01*
X160830422Y-126570677D01*
X160773793Y-126782020D01*
X160773793Y-126782024D01*
X160754723Y-126999997D01*
X158665277Y-126999997D01*
X158646207Y-126782023D01*
X158589575Y-126570670D01*
X158497102Y-126372362D01*
X158497100Y-126372359D01*
X158497099Y-126372357D01*
X158371597Y-126193121D01*
X158336819Y-126158343D01*
X158303334Y-126097020D01*
X158300500Y-126070662D01*
X158300500Y-116560000D01*
X159094540Y-116560000D01*
X159114326Y-116748256D01*
X159114327Y-116748259D01*
X159172818Y-116928277D01*
X159172821Y-116928284D01*
X159267467Y-117092216D01*
X159394129Y-117232888D01*
X159547265Y-117344148D01*
X159547270Y-117344151D01*
X159720192Y-117421142D01*
X159720197Y-117421144D01*
X159905354Y-117460500D01*
X159905355Y-117460500D01*
X160094644Y-117460500D01*
X160094646Y-117460500D01*
X160279803Y-117421144D01*
X160452730Y-117344151D01*
X160605871Y-117232888D01*
X160732533Y-117092216D01*
X160750698Y-117060751D01*
X160830429Y-116922656D01*
X160833074Y-116924183D01*
X160869603Y-116880994D01*
X160936402Y-116860509D01*
X160937885Y-116860500D01*
X161172115Y-116860500D01*
X161239154Y-116880185D01*
X161277161Y-116924047D01*
X161279571Y-116922656D01*
X161377465Y-117092214D01*
X161504129Y-117232888D01*
X161657265Y-117344148D01*
X161657270Y-117344151D01*
X161830192Y-117421142D01*
X161830197Y-117421144D01*
X162015354Y-117460500D01*
X162015355Y-117460500D01*
X162204644Y-117460500D01*
X162204646Y-117460500D01*
X162389803Y-117421144D01*
X162562730Y-117344151D01*
X162715871Y-117232888D01*
X162842533Y-117092216D01*
X162937179Y-116928284D01*
X162995674Y-116748256D01*
X163015460Y-116560000D01*
X162995674Y-116371744D01*
X162937179Y-116191716D01*
X162842533Y-116027784D01*
X162715871Y-115887112D01*
X162715870Y-115887111D01*
X162562734Y-115775851D01*
X162562729Y-115775848D01*
X162389807Y-115698857D01*
X162389802Y-115698855D01*
X162244001Y-115667865D01*
X162204646Y-115659500D01*
X162015354Y-115659500D01*
X161982897Y-115666398D01*
X161830197Y-115698855D01*
X161830192Y-115698857D01*
X161657270Y-115775848D01*
X161657265Y-115775851D01*
X161504129Y-115887111D01*
X161377465Y-116027785D01*
X161279571Y-116197344D01*
X161276925Y-116195816D01*
X161240397Y-116239006D01*
X161173598Y-116259491D01*
X161172115Y-116259500D01*
X160937885Y-116259500D01*
X160870846Y-116239815D01*
X160832838Y-116195952D01*
X160830429Y-116197344D01*
X160732534Y-116027785D01*
X160605870Y-115887111D01*
X160452734Y-115775851D01*
X160452729Y-115775848D01*
X160279807Y-115698857D01*
X160279802Y-115698855D01*
X160134001Y-115667865D01*
X160094646Y-115659500D01*
X159905354Y-115659500D01*
X159872897Y-115666398D01*
X159720197Y-115698855D01*
X159720192Y-115698857D01*
X159547270Y-115775848D01*
X159547265Y-115775851D01*
X159394129Y-115887111D01*
X159267466Y-116027785D01*
X159172821Y-116191715D01*
X159172818Y-116191722D01*
X159114327Y-116371740D01*
X159114326Y-116371744D01*
X159094540Y-116560000D01*
X158300500Y-116560000D01*
X158300500Y-109210439D01*
X158300500Y-109210438D01*
X158295024Y-109190000D01*
X158823505Y-109190000D01*
X158876239Y-109375349D01*
X158975368Y-109574425D01*
X159109391Y-109751900D01*
X159273738Y-109901721D01*
X159462820Y-110018797D01*
X159462822Y-110018798D01*
X159670195Y-110099135D01*
X159750000Y-110114052D01*
X159750000Y-109190000D01*
X158823505Y-109190000D01*
X158295024Y-109190000D01*
X158280021Y-109134011D01*
X158276698Y-109128256D01*
X158240464Y-109065495D01*
X158240458Y-109065487D01*
X158068893Y-108893922D01*
X159650000Y-108893922D01*
X159650000Y-108986078D01*
X159673852Y-109075095D01*
X159719930Y-109154905D01*
X159785095Y-109220070D01*
X159864905Y-109266148D01*
X159953922Y-109290000D01*
X160046078Y-109290000D01*
X160135095Y-109266148D01*
X160214905Y-109220070D01*
X160250000Y-109184975D01*
X160250000Y-110114052D01*
X160329804Y-110099135D01*
X160537177Y-110018798D01*
X160537179Y-110018797D01*
X160726261Y-109901721D01*
X160890608Y-109751900D01*
X161024631Y-109574425D01*
X161112419Y-109398125D01*
X161159922Y-109346888D01*
X161227585Y-109329467D01*
X161293925Y-109351393D01*
X161330806Y-109391397D01*
X161335470Y-109399475D01*
X161377467Y-109472216D01*
X161469497Y-109574425D01*
X161504129Y-109612888D01*
X161657265Y-109724148D01*
X161657270Y-109724151D01*
X161830192Y-109801142D01*
X161830197Y-109801144D01*
X162015354Y-109840500D01*
X162015355Y-109840500D01*
X162204644Y-109840500D01*
X162204646Y-109840500D01*
X162389803Y-109801144D01*
X162562730Y-109724151D01*
X162715871Y-109612888D01*
X162842533Y-109472216D01*
X162937179Y-109308284D01*
X162995674Y-109128256D01*
X163015460Y-108940000D01*
X162995674Y-108751744D01*
X162937179Y-108571716D01*
X162842533Y-108407784D01*
X162715871Y-108267112D01*
X162715870Y-108267111D01*
X162562734Y-108155851D01*
X162562729Y-108155848D01*
X162389807Y-108078857D01*
X162389802Y-108078855D01*
X162244001Y-108047865D01*
X162204646Y-108039500D01*
X162015354Y-108039500D01*
X161982897Y-108046398D01*
X161830197Y-108078855D01*
X161830192Y-108078857D01*
X161657270Y-108155848D01*
X161657265Y-108155851D01*
X161504129Y-108267111D01*
X161377465Y-108407785D01*
X161330806Y-108488602D01*
X161280239Y-108536818D01*
X161211632Y-108550040D01*
X161146767Y-108524072D01*
X161112419Y-108481874D01*
X161024631Y-108305574D01*
X160890608Y-108128099D01*
X160726261Y-107978278D01*
X160537179Y-107861202D01*
X160537177Y-107861201D01*
X160329799Y-107780864D01*
X160250000Y-107765946D01*
X160250000Y-108695025D01*
X160214905Y-108659930D01*
X160135095Y-108613852D01*
X160046078Y-108590000D01*
X159953922Y-108590000D01*
X159864905Y-108613852D01*
X159785095Y-108659930D01*
X159719930Y-108725095D01*
X159673852Y-108804905D01*
X159650000Y-108893922D01*
X158068893Y-108893922D01*
X157864971Y-108690000D01*
X158823505Y-108690000D01*
X159750000Y-108690000D01*
X159750000Y-107765946D01*
X159670200Y-107780864D01*
X159462822Y-107861201D01*
X159462820Y-107861202D01*
X159273738Y-107978278D01*
X159109391Y-108128099D01*
X158975368Y-108305574D01*
X158876239Y-108504650D01*
X158823505Y-108690000D01*
X157864971Y-108690000D01*
X150586819Y-101411848D01*
X150553334Y-101350525D01*
X150550500Y-101324167D01*
X150550500Y-82710438D01*
X150550500Y-82710436D01*
X150540952Y-82674806D01*
X150537990Y-82625071D01*
X150549647Y-82543998D01*
X150529165Y-82401541D01*
X150469377Y-82270625D01*
X150375128Y-82161855D01*
X150254053Y-82084045D01*
X150254051Y-82084044D01*
X150254049Y-82084043D01*
X150254050Y-82084043D01*
X150115963Y-82043498D01*
X150115961Y-82043498D01*
X149972039Y-82043498D01*
X149972036Y-82043498D01*
X149833949Y-82084043D01*
X149712873Y-82161854D01*
X149618623Y-82270624D01*
X149618622Y-82270626D01*
X149558834Y-82401541D01*
X149538353Y-82543998D01*
X149558834Y-82686454D01*
X149618622Y-82817369D01*
X149618623Y-82817371D01*
X149712872Y-82926141D01*
X149833947Y-83003951D01*
X149860433Y-83011728D01*
X149919211Y-83049500D01*
X149948237Y-83113055D01*
X149949500Y-83130705D01*
X149949500Y-89596166D01*
X149929815Y-89663205D01*
X149913181Y-89683847D01*
X147998205Y-91598822D01*
X147936882Y-91632307D01*
X147874529Y-91629802D01*
X147772400Y-91598822D01*
X147688683Y-91573427D01*
X147688681Y-91573426D01*
X147688683Y-91573426D01*
X147500000Y-91554843D01*
X147311318Y-91573426D01*
X147204194Y-91605921D01*
X147129885Y-91628463D01*
X147129882Y-91628464D01*
X147129880Y-91628465D01*
X147129877Y-91628466D01*
X146962681Y-91717834D01*
X146962674Y-91717838D01*
X146816116Y-91838116D01*
X146695838Y-91984674D01*
X146695834Y-91984681D01*
X146606466Y-92151877D01*
X146606465Y-92151880D01*
X146551426Y-92333318D01*
X146532843Y-92522000D01*
X146210500Y-92522000D01*
X146210500Y-89982000D01*
X146532843Y-89982000D01*
X146551426Y-90170681D01*
X146551427Y-90170683D01*
X146606463Y-90352115D01*
X146606464Y-90352118D01*
X146606465Y-90352119D01*
X146606466Y-90352122D01*
X146695834Y-90519318D01*
X146695838Y-90519325D01*
X146816116Y-90665883D01*
X146962674Y-90786161D01*
X146962681Y-90786165D01*
X147129877Y-90875533D01*
X147129878Y-90875533D01*
X147129885Y-90875537D01*
X147311317Y-90930573D01*
X147311316Y-90930573D01*
X147328233Y-90932239D01*
X147500000Y-90949157D01*
X147688683Y-90930573D01*
X147870115Y-90875537D01*
X148037324Y-90786162D01*
X148183883Y-90665883D01*
X148304162Y-90519324D01*
X148393537Y-90352115D01*
X148448573Y-90170683D01*
X148467157Y-89982000D01*
X148448573Y-89793317D01*
X148393537Y-89611885D01*
X148304162Y-89444676D01*
X148304161Y-89444674D01*
X148183883Y-89298116D01*
X148037325Y-89177838D01*
X148037318Y-89177834D01*
X147870122Y-89088466D01*
X147870119Y-89088465D01*
X147870118Y-89088464D01*
X147870115Y-89088463D01*
X147688683Y-89033427D01*
X147688681Y-89033426D01*
X147688683Y-89033426D01*
X147500000Y-89014843D01*
X147311318Y-89033426D01*
X147204194Y-89065921D01*
X147129885Y-89088463D01*
X147129882Y-89088464D01*
X147129880Y-89088465D01*
X147129877Y-89088466D01*
X146962681Y-89177834D01*
X146962674Y-89177838D01*
X146816116Y-89298116D01*
X146695838Y-89444674D01*
X146695834Y-89444681D01*
X146606466Y-89611877D01*
X146606465Y-89611880D01*
X146606464Y-89611882D01*
X146606463Y-89611885D01*
X146584634Y-89683847D01*
X146551426Y-89793318D01*
X146532843Y-89982000D01*
X146210500Y-89982000D01*
X146210500Y-88193911D01*
X146230185Y-88126872D01*
X146282989Y-88081117D01*
X146352147Y-88071173D01*
X146415703Y-88100198D01*
X146436076Y-88122789D01*
X146448258Y-88140188D01*
X147119000Y-87469446D01*
X147119000Y-87492160D01*
X147144964Y-87589061D01*
X147195124Y-87675940D01*
X147266060Y-87746876D01*
X147352939Y-87797036D01*
X147449840Y-87823000D01*
X147472553Y-87823000D01*
X146801810Y-88493740D01*
X146866590Y-88539099D01*
X146866592Y-88539100D01*
X147066715Y-88632419D01*
X147066729Y-88632424D01*
X147280013Y-88689573D01*
X147280023Y-88689575D01*
X147499999Y-88708821D01*
X147500001Y-88708821D01*
X147719976Y-88689575D01*
X147719986Y-88689573D01*
X147933270Y-88632424D01*
X147933284Y-88632419D01*
X148133407Y-88539100D01*
X148133417Y-88539094D01*
X148198188Y-88493741D01*
X147527448Y-87823000D01*
X147550160Y-87823000D01*
X147647061Y-87797036D01*
X147733940Y-87746876D01*
X147804876Y-87675940D01*
X147855036Y-87589061D01*
X147881000Y-87492160D01*
X147881000Y-87469447D01*
X148551741Y-88140188D01*
X148597094Y-88075417D01*
X148597100Y-88075407D01*
X148690419Y-87875284D01*
X148690424Y-87875270D01*
X148747573Y-87661986D01*
X148747575Y-87661976D01*
X148766821Y-87442000D01*
X148766821Y-87441999D01*
X148747575Y-87222023D01*
X148747573Y-87222013D01*
X148690424Y-87008729D01*
X148690420Y-87008720D01*
X148597096Y-86808586D01*
X148551741Y-86743811D01*
X148551740Y-86743810D01*
X147881000Y-87414551D01*
X147881000Y-87391840D01*
X147855036Y-87294939D01*
X147804876Y-87208060D01*
X147733940Y-87137124D01*
X147647061Y-87086964D01*
X147550160Y-87061000D01*
X147527447Y-87061000D01*
X148198188Y-86390258D01*
X148133411Y-86344901D01*
X148133405Y-86344898D01*
X147933284Y-86251580D01*
X147933270Y-86251575D01*
X147719986Y-86194426D01*
X147719976Y-86194424D01*
X147500001Y-86175179D01*
X147499999Y-86175179D01*
X147280023Y-86194424D01*
X147280013Y-86194426D01*
X147066729Y-86251575D01*
X147066720Y-86251579D01*
X146866590Y-86344901D01*
X146801811Y-86390258D01*
X147472554Y-87061000D01*
X147449840Y-87061000D01*
X147352939Y-87086964D01*
X147266060Y-87137124D01*
X147195124Y-87208060D01*
X147144964Y-87294939D01*
X147119000Y-87391840D01*
X147119000Y-87414553D01*
X146448257Y-86743810D01*
X146436076Y-86761209D01*
X146381499Y-86804835D01*
X146312001Y-86812029D01*
X146249646Y-86780507D01*
X146214231Y-86720278D01*
X146210500Y-86690087D01*
X146210500Y-84902000D01*
X146532843Y-84902000D01*
X146551426Y-85090681D01*
X146567133Y-85142460D01*
X146606463Y-85272115D01*
X146606464Y-85272118D01*
X146606465Y-85272119D01*
X146606466Y-85272122D01*
X146695834Y-85439318D01*
X146695838Y-85439325D01*
X146816116Y-85585883D01*
X146962674Y-85706161D01*
X146962681Y-85706165D01*
X147129877Y-85795533D01*
X147129878Y-85795533D01*
X147129885Y-85795537D01*
X147311317Y-85850573D01*
X147311316Y-85850573D01*
X147328233Y-85852239D01*
X147500000Y-85869157D01*
X147688683Y-85850573D01*
X147870115Y-85795537D01*
X148037324Y-85706162D01*
X148183883Y-85585883D01*
X148304162Y-85439324D01*
X148327352Y-85395938D01*
X148395712Y-85268047D01*
X148444674Y-85218203D01*
X148505070Y-85202500D01*
X148563560Y-85202500D01*
X148563562Y-85202500D01*
X148639989Y-85182021D01*
X148708511Y-85142460D01*
X148732152Y-85118819D01*
X148793475Y-85085334D01*
X148819833Y-85082500D01*
X148915962Y-85082500D01*
X148915962Y-85082499D01*
X149054053Y-85041953D01*
X149175128Y-84964143D01*
X149269377Y-84855373D01*
X149329165Y-84724457D01*
X149349647Y-84582000D01*
X149329165Y-84439543D01*
X149269377Y-84308627D01*
X149175128Y-84199857D01*
X149054053Y-84122047D01*
X149054051Y-84122046D01*
X149054049Y-84122045D01*
X149054050Y-84122045D01*
X148915963Y-84081500D01*
X148915961Y-84081500D01*
X148772039Y-84081500D01*
X148772036Y-84081500D01*
X148633949Y-84122045D01*
X148512872Y-84199856D01*
X148432500Y-84292610D01*
X148373722Y-84330383D01*
X148303852Y-84330383D01*
X148245074Y-84292608D01*
X148242935Y-84290071D01*
X148183883Y-84218116D01*
X148037325Y-84097838D01*
X148037318Y-84097834D01*
X147870122Y-84008466D01*
X147870119Y-84008465D01*
X147870118Y-84008464D01*
X147870115Y-84008463D01*
X147688683Y-83953427D01*
X147688681Y-83953426D01*
X147688683Y-83953426D01*
X147500000Y-83934843D01*
X147311318Y-83953426D01*
X147204194Y-83985921D01*
X147129885Y-84008463D01*
X147129882Y-84008464D01*
X147129880Y-84008465D01*
X147129877Y-84008466D01*
X146962681Y-84097834D01*
X146962674Y-84097838D01*
X146816116Y-84218116D01*
X146695838Y-84364674D01*
X146695834Y-84364681D01*
X146606466Y-84531877D01*
X146606465Y-84531880D01*
X146551426Y-84713318D01*
X146532843Y-84902000D01*
X146210500Y-84902000D01*
X146210500Y-71084500D01*
X146230185Y-71017461D01*
X146282989Y-70971706D01*
X146334500Y-70960500D01*
X147961879Y-70960500D01*
X147961880Y-70960500D01*
X147985333Y-70957779D01*
X148081267Y-70915420D01*
X148155420Y-70841267D01*
X148197779Y-70745333D01*
X148200500Y-70721880D01*
X148200500Y-70384500D01*
X148220185Y-70317461D01*
X148272989Y-70271706D01*
X148324500Y-70260500D01*
X149448167Y-70260500D01*
X149515206Y-70280185D01*
X149535848Y-70296819D01*
X149913181Y-70674152D01*
X149946666Y-70735475D01*
X149949500Y-70761833D01*
X149949500Y-74474564D01*
X149962023Y-74521301D01*
X149964986Y-74571038D01*
X149954353Y-74644998D01*
X149954353Y-74644999D01*
X149974834Y-74787456D01*
X150034622Y-74918371D01*
X150034623Y-74918373D01*
X150128872Y-75027143D01*
X150249947Y-75104953D01*
X150249950Y-75104954D01*
X150249949Y-75104954D01*
X150388036Y-75145499D01*
X150388038Y-75145500D01*
X150388039Y-75145500D01*
X150531962Y-75145500D01*
X150531962Y-75145499D01*
X150670053Y-75104953D01*
X150791128Y-75027143D01*
X150885377Y-74918373D01*
X150945165Y-74787457D01*
X150965647Y-74645000D01*
X150945165Y-74502543D01*
X150885377Y-74371627D01*
X150791128Y-74262857D01*
X150670053Y-74185047D01*
X150670052Y-74185046D01*
X150670051Y-74185046D01*
X150639564Y-74176094D01*
X150580786Y-74138319D01*
X150551762Y-74074763D01*
X150550500Y-74057117D01*
X150550500Y-70546440D01*
X150550500Y-70546438D01*
X150530022Y-70470012D01*
X150490460Y-70401489D01*
X149808511Y-69719540D01*
X149808509Y-69719539D01*
X149808504Y-69719535D01*
X149739995Y-69679982D01*
X149739990Y-69679979D01*
X149714513Y-69673152D01*
X149663562Y-69659500D01*
X149663560Y-69659500D01*
X148324500Y-69659500D01*
X148257461Y-69639815D01*
X148211706Y-69587011D01*
X148200500Y-69535500D01*
X148200500Y-69198121D01*
X148200500Y-69198120D01*
X148197779Y-69174667D01*
X148155420Y-69078733D01*
X148081267Y-69004580D01*
X148044383Y-68988294D01*
X147991650Y-68965010D01*
X147989779Y-68963430D01*
X147985337Y-68962221D01*
X147961881Y-68959500D01*
X147961880Y-68959500D01*
X147532823Y-68959500D01*
X147465784Y-68939815D01*
X147420029Y-68887011D01*
X147410085Y-68817853D01*
X147418262Y-68788047D01*
X147446448Y-68719999D01*
X146410905Y-67684456D01*
X146377420Y-67623133D01*
X146382404Y-67553441D01*
X146410905Y-67509093D01*
X146499999Y-67419999D01*
X146499998Y-67419998D01*
X146853551Y-67419998D01*
X146853551Y-67419999D01*
X148019093Y-68585541D01*
X148052578Y-68646864D01*
X148051380Y-68663613D01*
X148077416Y-68702581D01*
X148212502Y-68646628D01*
X148333660Y-68553660D01*
X148426630Y-68432500D01*
X148485069Y-68291413D01*
X148485070Y-68291408D01*
X148499999Y-68178023D01*
X148500000Y-68178009D01*
X148500000Y-66661990D01*
X148499999Y-66661976D01*
X148485070Y-66548591D01*
X148485069Y-66548586D01*
X148426630Y-66407499D01*
X148333660Y-66286339D01*
X148212501Y-66193370D01*
X148077415Y-66137416D01*
X148049841Y-66178683D01*
X148047594Y-66210109D01*
X148019093Y-66254456D01*
X146853551Y-67419998D01*
X146499998Y-67419998D01*
X146410904Y-67330904D01*
X146377419Y-67269581D01*
X146382403Y-67199889D01*
X146410904Y-67155542D01*
X147446447Y-66119999D01*
X147418261Y-66051953D01*
X147410792Y-65982484D01*
X147442067Y-65920004D01*
X147502156Y-65884352D01*
X147532822Y-65880500D01*
X147961879Y-65880500D01*
X147961880Y-65880500D01*
X147985333Y-65877779D01*
X147985335Y-65877777D01*
X147986254Y-65877528D01*
X147991603Y-65875010D01*
X148081267Y-65835420D01*
X148155420Y-65761267D01*
X148197779Y-65665333D01*
X148200500Y-65641880D01*
X148200500Y-64118120D01*
X148197779Y-64094667D01*
X148155420Y-63998733D01*
X148081267Y-63924580D01*
X148061038Y-63915648D01*
X147985334Y-63882221D01*
X147961881Y-63879500D01*
X147961880Y-63879500D01*
X146334500Y-63879500D01*
X146267461Y-63859815D01*
X146221706Y-63807011D01*
X146210500Y-63755500D01*
X146210500Y-63464500D01*
X146230185Y-63397461D01*
X146282989Y-63351706D01*
X146334500Y-63340500D01*
X147961879Y-63340500D01*
X147961880Y-63340500D01*
X147985333Y-63337779D01*
X148081267Y-63295420D01*
X148155420Y-63221267D01*
X148197779Y-63125333D01*
X148200500Y-63101880D01*
X148200500Y-61621976D01*
X161500000Y-61621976D01*
X161500000Y-63138023D01*
X161514929Y-63251408D01*
X161514930Y-63251413D01*
X161573369Y-63392500D01*
X161666339Y-63513660D01*
X161787499Y-63606630D01*
X161922583Y-63662582D01*
X161950157Y-63621315D01*
X161952405Y-63589890D01*
X161980906Y-63545543D01*
X163146448Y-62380001D01*
X163146448Y-62379999D01*
X161980903Y-61214455D01*
X161947418Y-61153132D01*
X161948616Y-61136378D01*
X161922581Y-61097416D01*
X161787498Y-61153370D01*
X161666339Y-61246339D01*
X161573369Y-61367499D01*
X161514930Y-61508586D01*
X161514929Y-61508591D01*
X161500000Y-61621976D01*
X148200500Y-61621976D01*
X148200500Y-61578120D01*
X148197779Y-61554667D01*
X148155420Y-61458733D01*
X148081267Y-61384580D01*
X147985334Y-61342221D01*
X147961881Y-61339500D01*
X147961880Y-61339500D01*
X146334500Y-61339500D01*
X146267461Y-61319815D01*
X146221706Y-61267011D01*
X146210500Y-61215500D01*
X146210500Y-60924500D01*
X146230185Y-60857461D01*
X146282989Y-60811706D01*
X146334500Y-60800500D01*
X147961879Y-60800500D01*
X147961880Y-60800500D01*
X147985333Y-60797779D01*
X148081267Y-60755420D01*
X148155420Y-60681267D01*
X148197779Y-60585333D01*
X148200500Y-60561880D01*
X148200500Y-60224500D01*
X148220185Y-60157461D01*
X148272989Y-60111706D01*
X148324500Y-60100500D01*
X148372744Y-60100500D01*
X148439783Y-60120185D01*
X148485538Y-60172989D01*
X148495482Y-60242145D01*
X148494353Y-60249998D01*
X148494353Y-60249999D01*
X148514834Y-60392456D01*
X148574622Y-60523371D01*
X148574623Y-60523373D01*
X148668872Y-60632143D01*
X148789947Y-60709953D01*
X148789950Y-60709954D01*
X148789949Y-60709954D01*
X148928036Y-60750499D01*
X148928038Y-60750500D01*
X148928039Y-60750500D01*
X149071962Y-60750500D01*
X149071962Y-60750499D01*
X149210053Y-60709953D01*
X149331128Y-60632143D01*
X149425377Y-60523373D01*
X149485165Y-60392457D01*
X149505647Y-60250000D01*
X149485165Y-60107543D01*
X149425377Y-59976627D01*
X149331128Y-59867857D01*
X149210053Y-59790047D01*
X149210051Y-59790046D01*
X149210049Y-59790045D01*
X149210050Y-59790045D01*
X149071963Y-59749500D01*
X149071961Y-59749500D01*
X148975833Y-59749500D01*
X148908794Y-59729815D01*
X148888152Y-59713181D01*
X148734512Y-59559541D01*
X148734504Y-59559535D01*
X148665995Y-59519982D01*
X148665990Y-59519979D01*
X148640513Y-59513152D01*
X148589562Y-59499500D01*
X148589560Y-59499500D01*
X148324500Y-59499500D01*
X148257461Y-59479815D01*
X148211706Y-59427011D01*
X148200500Y-59375500D01*
X148200500Y-59038121D01*
X148200500Y-59038120D01*
X148197779Y-59014667D01*
X148155420Y-58918733D01*
X148081267Y-58844580D01*
X148044383Y-58828294D01*
X147985334Y-58802221D01*
X147961881Y-58799500D01*
X147961880Y-58799500D01*
X146334500Y-58799500D01*
X146267461Y-58779815D01*
X146221706Y-58727011D01*
X146210500Y-58675500D01*
X146210500Y-58384500D01*
X146230185Y-58317461D01*
X146282989Y-58271706D01*
X146334500Y-58260500D01*
X147961879Y-58260500D01*
X147961880Y-58260500D01*
X147985333Y-58257779D01*
X148081267Y-58215420D01*
X148155420Y-58141267D01*
X148197779Y-58045333D01*
X148200500Y-58021880D01*
X148200500Y-57684500D01*
X148220185Y-57617461D01*
X148272989Y-57571706D01*
X148324500Y-57560500D01*
X149032167Y-57560500D01*
X149099206Y-57580185D01*
X149119848Y-57596819D01*
X149320604Y-57797575D01*
X149354089Y-57858898D01*
X149355661Y-57902902D01*
X149354353Y-57911999D01*
X149374834Y-58054456D01*
X149414480Y-58141267D01*
X149434623Y-58185373D01*
X149528872Y-58294143D01*
X149649947Y-58371953D01*
X149649950Y-58371954D01*
X149649949Y-58371954D01*
X149788036Y-58412499D01*
X149788038Y-58412500D01*
X149788039Y-58412500D01*
X149931962Y-58412500D01*
X149931962Y-58412499D01*
X150070053Y-58371953D01*
X150191128Y-58294143D01*
X150285377Y-58185373D01*
X150345165Y-58054457D01*
X150365647Y-57912000D01*
X150345165Y-57769543D01*
X150285377Y-57638627D01*
X150191128Y-57529857D01*
X150070053Y-57452047D01*
X150070051Y-57452046D01*
X150070049Y-57452045D01*
X150070050Y-57452045D01*
X149931963Y-57411500D01*
X149931961Y-57411500D01*
X149835833Y-57411500D01*
X149768794Y-57391815D01*
X149748152Y-57375181D01*
X149392512Y-57019541D01*
X149392504Y-57019535D01*
X149323995Y-56979982D01*
X149323990Y-56979979D01*
X149298513Y-56973152D01*
X149247562Y-56959500D01*
X149247560Y-56959500D01*
X148324500Y-56959500D01*
X148257461Y-56939815D01*
X148211706Y-56887011D01*
X148200500Y-56835500D01*
X148200500Y-56498121D01*
X148200500Y-56498120D01*
X148197779Y-56474667D01*
X148155420Y-56378733D01*
X148081267Y-56304580D01*
X148044383Y-56288294D01*
X147985334Y-56262221D01*
X147961881Y-56259500D01*
X147961880Y-56259500D01*
X146334500Y-56259500D01*
X146267461Y-56239815D01*
X146221706Y-56187011D01*
X146210500Y-56135500D01*
X146210500Y-55844500D01*
X146230185Y-55777461D01*
X146282989Y-55731706D01*
X146334500Y-55720500D01*
X147961879Y-55720500D01*
X147961880Y-55720500D01*
X147985333Y-55717779D01*
X148081267Y-55675420D01*
X148155420Y-55601267D01*
X148197779Y-55505333D01*
X148200500Y-55481880D01*
X148200500Y-53958120D01*
X148197779Y-53934667D01*
X148155420Y-53838733D01*
X148081267Y-53764580D01*
X148044383Y-53748294D01*
X147985334Y-53722221D01*
X147961881Y-53719500D01*
X147961880Y-53719500D01*
X146334500Y-53719500D01*
X146267461Y-53699815D01*
X146221706Y-53647011D01*
X146210500Y-53595500D01*
X146210500Y-53304500D01*
X146230185Y-53237461D01*
X146282989Y-53191706D01*
X146334500Y-53180500D01*
X147961879Y-53180500D01*
X147961880Y-53180500D01*
X147985333Y-53177779D01*
X148081267Y-53135420D01*
X148155420Y-53061267D01*
X148197779Y-52965333D01*
X148200500Y-52941880D01*
X148200500Y-51418120D01*
X148197779Y-51394667D01*
X148155420Y-51298733D01*
X148081267Y-51224580D01*
X148044383Y-51208294D01*
X147985334Y-51182221D01*
X147961881Y-51179500D01*
X147961880Y-51179500D01*
X146334500Y-51179500D01*
X146267461Y-51159815D01*
X146221706Y-51107011D01*
X146210500Y-51055500D01*
X146210500Y-50764500D01*
X146230185Y-50697461D01*
X146282989Y-50651706D01*
X146334500Y-50640500D01*
X147961879Y-50640500D01*
X147961880Y-50640500D01*
X147985333Y-50637779D01*
X148081267Y-50595420D01*
X148155420Y-50521267D01*
X148197779Y-50425333D01*
X148200500Y-50401880D01*
X148200500Y-48878120D01*
X148197779Y-48854667D01*
X148155420Y-48758733D01*
X148081267Y-48684580D01*
X148044383Y-48668294D01*
X147985334Y-48642221D01*
X147961881Y-48639500D01*
X147961880Y-48639500D01*
X146334500Y-48639500D01*
X146267461Y-48619815D01*
X146221706Y-48567011D01*
X146210500Y-48515500D01*
X146210500Y-48224500D01*
X146230185Y-48157461D01*
X146282989Y-48111706D01*
X146334500Y-48100500D01*
X147961879Y-48100500D01*
X147961880Y-48100500D01*
X147985333Y-48097779D01*
X148081267Y-48055420D01*
X148155420Y-47981267D01*
X148197779Y-47885333D01*
X148200500Y-47861880D01*
X148200500Y-47524500D01*
X148220185Y-47457461D01*
X148272989Y-47411706D01*
X148324500Y-47400500D01*
X148424167Y-47400500D01*
X148491206Y-47420185D01*
X148511848Y-47436819D01*
X148710604Y-47635575D01*
X148744089Y-47696898D01*
X148745661Y-47740902D01*
X148744353Y-47749999D01*
X148764834Y-47892456D01*
X148823661Y-48021267D01*
X148824623Y-48023373D01*
X148918872Y-48132143D01*
X149039947Y-48209953D01*
X149039950Y-48209954D01*
X149039949Y-48209954D01*
X149178036Y-48250499D01*
X149178038Y-48250500D01*
X149178039Y-48250500D01*
X149321962Y-48250500D01*
X149321962Y-48250499D01*
X149460053Y-48209953D01*
X149581128Y-48132143D01*
X149675377Y-48023373D01*
X149735165Y-47892457D01*
X149755647Y-47750000D01*
X149735165Y-47607543D01*
X149675377Y-47476627D01*
X149581128Y-47367857D01*
X149460053Y-47290047D01*
X149460051Y-47290046D01*
X149460049Y-47290045D01*
X149460050Y-47290045D01*
X149321963Y-47249500D01*
X149321961Y-47249500D01*
X149225833Y-47249500D01*
X149158794Y-47229815D01*
X149138152Y-47213181D01*
X148784512Y-46859541D01*
X148784504Y-46859535D01*
X148715995Y-46819982D01*
X148715990Y-46819979D01*
X148690513Y-46813152D01*
X148639562Y-46799500D01*
X148639560Y-46799500D01*
X148324500Y-46799500D01*
X148257461Y-46779815D01*
X148211706Y-46727011D01*
X148200500Y-46675500D01*
X148200500Y-46338121D01*
X148200500Y-46338120D01*
X148197779Y-46314667D01*
X148155420Y-46218733D01*
X148081267Y-46144580D01*
X148044383Y-46128294D01*
X147985334Y-46102221D01*
X147961881Y-46099500D01*
X147961880Y-46099500D01*
X146334500Y-46099500D01*
X146267461Y-46079815D01*
X146221706Y-46027011D01*
X146210500Y-45975500D01*
X146210500Y-43914500D01*
X146230185Y-43847461D01*
X146282989Y-43801706D01*
X146334500Y-43790500D01*
X163885500Y-43790500D01*
X163952539Y-43810185D01*
G37*
%TD.AperFunction*%
%TD*%
M02*
