M48
; DRILL file {KiCad 9.0.0} date 2025-03-09T20:22:15+0900
; FORMAT={-:-/ absolute / metric / decimal}
; #@! TF.CreationDate,2025-03-09T20:22:15+09:00
; #@! TF.GenerationSoftware,Kicad,Pcbnew,9.0.0
; #@! TF.FileFunction,Plated,1,2,PTH
FMAT,2
METRIC
; #@! TA.AperFunction,Plated,PTH,ViaDrill
T1C0.300
; #@! TA.AperFunction,Plated,PTH,ComponentDrill
T2C0.700
; #@! TA.AperFunction,Plated,PTH,ComponentDrill
T3C0.762
; #@! TA.AperFunction,Plated,PTH,ComponentDrill
T4C1.100
%
G90
G05
T1
X147.81Y-83.12
X148.72Y-49.59
X149.11Y-58.37
X149.11Y-61.19
X149.22Y-47.34
X150.46Y-74.645
T2
X160.0Y-108.94
X160.0Y-116.56
X162.11Y-108.94
X162.11Y-116.56
T3
X147.5Y-84.902
X147.5Y-87.442
X147.5Y-89.982
X147.5Y-92.522
X147.5Y-95.062
X147.5Y-97.602
X147.5Y-100.142
X147.5Y-102.682
X153.25Y-110.043
X153.25Y-112.543
X153.25Y-115.043
T4
X148.108Y-121.666
X148.21Y-127.0
X152.81Y-127.0
X152.908Y-121.666
X157.41Y-127.0
X162.01Y-127.0
M30
