%TF.GenerationSoftware,KiCad,Pcbnew,8.0.8*%
%TF.CreationDate,2025-02-17T15:57:04+09:00*%
%TF.ProjectId,hotdoggu_slimeVR_PCB,686f7464-6f67-4677-955f-736c696d6556,rev?*%
%TF.SameCoordinates,Original*%
%TF.FileFunction,Drillmap*%
%TF.FilePolarity,Positive*%
%FSLAX45Y45*%
G04 Gerber Fmt 4.5, Leading zero omitted, Abs format (unit mm)*
G04 Created by KiCad (PCBNEW 8.0.8) date 2025-02-17 15:57:04*
%MOMM*%
%LPD*%
G01*
G04 APERTURE LIST*
%ADD10C,0.050000*%
%ADD11C,0.200000*%
%ADD12C,0.100000*%
%ADD13C,0.110000*%
G04 APERTURE END LIST*
D10*
X14571000Y-4329000D02*
X16451000Y-4329000D01*
X16451000Y-13189000D01*
X14571000Y-13189000D01*
X14571000Y-4329000D01*
D11*
D12*
X14869400Y-8443200D02*
X14899400Y-8473200D01*
X14899400Y-8443200D02*
X14869400Y-8473200D01*
X14885000Y-6010000D02*
X14915000Y-6040000D01*
X14915000Y-6010000D02*
X14885000Y-6040000D01*
X14910000Y-4760000D02*
X14940000Y-4790000D01*
X14940000Y-4760000D02*
X14910000Y-4790000D01*
X14971000Y-5776200D02*
X15001000Y-5806200D01*
X15001000Y-5776200D02*
X14971000Y-5806200D01*
X14989400Y-8239400D02*
X15019400Y-8269400D01*
X15019400Y-8239400D02*
X14989400Y-8269400D01*
X15031000Y-7449500D02*
X15061000Y-7479500D01*
X15061000Y-7449500D02*
X15031000Y-7479500D01*
X16093000Y-4699000D02*
X16123000Y-4729000D01*
X16123000Y-4699000D02*
X16093000Y-4729000D01*
X16035000Y-10894000D02*
G75*
G02*
X15965000Y-10894000I-35000J0D01*
G01*
X15965000Y-10894000D02*
G75*
G02*
X16035000Y-10894000I35000J0D01*
G01*
X16035000Y-11656000D02*
G75*
G02*
X15965000Y-11656000I-35000J0D01*
G01*
X15965000Y-11656000D02*
G75*
G02*
X16035000Y-11656000I35000J0D01*
G01*
X16246000Y-10894000D02*
G75*
G02*
X16176000Y-10894000I-35000J0D01*
G01*
X16176000Y-10894000D02*
G75*
G02*
X16246000Y-10894000I35000J0D01*
G01*
X16246000Y-11656000D02*
G75*
G02*
X16176000Y-11656000I-35000J0D01*
G01*
X16176000Y-11656000D02*
G75*
G02*
X16246000Y-11656000I35000J0D01*
G01*
X14750000Y-8452100D02*
X14750000Y-8528300D01*
X14711900Y-8490200D02*
X14788100Y-8490200D01*
X14750000Y-8706100D02*
X14750000Y-8782300D01*
X14711900Y-8744200D02*
X14788100Y-8744200D01*
X14750000Y-8960100D02*
X14750000Y-9036300D01*
X14711900Y-8998200D02*
X14788100Y-8998200D01*
X14750000Y-9214100D02*
X14750000Y-9290300D01*
X14711900Y-9252200D02*
X14788100Y-9252200D01*
X14750000Y-9468100D02*
X14750000Y-9544300D01*
X14711900Y-9506200D02*
X14788100Y-9506200D01*
X14750000Y-9722100D02*
X14750000Y-9798300D01*
X14711900Y-9760200D02*
X14788100Y-9760200D01*
X14750000Y-9976100D02*
X14750000Y-10052300D01*
X14711900Y-10014200D02*
X14788100Y-10014200D01*
X14750000Y-10230100D02*
X14750000Y-10306300D01*
X14711900Y-10268200D02*
X14788100Y-10268200D01*
X15622000Y-10966200D02*
X15622000Y-11042400D01*
X15583900Y-11004300D02*
X15660100Y-11004300D01*
X15622000Y-11216200D02*
X15622000Y-11292400D01*
X15583900Y-11254300D02*
X15660100Y-11254300D01*
X15622000Y-11466200D02*
X15622000Y-11542400D01*
X15583900Y-11504300D02*
X15660100Y-11504300D01*
D13*
X14849691Y-12205491D02*
X14849691Y-12127709D01*
X14771909Y-12127709D01*
X14771909Y-12205491D01*
X14849691Y-12205491D01*
X14859891Y-12738891D02*
X14859891Y-12661109D01*
X14782109Y-12661109D01*
X14782109Y-12738891D01*
X14859891Y-12738891D01*
X15319891Y-12738891D02*
X15319891Y-12661109D01*
X15242109Y-12661109D01*
X15242109Y-12738891D01*
X15319891Y-12738891D01*
X15329691Y-12205491D02*
X15329691Y-12127709D01*
X15251909Y-12127709D01*
X15251909Y-12205491D01*
X15329691Y-12205491D01*
X15779891Y-12738891D02*
X15779891Y-12661109D01*
X15702109Y-12661109D01*
X15702109Y-12738891D01*
X15779891Y-12738891D01*
X16239891Y-12738891D02*
X16239891Y-12661109D01*
X16162109Y-12661109D01*
X16162109Y-12738891D01*
X16239891Y-12738891D01*
D11*
X14829277Y-13502984D02*
X14829277Y-13302984D01*
X14829277Y-13302984D02*
X14876896Y-13302984D01*
X14876896Y-13302984D02*
X14905467Y-13312508D01*
X14905467Y-13312508D02*
X14924515Y-13331555D01*
X14924515Y-13331555D02*
X14934039Y-13350603D01*
X14934039Y-13350603D02*
X14943562Y-13388698D01*
X14943562Y-13388698D02*
X14943562Y-13417269D01*
X14943562Y-13417269D02*
X14934039Y-13455365D01*
X14934039Y-13455365D02*
X14924515Y-13474412D01*
X14924515Y-13474412D02*
X14905467Y-13493460D01*
X14905467Y-13493460D02*
X14876896Y-13502984D01*
X14876896Y-13502984D02*
X14829277Y-13502984D01*
X15029277Y-13502984D02*
X15029277Y-13369650D01*
X15029277Y-13407746D02*
X15038801Y-13388698D01*
X15038801Y-13388698D02*
X15048324Y-13379174D01*
X15048324Y-13379174D02*
X15067372Y-13369650D01*
X15067372Y-13369650D02*
X15086420Y-13369650D01*
X15153086Y-13502984D02*
X15153086Y-13369650D01*
X15153086Y-13302984D02*
X15143562Y-13312508D01*
X15143562Y-13312508D02*
X15153086Y-13322031D01*
X15153086Y-13322031D02*
X15162610Y-13312508D01*
X15162610Y-13312508D02*
X15153086Y-13302984D01*
X15153086Y-13302984D02*
X15153086Y-13322031D01*
X15276896Y-13502984D02*
X15257848Y-13493460D01*
X15257848Y-13493460D02*
X15248324Y-13474412D01*
X15248324Y-13474412D02*
X15248324Y-13302984D01*
X15381658Y-13502984D02*
X15362610Y-13493460D01*
X15362610Y-13493460D02*
X15353086Y-13474412D01*
X15353086Y-13474412D02*
X15353086Y-13302984D01*
X15610229Y-13502984D02*
X15610229Y-13302984D01*
X15610229Y-13302984D02*
X15676896Y-13445841D01*
X15676896Y-13445841D02*
X15743562Y-13302984D01*
X15743562Y-13302984D02*
X15743562Y-13502984D01*
X15924515Y-13502984D02*
X15924515Y-13398222D01*
X15924515Y-13398222D02*
X15914991Y-13379174D01*
X15914991Y-13379174D02*
X15895943Y-13369650D01*
X15895943Y-13369650D02*
X15857848Y-13369650D01*
X15857848Y-13369650D02*
X15838801Y-13379174D01*
X15924515Y-13493460D02*
X15905467Y-13502984D01*
X15905467Y-13502984D02*
X15857848Y-13502984D01*
X15857848Y-13502984D02*
X15838801Y-13493460D01*
X15838801Y-13493460D02*
X15829277Y-13474412D01*
X15829277Y-13474412D02*
X15829277Y-13455365D01*
X15829277Y-13455365D02*
X15838801Y-13436317D01*
X15838801Y-13436317D02*
X15857848Y-13426793D01*
X15857848Y-13426793D02*
X15905467Y-13426793D01*
X15905467Y-13426793D02*
X15924515Y-13417269D01*
X16019753Y-13369650D02*
X16019753Y-13569650D01*
X16019753Y-13379174D02*
X16038801Y-13369650D01*
X16038801Y-13369650D02*
X16076896Y-13369650D01*
X16076896Y-13369650D02*
X16095943Y-13379174D01*
X16095943Y-13379174D02*
X16105467Y-13388698D01*
X16105467Y-13388698D02*
X16114991Y-13407746D01*
X16114991Y-13407746D02*
X16114991Y-13464888D01*
X16114991Y-13464888D02*
X16105467Y-13483936D01*
X16105467Y-13483936D02*
X16095943Y-13493460D01*
X16095943Y-13493460D02*
X16076896Y-13502984D01*
X16076896Y-13502984D02*
X16038801Y-13502984D01*
X16038801Y-13502984D02*
X16019753Y-13493460D01*
X16200705Y-13483936D02*
X16210229Y-13493460D01*
X16210229Y-13493460D02*
X16200705Y-13502984D01*
X16200705Y-13502984D02*
X16191182Y-13493460D01*
X16191182Y-13493460D02*
X16200705Y-13483936D01*
X16200705Y-13483936D02*
X16200705Y-13502984D01*
X16200705Y-13379174D02*
X16210229Y-13388698D01*
X16210229Y-13388698D02*
X16200705Y-13398222D01*
X16200705Y-13398222D02*
X16191182Y-13388698D01*
X16191182Y-13388698D02*
X16200705Y-13379174D01*
X16200705Y-13379174D02*
X16200705Y-13398222D01*
D12*
X14538500Y-13816500D02*
X14568500Y-13846500D01*
X14568500Y-13816500D02*
X14538500Y-13846500D01*
D11*
X14867372Y-13722984D02*
X14886420Y-13722984D01*
X14886420Y-13722984D02*
X14905467Y-13732508D01*
X14905467Y-13732508D02*
X14914991Y-13742031D01*
X14914991Y-13742031D02*
X14924515Y-13761079D01*
X14924515Y-13761079D02*
X14934039Y-13799174D01*
X14934039Y-13799174D02*
X14934039Y-13846793D01*
X14934039Y-13846793D02*
X14924515Y-13884888D01*
X14924515Y-13884888D02*
X14914991Y-13903936D01*
X14914991Y-13903936D02*
X14905467Y-13913460D01*
X14905467Y-13913460D02*
X14886420Y-13922984D01*
X14886420Y-13922984D02*
X14867372Y-13922984D01*
X14867372Y-13922984D02*
X14848324Y-13913460D01*
X14848324Y-13913460D02*
X14838801Y-13903936D01*
X14838801Y-13903936D02*
X14829277Y-13884888D01*
X14829277Y-13884888D02*
X14819753Y-13846793D01*
X14819753Y-13846793D02*
X14819753Y-13799174D01*
X14819753Y-13799174D02*
X14829277Y-13761079D01*
X14829277Y-13761079D02*
X14838801Y-13742031D01*
X14838801Y-13742031D02*
X14848324Y-13732508D01*
X14848324Y-13732508D02*
X14867372Y-13722984D01*
X15019753Y-13903936D02*
X15029277Y-13913460D01*
X15029277Y-13913460D02*
X15019753Y-13922984D01*
X15019753Y-13922984D02*
X15010229Y-13913460D01*
X15010229Y-13913460D02*
X15019753Y-13903936D01*
X15019753Y-13903936D02*
X15019753Y-13922984D01*
X15095943Y-13722984D02*
X15219753Y-13722984D01*
X15219753Y-13722984D02*
X15153086Y-13799174D01*
X15153086Y-13799174D02*
X15181658Y-13799174D01*
X15181658Y-13799174D02*
X15200705Y-13808698D01*
X15200705Y-13808698D02*
X15210229Y-13818222D01*
X15210229Y-13818222D02*
X15219753Y-13837269D01*
X15219753Y-13837269D02*
X15219753Y-13884888D01*
X15219753Y-13884888D02*
X15210229Y-13903936D01*
X15210229Y-13903936D02*
X15200705Y-13913460D01*
X15200705Y-13913460D02*
X15181658Y-13922984D01*
X15181658Y-13922984D02*
X15124515Y-13922984D01*
X15124515Y-13922984D02*
X15105467Y-13913460D01*
X15105467Y-13913460D02*
X15095943Y-13903936D01*
X15343562Y-13722984D02*
X15362610Y-13722984D01*
X15362610Y-13722984D02*
X15381658Y-13732508D01*
X15381658Y-13732508D02*
X15391182Y-13742031D01*
X15391182Y-13742031D02*
X15400705Y-13761079D01*
X15400705Y-13761079D02*
X15410229Y-13799174D01*
X15410229Y-13799174D02*
X15410229Y-13846793D01*
X15410229Y-13846793D02*
X15400705Y-13884888D01*
X15400705Y-13884888D02*
X15391182Y-13903936D01*
X15391182Y-13903936D02*
X15381658Y-13913460D01*
X15381658Y-13913460D02*
X15362610Y-13922984D01*
X15362610Y-13922984D02*
X15343562Y-13922984D01*
X15343562Y-13922984D02*
X15324515Y-13913460D01*
X15324515Y-13913460D02*
X15314991Y-13903936D01*
X15314991Y-13903936D02*
X15305467Y-13884888D01*
X15305467Y-13884888D02*
X15295943Y-13846793D01*
X15295943Y-13846793D02*
X15295943Y-13799174D01*
X15295943Y-13799174D02*
X15305467Y-13761079D01*
X15305467Y-13761079D02*
X15314991Y-13742031D01*
X15314991Y-13742031D02*
X15324515Y-13732508D01*
X15324515Y-13732508D02*
X15343562Y-13722984D01*
X15534039Y-13722984D02*
X15553086Y-13722984D01*
X15553086Y-13722984D02*
X15572134Y-13732508D01*
X15572134Y-13732508D02*
X15581658Y-13742031D01*
X15581658Y-13742031D02*
X15591182Y-13761079D01*
X15591182Y-13761079D02*
X15600705Y-13799174D01*
X15600705Y-13799174D02*
X15600705Y-13846793D01*
X15600705Y-13846793D02*
X15591182Y-13884888D01*
X15591182Y-13884888D02*
X15581658Y-13903936D01*
X15581658Y-13903936D02*
X15572134Y-13913460D01*
X15572134Y-13913460D02*
X15553086Y-13922984D01*
X15553086Y-13922984D02*
X15534039Y-13922984D01*
X15534039Y-13922984D02*
X15514991Y-13913460D01*
X15514991Y-13913460D02*
X15505467Y-13903936D01*
X15505467Y-13903936D02*
X15495943Y-13884888D01*
X15495943Y-13884888D02*
X15486420Y-13846793D01*
X15486420Y-13846793D02*
X15486420Y-13799174D01*
X15486420Y-13799174D02*
X15495943Y-13761079D01*
X15495943Y-13761079D02*
X15505467Y-13742031D01*
X15505467Y-13742031D02*
X15514991Y-13732508D01*
X15514991Y-13732508D02*
X15534039Y-13722984D01*
X15686420Y-13922984D02*
X15686420Y-13789650D01*
X15686420Y-13808698D02*
X15695943Y-13799174D01*
X15695943Y-13799174D02*
X15714991Y-13789650D01*
X15714991Y-13789650D02*
X15743563Y-13789650D01*
X15743563Y-13789650D02*
X15762610Y-13799174D01*
X15762610Y-13799174D02*
X15772134Y-13818222D01*
X15772134Y-13818222D02*
X15772134Y-13922984D01*
X15772134Y-13818222D02*
X15781658Y-13799174D01*
X15781658Y-13799174D02*
X15800705Y-13789650D01*
X15800705Y-13789650D02*
X15829277Y-13789650D01*
X15829277Y-13789650D02*
X15848324Y-13799174D01*
X15848324Y-13799174D02*
X15857848Y-13818222D01*
X15857848Y-13818222D02*
X15857848Y-13922984D01*
X15953086Y-13922984D02*
X15953086Y-13789650D01*
X15953086Y-13808698D02*
X15962610Y-13799174D01*
X15962610Y-13799174D02*
X15981658Y-13789650D01*
X15981658Y-13789650D02*
X16010229Y-13789650D01*
X16010229Y-13789650D02*
X16029277Y-13799174D01*
X16029277Y-13799174D02*
X16038801Y-13818222D01*
X16038801Y-13818222D02*
X16038801Y-13922984D01*
X16038801Y-13818222D02*
X16048324Y-13799174D01*
X16048324Y-13799174D02*
X16067372Y-13789650D01*
X16067372Y-13789650D02*
X16095943Y-13789650D01*
X16095943Y-13789650D02*
X16114991Y-13799174D01*
X16114991Y-13799174D02*
X16124515Y-13818222D01*
X16124515Y-13818222D02*
X16124515Y-13922984D01*
X16514991Y-13713460D02*
X16343563Y-13970603D01*
X16772134Y-13722984D02*
X16791182Y-13722984D01*
X16791182Y-13722984D02*
X16810229Y-13732508D01*
X16810229Y-13732508D02*
X16819753Y-13742031D01*
X16819753Y-13742031D02*
X16829277Y-13761079D01*
X16829277Y-13761079D02*
X16838801Y-13799174D01*
X16838801Y-13799174D02*
X16838801Y-13846793D01*
X16838801Y-13846793D02*
X16829277Y-13884888D01*
X16829277Y-13884888D02*
X16819753Y-13903936D01*
X16819753Y-13903936D02*
X16810229Y-13913460D01*
X16810229Y-13913460D02*
X16791182Y-13922984D01*
X16791182Y-13922984D02*
X16772134Y-13922984D01*
X16772134Y-13922984D02*
X16753086Y-13913460D01*
X16753086Y-13913460D02*
X16743563Y-13903936D01*
X16743563Y-13903936D02*
X16734039Y-13884888D01*
X16734039Y-13884888D02*
X16724515Y-13846793D01*
X16724515Y-13846793D02*
X16724515Y-13799174D01*
X16724515Y-13799174D02*
X16734039Y-13761079D01*
X16734039Y-13761079D02*
X16743563Y-13742031D01*
X16743563Y-13742031D02*
X16753086Y-13732508D01*
X16753086Y-13732508D02*
X16772134Y-13722984D01*
X16924515Y-13903936D02*
X16934039Y-13913460D01*
X16934039Y-13913460D02*
X16924515Y-13922984D01*
X16924515Y-13922984D02*
X16914991Y-13913460D01*
X16914991Y-13913460D02*
X16924515Y-13903936D01*
X16924515Y-13903936D02*
X16924515Y-13922984D01*
X17057848Y-13722984D02*
X17076896Y-13722984D01*
X17076896Y-13722984D02*
X17095944Y-13732508D01*
X17095944Y-13732508D02*
X17105468Y-13742031D01*
X17105468Y-13742031D02*
X17114991Y-13761079D01*
X17114991Y-13761079D02*
X17124515Y-13799174D01*
X17124515Y-13799174D02*
X17124515Y-13846793D01*
X17124515Y-13846793D02*
X17114991Y-13884888D01*
X17114991Y-13884888D02*
X17105468Y-13903936D01*
X17105468Y-13903936D02*
X17095944Y-13913460D01*
X17095944Y-13913460D02*
X17076896Y-13922984D01*
X17076896Y-13922984D02*
X17057848Y-13922984D01*
X17057848Y-13922984D02*
X17038801Y-13913460D01*
X17038801Y-13913460D02*
X17029277Y-13903936D01*
X17029277Y-13903936D02*
X17019753Y-13884888D01*
X17019753Y-13884888D02*
X17010229Y-13846793D01*
X17010229Y-13846793D02*
X17010229Y-13799174D01*
X17010229Y-13799174D02*
X17019753Y-13761079D01*
X17019753Y-13761079D02*
X17029277Y-13742031D01*
X17029277Y-13742031D02*
X17038801Y-13732508D01*
X17038801Y-13732508D02*
X17057848Y-13722984D01*
X17314991Y-13922984D02*
X17200706Y-13922984D01*
X17257848Y-13922984D02*
X17257848Y-13722984D01*
X17257848Y-13722984D02*
X17238801Y-13751555D01*
X17238801Y-13751555D02*
X17219753Y-13770603D01*
X17219753Y-13770603D02*
X17200706Y-13780127D01*
X17505468Y-13922984D02*
X17391182Y-13922984D01*
X17448325Y-13922984D02*
X17448325Y-13722984D01*
X17448325Y-13722984D02*
X17429277Y-13751555D01*
X17429277Y-13751555D02*
X17410229Y-13770603D01*
X17410229Y-13770603D02*
X17391182Y-13780127D01*
X17619753Y-13808698D02*
X17600706Y-13799174D01*
X17600706Y-13799174D02*
X17591182Y-13789650D01*
X17591182Y-13789650D02*
X17581658Y-13770603D01*
X17581658Y-13770603D02*
X17581658Y-13761079D01*
X17581658Y-13761079D02*
X17591182Y-13742031D01*
X17591182Y-13742031D02*
X17600706Y-13732508D01*
X17600706Y-13732508D02*
X17619753Y-13722984D01*
X17619753Y-13722984D02*
X17657849Y-13722984D01*
X17657849Y-13722984D02*
X17676896Y-13732508D01*
X17676896Y-13732508D02*
X17686420Y-13742031D01*
X17686420Y-13742031D02*
X17695944Y-13761079D01*
X17695944Y-13761079D02*
X17695944Y-13770603D01*
X17695944Y-13770603D02*
X17686420Y-13789650D01*
X17686420Y-13789650D02*
X17676896Y-13799174D01*
X17676896Y-13799174D02*
X17657849Y-13808698D01*
X17657849Y-13808698D02*
X17619753Y-13808698D01*
X17619753Y-13808698D02*
X17600706Y-13818222D01*
X17600706Y-13818222D02*
X17591182Y-13827746D01*
X17591182Y-13827746D02*
X17581658Y-13846793D01*
X17581658Y-13846793D02*
X17581658Y-13884888D01*
X17581658Y-13884888D02*
X17591182Y-13903936D01*
X17591182Y-13903936D02*
X17600706Y-13913460D01*
X17600706Y-13913460D02*
X17619753Y-13922984D01*
X17619753Y-13922984D02*
X17657849Y-13922984D01*
X17657849Y-13922984D02*
X17676896Y-13913460D01*
X17676896Y-13913460D02*
X17686420Y-13903936D01*
X17686420Y-13903936D02*
X17695944Y-13884888D01*
X17695944Y-13884888D02*
X17695944Y-13846793D01*
X17695944Y-13846793D02*
X17686420Y-13827746D01*
X17686420Y-13827746D02*
X17676896Y-13818222D01*
X17676896Y-13818222D02*
X17657849Y-13808698D01*
X17772134Y-13722984D02*
X17772134Y-13761079D01*
X17848325Y-13722984D02*
X17848325Y-13761079D01*
X18143563Y-13999174D02*
X18134039Y-13989650D01*
X18134039Y-13989650D02*
X18114991Y-13961079D01*
X18114991Y-13961079D02*
X18105468Y-13942031D01*
X18105468Y-13942031D02*
X18095944Y-13913460D01*
X18095944Y-13913460D02*
X18086420Y-13865841D01*
X18086420Y-13865841D02*
X18086420Y-13827746D01*
X18086420Y-13827746D02*
X18095944Y-13780127D01*
X18095944Y-13780127D02*
X18105468Y-13751555D01*
X18105468Y-13751555D02*
X18114991Y-13732508D01*
X18114991Y-13732508D02*
X18134039Y-13703936D01*
X18134039Y-13703936D02*
X18143563Y-13694412D01*
X18200706Y-13722984D02*
X18334039Y-13722984D01*
X18334039Y-13722984D02*
X18248325Y-13922984D01*
X18562611Y-13922984D02*
X18562611Y-13722984D01*
X18648325Y-13922984D02*
X18648325Y-13818222D01*
X18648325Y-13818222D02*
X18638801Y-13799174D01*
X18638801Y-13799174D02*
X18619753Y-13789650D01*
X18619753Y-13789650D02*
X18591182Y-13789650D01*
X18591182Y-13789650D02*
X18572134Y-13799174D01*
X18572134Y-13799174D02*
X18562611Y-13808698D01*
X18772134Y-13922984D02*
X18753087Y-13913460D01*
X18753087Y-13913460D02*
X18743563Y-13903936D01*
X18743563Y-13903936D02*
X18734039Y-13884888D01*
X18734039Y-13884888D02*
X18734039Y-13827746D01*
X18734039Y-13827746D02*
X18743563Y-13808698D01*
X18743563Y-13808698D02*
X18753087Y-13799174D01*
X18753087Y-13799174D02*
X18772134Y-13789650D01*
X18772134Y-13789650D02*
X18800706Y-13789650D01*
X18800706Y-13789650D02*
X18819753Y-13799174D01*
X18819753Y-13799174D02*
X18829277Y-13808698D01*
X18829277Y-13808698D02*
X18838801Y-13827746D01*
X18838801Y-13827746D02*
X18838801Y-13884888D01*
X18838801Y-13884888D02*
X18829277Y-13903936D01*
X18829277Y-13903936D02*
X18819753Y-13913460D01*
X18819753Y-13913460D02*
X18800706Y-13922984D01*
X18800706Y-13922984D02*
X18772134Y-13922984D01*
X18953087Y-13922984D02*
X18934039Y-13913460D01*
X18934039Y-13913460D02*
X18924515Y-13894412D01*
X18924515Y-13894412D02*
X18924515Y-13722984D01*
X19105468Y-13913460D02*
X19086420Y-13922984D01*
X19086420Y-13922984D02*
X19048325Y-13922984D01*
X19048325Y-13922984D02*
X19029277Y-13913460D01*
X19029277Y-13913460D02*
X19019753Y-13894412D01*
X19019753Y-13894412D02*
X19019753Y-13818222D01*
X19019753Y-13818222D02*
X19029277Y-13799174D01*
X19029277Y-13799174D02*
X19048325Y-13789650D01*
X19048325Y-13789650D02*
X19086420Y-13789650D01*
X19086420Y-13789650D02*
X19105468Y-13799174D01*
X19105468Y-13799174D02*
X19114992Y-13818222D01*
X19114992Y-13818222D02*
X19114992Y-13837269D01*
X19114992Y-13837269D02*
X19019753Y-13856317D01*
X19191182Y-13913460D02*
X19210230Y-13922984D01*
X19210230Y-13922984D02*
X19248325Y-13922984D01*
X19248325Y-13922984D02*
X19267373Y-13913460D01*
X19267373Y-13913460D02*
X19276896Y-13894412D01*
X19276896Y-13894412D02*
X19276896Y-13884888D01*
X19276896Y-13884888D02*
X19267373Y-13865841D01*
X19267373Y-13865841D02*
X19248325Y-13856317D01*
X19248325Y-13856317D02*
X19219753Y-13856317D01*
X19219753Y-13856317D02*
X19200706Y-13846793D01*
X19200706Y-13846793D02*
X19191182Y-13827746D01*
X19191182Y-13827746D02*
X19191182Y-13818222D01*
X19191182Y-13818222D02*
X19200706Y-13799174D01*
X19200706Y-13799174D02*
X19219753Y-13789650D01*
X19219753Y-13789650D02*
X19248325Y-13789650D01*
X19248325Y-13789650D02*
X19267373Y-13799174D01*
X19343563Y-13999174D02*
X19353087Y-13989650D01*
X19353087Y-13989650D02*
X19372134Y-13961079D01*
X19372134Y-13961079D02*
X19381658Y-13942031D01*
X19381658Y-13942031D02*
X19391182Y-13913460D01*
X19391182Y-13913460D02*
X19400706Y-13865841D01*
X19400706Y-13865841D02*
X19400706Y-13827746D01*
X19400706Y-13827746D02*
X19391182Y-13780127D01*
X19391182Y-13780127D02*
X19381658Y-13751555D01*
X19381658Y-13751555D02*
X19372134Y-13732508D01*
X19372134Y-13732508D02*
X19353087Y-13703936D01*
X19353087Y-13703936D02*
X19343563Y-13694412D01*
D12*
X14568500Y-14095500D02*
G75*
G02*
X14498500Y-14095500I-35000J0D01*
G01*
X14498500Y-14095500D02*
G75*
G02*
X14568500Y-14095500I35000J0D01*
G01*
D11*
X14867372Y-13986984D02*
X14886420Y-13986984D01*
X14886420Y-13986984D02*
X14905467Y-13996508D01*
X14905467Y-13996508D02*
X14914991Y-14006031D01*
X14914991Y-14006031D02*
X14924515Y-14025079D01*
X14924515Y-14025079D02*
X14934039Y-14063174D01*
X14934039Y-14063174D02*
X14934039Y-14110793D01*
X14934039Y-14110793D02*
X14924515Y-14148888D01*
X14924515Y-14148888D02*
X14914991Y-14167936D01*
X14914991Y-14167936D02*
X14905467Y-14177460D01*
X14905467Y-14177460D02*
X14886420Y-14186984D01*
X14886420Y-14186984D02*
X14867372Y-14186984D01*
X14867372Y-14186984D02*
X14848324Y-14177460D01*
X14848324Y-14177460D02*
X14838801Y-14167936D01*
X14838801Y-14167936D02*
X14829277Y-14148888D01*
X14829277Y-14148888D02*
X14819753Y-14110793D01*
X14819753Y-14110793D02*
X14819753Y-14063174D01*
X14819753Y-14063174D02*
X14829277Y-14025079D01*
X14829277Y-14025079D02*
X14838801Y-14006031D01*
X14838801Y-14006031D02*
X14848324Y-13996508D01*
X14848324Y-13996508D02*
X14867372Y-13986984D01*
X15019753Y-14167936D02*
X15029277Y-14177460D01*
X15029277Y-14177460D02*
X15019753Y-14186984D01*
X15019753Y-14186984D02*
X15010229Y-14177460D01*
X15010229Y-14177460D02*
X15019753Y-14167936D01*
X15019753Y-14167936D02*
X15019753Y-14186984D01*
X15095943Y-13986984D02*
X15229277Y-13986984D01*
X15229277Y-13986984D02*
X15143562Y-14186984D01*
X15343562Y-13986984D02*
X15362610Y-13986984D01*
X15362610Y-13986984D02*
X15381658Y-13996508D01*
X15381658Y-13996508D02*
X15391182Y-14006031D01*
X15391182Y-14006031D02*
X15400705Y-14025079D01*
X15400705Y-14025079D02*
X15410229Y-14063174D01*
X15410229Y-14063174D02*
X15410229Y-14110793D01*
X15410229Y-14110793D02*
X15400705Y-14148888D01*
X15400705Y-14148888D02*
X15391182Y-14167936D01*
X15391182Y-14167936D02*
X15381658Y-14177460D01*
X15381658Y-14177460D02*
X15362610Y-14186984D01*
X15362610Y-14186984D02*
X15343562Y-14186984D01*
X15343562Y-14186984D02*
X15324515Y-14177460D01*
X15324515Y-14177460D02*
X15314991Y-14167936D01*
X15314991Y-14167936D02*
X15305467Y-14148888D01*
X15305467Y-14148888D02*
X15295943Y-14110793D01*
X15295943Y-14110793D02*
X15295943Y-14063174D01*
X15295943Y-14063174D02*
X15305467Y-14025079D01*
X15305467Y-14025079D02*
X15314991Y-14006031D01*
X15314991Y-14006031D02*
X15324515Y-13996508D01*
X15324515Y-13996508D02*
X15343562Y-13986984D01*
X15534039Y-13986984D02*
X15553086Y-13986984D01*
X15553086Y-13986984D02*
X15572134Y-13996508D01*
X15572134Y-13996508D02*
X15581658Y-14006031D01*
X15581658Y-14006031D02*
X15591182Y-14025079D01*
X15591182Y-14025079D02*
X15600705Y-14063174D01*
X15600705Y-14063174D02*
X15600705Y-14110793D01*
X15600705Y-14110793D02*
X15591182Y-14148888D01*
X15591182Y-14148888D02*
X15581658Y-14167936D01*
X15581658Y-14167936D02*
X15572134Y-14177460D01*
X15572134Y-14177460D02*
X15553086Y-14186984D01*
X15553086Y-14186984D02*
X15534039Y-14186984D01*
X15534039Y-14186984D02*
X15514991Y-14177460D01*
X15514991Y-14177460D02*
X15505467Y-14167936D01*
X15505467Y-14167936D02*
X15495943Y-14148888D01*
X15495943Y-14148888D02*
X15486420Y-14110793D01*
X15486420Y-14110793D02*
X15486420Y-14063174D01*
X15486420Y-14063174D02*
X15495943Y-14025079D01*
X15495943Y-14025079D02*
X15505467Y-14006031D01*
X15505467Y-14006031D02*
X15514991Y-13996508D01*
X15514991Y-13996508D02*
X15534039Y-13986984D01*
X15686420Y-14186984D02*
X15686420Y-14053650D01*
X15686420Y-14072698D02*
X15695943Y-14063174D01*
X15695943Y-14063174D02*
X15714991Y-14053650D01*
X15714991Y-14053650D02*
X15743563Y-14053650D01*
X15743563Y-14053650D02*
X15762610Y-14063174D01*
X15762610Y-14063174D02*
X15772134Y-14082222D01*
X15772134Y-14082222D02*
X15772134Y-14186984D01*
X15772134Y-14082222D02*
X15781658Y-14063174D01*
X15781658Y-14063174D02*
X15800705Y-14053650D01*
X15800705Y-14053650D02*
X15829277Y-14053650D01*
X15829277Y-14053650D02*
X15848324Y-14063174D01*
X15848324Y-14063174D02*
X15857848Y-14082222D01*
X15857848Y-14082222D02*
X15857848Y-14186984D01*
X15953086Y-14186984D02*
X15953086Y-14053650D01*
X15953086Y-14072698D02*
X15962610Y-14063174D01*
X15962610Y-14063174D02*
X15981658Y-14053650D01*
X15981658Y-14053650D02*
X16010229Y-14053650D01*
X16010229Y-14053650D02*
X16029277Y-14063174D01*
X16029277Y-14063174D02*
X16038801Y-14082222D01*
X16038801Y-14082222D02*
X16038801Y-14186984D01*
X16038801Y-14082222D02*
X16048324Y-14063174D01*
X16048324Y-14063174D02*
X16067372Y-14053650D01*
X16067372Y-14053650D02*
X16095943Y-14053650D01*
X16095943Y-14053650D02*
X16114991Y-14063174D01*
X16114991Y-14063174D02*
X16124515Y-14082222D01*
X16124515Y-14082222D02*
X16124515Y-14186984D01*
X16514991Y-13977460D02*
X16343563Y-14234603D01*
X16772134Y-13986984D02*
X16791182Y-13986984D01*
X16791182Y-13986984D02*
X16810229Y-13996508D01*
X16810229Y-13996508D02*
X16819753Y-14006031D01*
X16819753Y-14006031D02*
X16829277Y-14025079D01*
X16829277Y-14025079D02*
X16838801Y-14063174D01*
X16838801Y-14063174D02*
X16838801Y-14110793D01*
X16838801Y-14110793D02*
X16829277Y-14148888D01*
X16829277Y-14148888D02*
X16819753Y-14167936D01*
X16819753Y-14167936D02*
X16810229Y-14177460D01*
X16810229Y-14177460D02*
X16791182Y-14186984D01*
X16791182Y-14186984D02*
X16772134Y-14186984D01*
X16772134Y-14186984D02*
X16753086Y-14177460D01*
X16753086Y-14177460D02*
X16743563Y-14167936D01*
X16743563Y-14167936D02*
X16734039Y-14148888D01*
X16734039Y-14148888D02*
X16724515Y-14110793D01*
X16724515Y-14110793D02*
X16724515Y-14063174D01*
X16724515Y-14063174D02*
X16734039Y-14025079D01*
X16734039Y-14025079D02*
X16743563Y-14006031D01*
X16743563Y-14006031D02*
X16753086Y-13996508D01*
X16753086Y-13996508D02*
X16772134Y-13986984D01*
X16924515Y-14167936D02*
X16934039Y-14177460D01*
X16934039Y-14177460D02*
X16924515Y-14186984D01*
X16924515Y-14186984D02*
X16914991Y-14177460D01*
X16914991Y-14177460D02*
X16924515Y-14167936D01*
X16924515Y-14167936D02*
X16924515Y-14186984D01*
X17057848Y-13986984D02*
X17076896Y-13986984D01*
X17076896Y-13986984D02*
X17095944Y-13996508D01*
X17095944Y-13996508D02*
X17105468Y-14006031D01*
X17105468Y-14006031D02*
X17114991Y-14025079D01*
X17114991Y-14025079D02*
X17124515Y-14063174D01*
X17124515Y-14063174D02*
X17124515Y-14110793D01*
X17124515Y-14110793D02*
X17114991Y-14148888D01*
X17114991Y-14148888D02*
X17105468Y-14167936D01*
X17105468Y-14167936D02*
X17095944Y-14177460D01*
X17095944Y-14177460D02*
X17076896Y-14186984D01*
X17076896Y-14186984D02*
X17057848Y-14186984D01*
X17057848Y-14186984D02*
X17038801Y-14177460D01*
X17038801Y-14177460D02*
X17029277Y-14167936D01*
X17029277Y-14167936D02*
X17019753Y-14148888D01*
X17019753Y-14148888D02*
X17010229Y-14110793D01*
X17010229Y-14110793D02*
X17010229Y-14063174D01*
X17010229Y-14063174D02*
X17019753Y-14025079D01*
X17019753Y-14025079D02*
X17029277Y-14006031D01*
X17029277Y-14006031D02*
X17038801Y-13996508D01*
X17038801Y-13996508D02*
X17057848Y-13986984D01*
X17200706Y-14006031D02*
X17210229Y-13996508D01*
X17210229Y-13996508D02*
X17229277Y-13986984D01*
X17229277Y-13986984D02*
X17276896Y-13986984D01*
X17276896Y-13986984D02*
X17295944Y-13996508D01*
X17295944Y-13996508D02*
X17305468Y-14006031D01*
X17305468Y-14006031D02*
X17314991Y-14025079D01*
X17314991Y-14025079D02*
X17314991Y-14044127D01*
X17314991Y-14044127D02*
X17305468Y-14072698D01*
X17305468Y-14072698D02*
X17191182Y-14186984D01*
X17191182Y-14186984D02*
X17314991Y-14186984D01*
X17381658Y-13986984D02*
X17514991Y-13986984D01*
X17514991Y-13986984D02*
X17429277Y-14186984D01*
X17676896Y-13986984D02*
X17638801Y-13986984D01*
X17638801Y-13986984D02*
X17619753Y-13996508D01*
X17619753Y-13996508D02*
X17610229Y-14006031D01*
X17610229Y-14006031D02*
X17591182Y-14034603D01*
X17591182Y-14034603D02*
X17581658Y-14072698D01*
X17581658Y-14072698D02*
X17581658Y-14148888D01*
X17581658Y-14148888D02*
X17591182Y-14167936D01*
X17591182Y-14167936D02*
X17600706Y-14177460D01*
X17600706Y-14177460D02*
X17619753Y-14186984D01*
X17619753Y-14186984D02*
X17657849Y-14186984D01*
X17657849Y-14186984D02*
X17676896Y-14177460D01*
X17676896Y-14177460D02*
X17686420Y-14167936D01*
X17686420Y-14167936D02*
X17695944Y-14148888D01*
X17695944Y-14148888D02*
X17695944Y-14101269D01*
X17695944Y-14101269D02*
X17686420Y-14082222D01*
X17686420Y-14082222D02*
X17676896Y-14072698D01*
X17676896Y-14072698D02*
X17657849Y-14063174D01*
X17657849Y-14063174D02*
X17619753Y-14063174D01*
X17619753Y-14063174D02*
X17600706Y-14072698D01*
X17600706Y-14072698D02*
X17591182Y-14082222D01*
X17591182Y-14082222D02*
X17581658Y-14101269D01*
X17772134Y-13986984D02*
X17772134Y-14025079D01*
X17848325Y-13986984D02*
X17848325Y-14025079D01*
X18143563Y-14263174D02*
X18134039Y-14253650D01*
X18134039Y-14253650D02*
X18114991Y-14225079D01*
X18114991Y-14225079D02*
X18105468Y-14206031D01*
X18105468Y-14206031D02*
X18095944Y-14177460D01*
X18095944Y-14177460D02*
X18086420Y-14129841D01*
X18086420Y-14129841D02*
X18086420Y-14091746D01*
X18086420Y-14091746D02*
X18095944Y-14044127D01*
X18095944Y-14044127D02*
X18105468Y-14015555D01*
X18105468Y-14015555D02*
X18114991Y-13996508D01*
X18114991Y-13996508D02*
X18134039Y-13967936D01*
X18134039Y-13967936D02*
X18143563Y-13958412D01*
X18305468Y-14053650D02*
X18305468Y-14186984D01*
X18257849Y-13977460D02*
X18210230Y-14120317D01*
X18210230Y-14120317D02*
X18334039Y-14120317D01*
X18562611Y-14186984D02*
X18562611Y-13986984D01*
X18648325Y-14186984D02*
X18648325Y-14082222D01*
X18648325Y-14082222D02*
X18638801Y-14063174D01*
X18638801Y-14063174D02*
X18619753Y-14053650D01*
X18619753Y-14053650D02*
X18591182Y-14053650D01*
X18591182Y-14053650D02*
X18572134Y-14063174D01*
X18572134Y-14063174D02*
X18562611Y-14072698D01*
X18772134Y-14186984D02*
X18753087Y-14177460D01*
X18753087Y-14177460D02*
X18743563Y-14167936D01*
X18743563Y-14167936D02*
X18734039Y-14148888D01*
X18734039Y-14148888D02*
X18734039Y-14091746D01*
X18734039Y-14091746D02*
X18743563Y-14072698D01*
X18743563Y-14072698D02*
X18753087Y-14063174D01*
X18753087Y-14063174D02*
X18772134Y-14053650D01*
X18772134Y-14053650D02*
X18800706Y-14053650D01*
X18800706Y-14053650D02*
X18819753Y-14063174D01*
X18819753Y-14063174D02*
X18829277Y-14072698D01*
X18829277Y-14072698D02*
X18838801Y-14091746D01*
X18838801Y-14091746D02*
X18838801Y-14148888D01*
X18838801Y-14148888D02*
X18829277Y-14167936D01*
X18829277Y-14167936D02*
X18819753Y-14177460D01*
X18819753Y-14177460D02*
X18800706Y-14186984D01*
X18800706Y-14186984D02*
X18772134Y-14186984D01*
X18953087Y-14186984D02*
X18934039Y-14177460D01*
X18934039Y-14177460D02*
X18924515Y-14158412D01*
X18924515Y-14158412D02*
X18924515Y-13986984D01*
X19105468Y-14177460D02*
X19086420Y-14186984D01*
X19086420Y-14186984D02*
X19048325Y-14186984D01*
X19048325Y-14186984D02*
X19029277Y-14177460D01*
X19029277Y-14177460D02*
X19019753Y-14158412D01*
X19019753Y-14158412D02*
X19019753Y-14082222D01*
X19019753Y-14082222D02*
X19029277Y-14063174D01*
X19029277Y-14063174D02*
X19048325Y-14053650D01*
X19048325Y-14053650D02*
X19086420Y-14053650D01*
X19086420Y-14053650D02*
X19105468Y-14063174D01*
X19105468Y-14063174D02*
X19114992Y-14082222D01*
X19114992Y-14082222D02*
X19114992Y-14101269D01*
X19114992Y-14101269D02*
X19019753Y-14120317D01*
X19191182Y-14177460D02*
X19210230Y-14186984D01*
X19210230Y-14186984D02*
X19248325Y-14186984D01*
X19248325Y-14186984D02*
X19267373Y-14177460D01*
X19267373Y-14177460D02*
X19276896Y-14158412D01*
X19276896Y-14158412D02*
X19276896Y-14148888D01*
X19276896Y-14148888D02*
X19267373Y-14129841D01*
X19267373Y-14129841D02*
X19248325Y-14120317D01*
X19248325Y-14120317D02*
X19219753Y-14120317D01*
X19219753Y-14120317D02*
X19200706Y-14110793D01*
X19200706Y-14110793D02*
X19191182Y-14091746D01*
X19191182Y-14091746D02*
X19191182Y-14082222D01*
X19191182Y-14082222D02*
X19200706Y-14063174D01*
X19200706Y-14063174D02*
X19219753Y-14053650D01*
X19219753Y-14053650D02*
X19248325Y-14053650D01*
X19248325Y-14053650D02*
X19267373Y-14063174D01*
X19343563Y-14263174D02*
X19353087Y-14253650D01*
X19353087Y-14253650D02*
X19372134Y-14225079D01*
X19372134Y-14225079D02*
X19381658Y-14206031D01*
X19381658Y-14206031D02*
X19391182Y-14177460D01*
X19391182Y-14177460D02*
X19400706Y-14129841D01*
X19400706Y-14129841D02*
X19400706Y-14091746D01*
X19400706Y-14091746D02*
X19391182Y-14044127D01*
X19391182Y-14044127D02*
X19381658Y-14015555D01*
X19381658Y-14015555D02*
X19372134Y-13996508D01*
X19372134Y-13996508D02*
X19353087Y-13967936D01*
X19353087Y-13967936D02*
X19343563Y-13958412D01*
D12*
X14530400Y-14321400D02*
X14530400Y-14397600D01*
X14492300Y-14359500D02*
X14568500Y-14359500D01*
D11*
X14867372Y-14250984D02*
X14886420Y-14250984D01*
X14886420Y-14250984D02*
X14905467Y-14260508D01*
X14905467Y-14260508D02*
X14914991Y-14270031D01*
X14914991Y-14270031D02*
X14924515Y-14289079D01*
X14924515Y-14289079D02*
X14934039Y-14327174D01*
X14934039Y-14327174D02*
X14934039Y-14374793D01*
X14934039Y-14374793D02*
X14924515Y-14412888D01*
X14924515Y-14412888D02*
X14914991Y-14431936D01*
X14914991Y-14431936D02*
X14905467Y-14441460D01*
X14905467Y-14441460D02*
X14886420Y-14450984D01*
X14886420Y-14450984D02*
X14867372Y-14450984D01*
X14867372Y-14450984D02*
X14848324Y-14441460D01*
X14848324Y-14441460D02*
X14838801Y-14431936D01*
X14838801Y-14431936D02*
X14829277Y-14412888D01*
X14829277Y-14412888D02*
X14819753Y-14374793D01*
X14819753Y-14374793D02*
X14819753Y-14327174D01*
X14819753Y-14327174D02*
X14829277Y-14289079D01*
X14829277Y-14289079D02*
X14838801Y-14270031D01*
X14838801Y-14270031D02*
X14848324Y-14260508D01*
X14848324Y-14260508D02*
X14867372Y-14250984D01*
X15019753Y-14431936D02*
X15029277Y-14441460D01*
X15029277Y-14441460D02*
X15019753Y-14450984D01*
X15019753Y-14450984D02*
X15010229Y-14441460D01*
X15010229Y-14441460D02*
X15019753Y-14431936D01*
X15019753Y-14431936D02*
X15019753Y-14450984D01*
X15095943Y-14250984D02*
X15229277Y-14250984D01*
X15229277Y-14250984D02*
X15143562Y-14450984D01*
X15391182Y-14250984D02*
X15353086Y-14250984D01*
X15353086Y-14250984D02*
X15334039Y-14260508D01*
X15334039Y-14260508D02*
X15324515Y-14270031D01*
X15324515Y-14270031D02*
X15305467Y-14298603D01*
X15305467Y-14298603D02*
X15295943Y-14336698D01*
X15295943Y-14336698D02*
X15295943Y-14412888D01*
X15295943Y-14412888D02*
X15305467Y-14431936D01*
X15305467Y-14431936D02*
X15314991Y-14441460D01*
X15314991Y-14441460D02*
X15334039Y-14450984D01*
X15334039Y-14450984D02*
X15372134Y-14450984D01*
X15372134Y-14450984D02*
X15391182Y-14441460D01*
X15391182Y-14441460D02*
X15400705Y-14431936D01*
X15400705Y-14431936D02*
X15410229Y-14412888D01*
X15410229Y-14412888D02*
X15410229Y-14365269D01*
X15410229Y-14365269D02*
X15400705Y-14346222D01*
X15400705Y-14346222D02*
X15391182Y-14336698D01*
X15391182Y-14336698D02*
X15372134Y-14327174D01*
X15372134Y-14327174D02*
X15334039Y-14327174D01*
X15334039Y-14327174D02*
X15314991Y-14336698D01*
X15314991Y-14336698D02*
X15305467Y-14346222D01*
X15305467Y-14346222D02*
X15295943Y-14365269D01*
X15486420Y-14270031D02*
X15495943Y-14260508D01*
X15495943Y-14260508D02*
X15514991Y-14250984D01*
X15514991Y-14250984D02*
X15562610Y-14250984D01*
X15562610Y-14250984D02*
X15581658Y-14260508D01*
X15581658Y-14260508D02*
X15591182Y-14270031D01*
X15591182Y-14270031D02*
X15600705Y-14289079D01*
X15600705Y-14289079D02*
X15600705Y-14308127D01*
X15600705Y-14308127D02*
X15591182Y-14336698D01*
X15591182Y-14336698D02*
X15476896Y-14450984D01*
X15476896Y-14450984D02*
X15600705Y-14450984D01*
X15686420Y-14450984D02*
X15686420Y-14317650D01*
X15686420Y-14336698D02*
X15695943Y-14327174D01*
X15695943Y-14327174D02*
X15714991Y-14317650D01*
X15714991Y-14317650D02*
X15743563Y-14317650D01*
X15743563Y-14317650D02*
X15762610Y-14327174D01*
X15762610Y-14327174D02*
X15772134Y-14346222D01*
X15772134Y-14346222D02*
X15772134Y-14450984D01*
X15772134Y-14346222D02*
X15781658Y-14327174D01*
X15781658Y-14327174D02*
X15800705Y-14317650D01*
X15800705Y-14317650D02*
X15829277Y-14317650D01*
X15829277Y-14317650D02*
X15848324Y-14327174D01*
X15848324Y-14327174D02*
X15857848Y-14346222D01*
X15857848Y-14346222D02*
X15857848Y-14450984D01*
X15953086Y-14450984D02*
X15953086Y-14317650D01*
X15953086Y-14336698D02*
X15962610Y-14327174D01*
X15962610Y-14327174D02*
X15981658Y-14317650D01*
X15981658Y-14317650D02*
X16010229Y-14317650D01*
X16010229Y-14317650D02*
X16029277Y-14327174D01*
X16029277Y-14327174D02*
X16038801Y-14346222D01*
X16038801Y-14346222D02*
X16038801Y-14450984D01*
X16038801Y-14346222D02*
X16048324Y-14327174D01*
X16048324Y-14327174D02*
X16067372Y-14317650D01*
X16067372Y-14317650D02*
X16095943Y-14317650D01*
X16095943Y-14317650D02*
X16114991Y-14327174D01*
X16114991Y-14327174D02*
X16124515Y-14346222D01*
X16124515Y-14346222D02*
X16124515Y-14450984D01*
X16514991Y-14241460D02*
X16343563Y-14498603D01*
X16772134Y-14250984D02*
X16791182Y-14250984D01*
X16791182Y-14250984D02*
X16810229Y-14260508D01*
X16810229Y-14260508D02*
X16819753Y-14270031D01*
X16819753Y-14270031D02*
X16829277Y-14289079D01*
X16829277Y-14289079D02*
X16838801Y-14327174D01*
X16838801Y-14327174D02*
X16838801Y-14374793D01*
X16838801Y-14374793D02*
X16829277Y-14412888D01*
X16829277Y-14412888D02*
X16819753Y-14431936D01*
X16819753Y-14431936D02*
X16810229Y-14441460D01*
X16810229Y-14441460D02*
X16791182Y-14450984D01*
X16791182Y-14450984D02*
X16772134Y-14450984D01*
X16772134Y-14450984D02*
X16753086Y-14441460D01*
X16753086Y-14441460D02*
X16743563Y-14431936D01*
X16743563Y-14431936D02*
X16734039Y-14412888D01*
X16734039Y-14412888D02*
X16724515Y-14374793D01*
X16724515Y-14374793D02*
X16724515Y-14327174D01*
X16724515Y-14327174D02*
X16734039Y-14289079D01*
X16734039Y-14289079D02*
X16743563Y-14270031D01*
X16743563Y-14270031D02*
X16753086Y-14260508D01*
X16753086Y-14260508D02*
X16772134Y-14250984D01*
X16924515Y-14431936D02*
X16934039Y-14441460D01*
X16934039Y-14441460D02*
X16924515Y-14450984D01*
X16924515Y-14450984D02*
X16914991Y-14441460D01*
X16914991Y-14441460D02*
X16924515Y-14431936D01*
X16924515Y-14431936D02*
X16924515Y-14450984D01*
X17057848Y-14250984D02*
X17076896Y-14250984D01*
X17076896Y-14250984D02*
X17095944Y-14260508D01*
X17095944Y-14260508D02*
X17105468Y-14270031D01*
X17105468Y-14270031D02*
X17114991Y-14289079D01*
X17114991Y-14289079D02*
X17124515Y-14327174D01*
X17124515Y-14327174D02*
X17124515Y-14374793D01*
X17124515Y-14374793D02*
X17114991Y-14412888D01*
X17114991Y-14412888D02*
X17105468Y-14431936D01*
X17105468Y-14431936D02*
X17095944Y-14441460D01*
X17095944Y-14441460D02*
X17076896Y-14450984D01*
X17076896Y-14450984D02*
X17057848Y-14450984D01*
X17057848Y-14450984D02*
X17038801Y-14441460D01*
X17038801Y-14441460D02*
X17029277Y-14431936D01*
X17029277Y-14431936D02*
X17019753Y-14412888D01*
X17019753Y-14412888D02*
X17010229Y-14374793D01*
X17010229Y-14374793D02*
X17010229Y-14327174D01*
X17010229Y-14327174D02*
X17019753Y-14289079D01*
X17019753Y-14289079D02*
X17029277Y-14270031D01*
X17029277Y-14270031D02*
X17038801Y-14260508D01*
X17038801Y-14260508D02*
X17057848Y-14250984D01*
X17191182Y-14250984D02*
X17314991Y-14250984D01*
X17314991Y-14250984D02*
X17248325Y-14327174D01*
X17248325Y-14327174D02*
X17276896Y-14327174D01*
X17276896Y-14327174D02*
X17295944Y-14336698D01*
X17295944Y-14336698D02*
X17305468Y-14346222D01*
X17305468Y-14346222D02*
X17314991Y-14365269D01*
X17314991Y-14365269D02*
X17314991Y-14412888D01*
X17314991Y-14412888D02*
X17305468Y-14431936D01*
X17305468Y-14431936D02*
X17295944Y-14441460D01*
X17295944Y-14441460D02*
X17276896Y-14450984D01*
X17276896Y-14450984D02*
X17219753Y-14450984D01*
X17219753Y-14450984D02*
X17200706Y-14441460D01*
X17200706Y-14441460D02*
X17191182Y-14431936D01*
X17438801Y-14250984D02*
X17457849Y-14250984D01*
X17457849Y-14250984D02*
X17476896Y-14260508D01*
X17476896Y-14260508D02*
X17486420Y-14270031D01*
X17486420Y-14270031D02*
X17495944Y-14289079D01*
X17495944Y-14289079D02*
X17505468Y-14327174D01*
X17505468Y-14327174D02*
X17505468Y-14374793D01*
X17505468Y-14374793D02*
X17495944Y-14412888D01*
X17495944Y-14412888D02*
X17486420Y-14431936D01*
X17486420Y-14431936D02*
X17476896Y-14441460D01*
X17476896Y-14441460D02*
X17457849Y-14450984D01*
X17457849Y-14450984D02*
X17438801Y-14450984D01*
X17438801Y-14450984D02*
X17419753Y-14441460D01*
X17419753Y-14441460D02*
X17410229Y-14431936D01*
X17410229Y-14431936D02*
X17400706Y-14412888D01*
X17400706Y-14412888D02*
X17391182Y-14374793D01*
X17391182Y-14374793D02*
X17391182Y-14327174D01*
X17391182Y-14327174D02*
X17400706Y-14289079D01*
X17400706Y-14289079D02*
X17410229Y-14270031D01*
X17410229Y-14270031D02*
X17419753Y-14260508D01*
X17419753Y-14260508D02*
X17438801Y-14250984D01*
X17629277Y-14250984D02*
X17648325Y-14250984D01*
X17648325Y-14250984D02*
X17667372Y-14260508D01*
X17667372Y-14260508D02*
X17676896Y-14270031D01*
X17676896Y-14270031D02*
X17686420Y-14289079D01*
X17686420Y-14289079D02*
X17695944Y-14327174D01*
X17695944Y-14327174D02*
X17695944Y-14374793D01*
X17695944Y-14374793D02*
X17686420Y-14412888D01*
X17686420Y-14412888D02*
X17676896Y-14431936D01*
X17676896Y-14431936D02*
X17667372Y-14441460D01*
X17667372Y-14441460D02*
X17648325Y-14450984D01*
X17648325Y-14450984D02*
X17629277Y-14450984D01*
X17629277Y-14450984D02*
X17610229Y-14441460D01*
X17610229Y-14441460D02*
X17600706Y-14431936D01*
X17600706Y-14431936D02*
X17591182Y-14412888D01*
X17591182Y-14412888D02*
X17581658Y-14374793D01*
X17581658Y-14374793D02*
X17581658Y-14327174D01*
X17581658Y-14327174D02*
X17591182Y-14289079D01*
X17591182Y-14289079D02*
X17600706Y-14270031D01*
X17600706Y-14270031D02*
X17610229Y-14260508D01*
X17610229Y-14260508D02*
X17629277Y-14250984D01*
X17772134Y-14250984D02*
X17772134Y-14289079D01*
X17848325Y-14250984D02*
X17848325Y-14289079D01*
X18143563Y-14527174D02*
X18134039Y-14517650D01*
X18134039Y-14517650D02*
X18114991Y-14489079D01*
X18114991Y-14489079D02*
X18105468Y-14470031D01*
X18105468Y-14470031D02*
X18095944Y-14441460D01*
X18095944Y-14441460D02*
X18086420Y-14393841D01*
X18086420Y-14393841D02*
X18086420Y-14355746D01*
X18086420Y-14355746D02*
X18095944Y-14308127D01*
X18095944Y-14308127D02*
X18105468Y-14279555D01*
X18105468Y-14279555D02*
X18114991Y-14260508D01*
X18114991Y-14260508D02*
X18134039Y-14231936D01*
X18134039Y-14231936D02*
X18143563Y-14222412D01*
X18324515Y-14450984D02*
X18210230Y-14450984D01*
X18267372Y-14450984D02*
X18267372Y-14250984D01*
X18267372Y-14250984D02*
X18248325Y-14279555D01*
X18248325Y-14279555D02*
X18229277Y-14298603D01*
X18229277Y-14298603D02*
X18210230Y-14308127D01*
X18514991Y-14450984D02*
X18400706Y-14450984D01*
X18457849Y-14450984D02*
X18457849Y-14250984D01*
X18457849Y-14250984D02*
X18438801Y-14279555D01*
X18438801Y-14279555D02*
X18419753Y-14298603D01*
X18419753Y-14298603D02*
X18400706Y-14308127D01*
X18753087Y-14450984D02*
X18753087Y-14250984D01*
X18838801Y-14450984D02*
X18838801Y-14346222D01*
X18838801Y-14346222D02*
X18829277Y-14327174D01*
X18829277Y-14327174D02*
X18810230Y-14317650D01*
X18810230Y-14317650D02*
X18781658Y-14317650D01*
X18781658Y-14317650D02*
X18762611Y-14327174D01*
X18762611Y-14327174D02*
X18753087Y-14336698D01*
X18962611Y-14450984D02*
X18943563Y-14441460D01*
X18943563Y-14441460D02*
X18934039Y-14431936D01*
X18934039Y-14431936D02*
X18924515Y-14412888D01*
X18924515Y-14412888D02*
X18924515Y-14355746D01*
X18924515Y-14355746D02*
X18934039Y-14336698D01*
X18934039Y-14336698D02*
X18943563Y-14327174D01*
X18943563Y-14327174D02*
X18962611Y-14317650D01*
X18962611Y-14317650D02*
X18991182Y-14317650D01*
X18991182Y-14317650D02*
X19010230Y-14327174D01*
X19010230Y-14327174D02*
X19019753Y-14336698D01*
X19019753Y-14336698D02*
X19029277Y-14355746D01*
X19029277Y-14355746D02*
X19029277Y-14412888D01*
X19029277Y-14412888D02*
X19019753Y-14431936D01*
X19019753Y-14431936D02*
X19010230Y-14441460D01*
X19010230Y-14441460D02*
X18991182Y-14450984D01*
X18991182Y-14450984D02*
X18962611Y-14450984D01*
X19143563Y-14450984D02*
X19124515Y-14441460D01*
X19124515Y-14441460D02*
X19114992Y-14422412D01*
X19114992Y-14422412D02*
X19114992Y-14250984D01*
X19295944Y-14441460D02*
X19276896Y-14450984D01*
X19276896Y-14450984D02*
X19238801Y-14450984D01*
X19238801Y-14450984D02*
X19219753Y-14441460D01*
X19219753Y-14441460D02*
X19210230Y-14422412D01*
X19210230Y-14422412D02*
X19210230Y-14346222D01*
X19210230Y-14346222D02*
X19219753Y-14327174D01*
X19219753Y-14327174D02*
X19238801Y-14317650D01*
X19238801Y-14317650D02*
X19276896Y-14317650D01*
X19276896Y-14317650D02*
X19295944Y-14327174D01*
X19295944Y-14327174D02*
X19305468Y-14346222D01*
X19305468Y-14346222D02*
X19305468Y-14365269D01*
X19305468Y-14365269D02*
X19210230Y-14384317D01*
X19381658Y-14441460D02*
X19400706Y-14450984D01*
X19400706Y-14450984D02*
X19438801Y-14450984D01*
X19438801Y-14450984D02*
X19457849Y-14441460D01*
X19457849Y-14441460D02*
X19467373Y-14422412D01*
X19467373Y-14422412D02*
X19467373Y-14412888D01*
X19467373Y-14412888D02*
X19457849Y-14393841D01*
X19457849Y-14393841D02*
X19438801Y-14384317D01*
X19438801Y-14384317D02*
X19410230Y-14384317D01*
X19410230Y-14384317D02*
X19391182Y-14374793D01*
X19391182Y-14374793D02*
X19381658Y-14355746D01*
X19381658Y-14355746D02*
X19381658Y-14346222D01*
X19381658Y-14346222D02*
X19391182Y-14327174D01*
X19391182Y-14327174D02*
X19410230Y-14317650D01*
X19410230Y-14317650D02*
X19438801Y-14317650D01*
X19438801Y-14317650D02*
X19457849Y-14327174D01*
X19534039Y-14527174D02*
X19543563Y-14517650D01*
X19543563Y-14517650D02*
X19562611Y-14489079D01*
X19562611Y-14489079D02*
X19572134Y-14470031D01*
X19572134Y-14470031D02*
X19581658Y-14441460D01*
X19581658Y-14441460D02*
X19591182Y-14393841D01*
X19591182Y-14393841D02*
X19591182Y-14355746D01*
X19591182Y-14355746D02*
X19581658Y-14308127D01*
X19581658Y-14308127D02*
X19572134Y-14279555D01*
X19572134Y-14279555D02*
X19562611Y-14260508D01*
X19562611Y-14260508D02*
X19543563Y-14231936D01*
X19543563Y-14231936D02*
X19534039Y-14222412D01*
D13*
X14552391Y-14662391D02*
X14552391Y-14584609D01*
X14474609Y-14584609D01*
X14474609Y-14662391D01*
X14552391Y-14662391D01*
D11*
X14934039Y-14714984D02*
X14819753Y-14714984D01*
X14876896Y-14714984D02*
X14876896Y-14514984D01*
X14876896Y-14514984D02*
X14857848Y-14543555D01*
X14857848Y-14543555D02*
X14838801Y-14562603D01*
X14838801Y-14562603D02*
X14819753Y-14572127D01*
X15019753Y-14695936D02*
X15029277Y-14705460D01*
X15029277Y-14705460D02*
X15019753Y-14714984D01*
X15019753Y-14714984D02*
X15010229Y-14705460D01*
X15010229Y-14705460D02*
X15019753Y-14695936D01*
X15019753Y-14695936D02*
X15019753Y-14714984D01*
X15219753Y-14714984D02*
X15105467Y-14714984D01*
X15162610Y-14714984D02*
X15162610Y-14514984D01*
X15162610Y-14514984D02*
X15143562Y-14543555D01*
X15143562Y-14543555D02*
X15124515Y-14562603D01*
X15124515Y-14562603D02*
X15105467Y-14572127D01*
X15343562Y-14514984D02*
X15362610Y-14514984D01*
X15362610Y-14514984D02*
X15381658Y-14524508D01*
X15381658Y-14524508D02*
X15391182Y-14534031D01*
X15391182Y-14534031D02*
X15400705Y-14553079D01*
X15400705Y-14553079D02*
X15410229Y-14591174D01*
X15410229Y-14591174D02*
X15410229Y-14638793D01*
X15410229Y-14638793D02*
X15400705Y-14676888D01*
X15400705Y-14676888D02*
X15391182Y-14695936D01*
X15391182Y-14695936D02*
X15381658Y-14705460D01*
X15381658Y-14705460D02*
X15362610Y-14714984D01*
X15362610Y-14714984D02*
X15343562Y-14714984D01*
X15343562Y-14714984D02*
X15324515Y-14705460D01*
X15324515Y-14705460D02*
X15314991Y-14695936D01*
X15314991Y-14695936D02*
X15305467Y-14676888D01*
X15305467Y-14676888D02*
X15295943Y-14638793D01*
X15295943Y-14638793D02*
X15295943Y-14591174D01*
X15295943Y-14591174D02*
X15305467Y-14553079D01*
X15305467Y-14553079D02*
X15314991Y-14534031D01*
X15314991Y-14534031D02*
X15324515Y-14524508D01*
X15324515Y-14524508D02*
X15343562Y-14514984D01*
X15534039Y-14514984D02*
X15553086Y-14514984D01*
X15553086Y-14514984D02*
X15572134Y-14524508D01*
X15572134Y-14524508D02*
X15581658Y-14534031D01*
X15581658Y-14534031D02*
X15591182Y-14553079D01*
X15591182Y-14553079D02*
X15600705Y-14591174D01*
X15600705Y-14591174D02*
X15600705Y-14638793D01*
X15600705Y-14638793D02*
X15591182Y-14676888D01*
X15591182Y-14676888D02*
X15581658Y-14695936D01*
X15581658Y-14695936D02*
X15572134Y-14705460D01*
X15572134Y-14705460D02*
X15553086Y-14714984D01*
X15553086Y-14714984D02*
X15534039Y-14714984D01*
X15534039Y-14714984D02*
X15514991Y-14705460D01*
X15514991Y-14705460D02*
X15505467Y-14695936D01*
X15505467Y-14695936D02*
X15495943Y-14676888D01*
X15495943Y-14676888D02*
X15486420Y-14638793D01*
X15486420Y-14638793D02*
X15486420Y-14591174D01*
X15486420Y-14591174D02*
X15495943Y-14553079D01*
X15495943Y-14553079D02*
X15505467Y-14534031D01*
X15505467Y-14534031D02*
X15514991Y-14524508D01*
X15514991Y-14524508D02*
X15534039Y-14514984D01*
X15686420Y-14714984D02*
X15686420Y-14581650D01*
X15686420Y-14600698D02*
X15695943Y-14591174D01*
X15695943Y-14591174D02*
X15714991Y-14581650D01*
X15714991Y-14581650D02*
X15743563Y-14581650D01*
X15743563Y-14581650D02*
X15762610Y-14591174D01*
X15762610Y-14591174D02*
X15772134Y-14610222D01*
X15772134Y-14610222D02*
X15772134Y-14714984D01*
X15772134Y-14610222D02*
X15781658Y-14591174D01*
X15781658Y-14591174D02*
X15800705Y-14581650D01*
X15800705Y-14581650D02*
X15829277Y-14581650D01*
X15829277Y-14581650D02*
X15848324Y-14591174D01*
X15848324Y-14591174D02*
X15857848Y-14610222D01*
X15857848Y-14610222D02*
X15857848Y-14714984D01*
X15953086Y-14714984D02*
X15953086Y-14581650D01*
X15953086Y-14600698D02*
X15962610Y-14591174D01*
X15962610Y-14591174D02*
X15981658Y-14581650D01*
X15981658Y-14581650D02*
X16010229Y-14581650D01*
X16010229Y-14581650D02*
X16029277Y-14591174D01*
X16029277Y-14591174D02*
X16038801Y-14610222D01*
X16038801Y-14610222D02*
X16038801Y-14714984D01*
X16038801Y-14610222D02*
X16048324Y-14591174D01*
X16048324Y-14591174D02*
X16067372Y-14581650D01*
X16067372Y-14581650D02*
X16095943Y-14581650D01*
X16095943Y-14581650D02*
X16114991Y-14591174D01*
X16114991Y-14591174D02*
X16124515Y-14610222D01*
X16124515Y-14610222D02*
X16124515Y-14714984D01*
X16514991Y-14505460D02*
X16343563Y-14762603D01*
X16772134Y-14514984D02*
X16791182Y-14514984D01*
X16791182Y-14514984D02*
X16810229Y-14524508D01*
X16810229Y-14524508D02*
X16819753Y-14534031D01*
X16819753Y-14534031D02*
X16829277Y-14553079D01*
X16829277Y-14553079D02*
X16838801Y-14591174D01*
X16838801Y-14591174D02*
X16838801Y-14638793D01*
X16838801Y-14638793D02*
X16829277Y-14676888D01*
X16829277Y-14676888D02*
X16819753Y-14695936D01*
X16819753Y-14695936D02*
X16810229Y-14705460D01*
X16810229Y-14705460D02*
X16791182Y-14714984D01*
X16791182Y-14714984D02*
X16772134Y-14714984D01*
X16772134Y-14714984D02*
X16753086Y-14705460D01*
X16753086Y-14705460D02*
X16743563Y-14695936D01*
X16743563Y-14695936D02*
X16734039Y-14676888D01*
X16734039Y-14676888D02*
X16724515Y-14638793D01*
X16724515Y-14638793D02*
X16724515Y-14591174D01*
X16724515Y-14591174D02*
X16734039Y-14553079D01*
X16734039Y-14553079D02*
X16743563Y-14534031D01*
X16743563Y-14534031D02*
X16753086Y-14524508D01*
X16753086Y-14524508D02*
X16772134Y-14514984D01*
X16924515Y-14695936D02*
X16934039Y-14705460D01*
X16934039Y-14705460D02*
X16924515Y-14714984D01*
X16924515Y-14714984D02*
X16914991Y-14705460D01*
X16914991Y-14705460D02*
X16924515Y-14695936D01*
X16924515Y-14695936D02*
X16924515Y-14714984D01*
X17057848Y-14514984D02*
X17076896Y-14514984D01*
X17076896Y-14514984D02*
X17095944Y-14524508D01*
X17095944Y-14524508D02*
X17105468Y-14534031D01*
X17105468Y-14534031D02*
X17114991Y-14553079D01*
X17114991Y-14553079D02*
X17124515Y-14591174D01*
X17124515Y-14591174D02*
X17124515Y-14638793D01*
X17124515Y-14638793D02*
X17114991Y-14676888D01*
X17114991Y-14676888D02*
X17105468Y-14695936D01*
X17105468Y-14695936D02*
X17095944Y-14705460D01*
X17095944Y-14705460D02*
X17076896Y-14714984D01*
X17076896Y-14714984D02*
X17057848Y-14714984D01*
X17057848Y-14714984D02*
X17038801Y-14705460D01*
X17038801Y-14705460D02*
X17029277Y-14695936D01*
X17029277Y-14695936D02*
X17019753Y-14676888D01*
X17019753Y-14676888D02*
X17010229Y-14638793D01*
X17010229Y-14638793D02*
X17010229Y-14591174D01*
X17010229Y-14591174D02*
X17019753Y-14553079D01*
X17019753Y-14553079D02*
X17029277Y-14534031D01*
X17029277Y-14534031D02*
X17038801Y-14524508D01*
X17038801Y-14524508D02*
X17057848Y-14514984D01*
X17295944Y-14581650D02*
X17295944Y-14714984D01*
X17248325Y-14505460D02*
X17200706Y-14648317D01*
X17200706Y-14648317D02*
X17324515Y-14648317D01*
X17381658Y-14514984D02*
X17505468Y-14514984D01*
X17505468Y-14514984D02*
X17438801Y-14591174D01*
X17438801Y-14591174D02*
X17467372Y-14591174D01*
X17467372Y-14591174D02*
X17486420Y-14600698D01*
X17486420Y-14600698D02*
X17495944Y-14610222D01*
X17495944Y-14610222D02*
X17505468Y-14629269D01*
X17505468Y-14629269D02*
X17505468Y-14676888D01*
X17505468Y-14676888D02*
X17495944Y-14695936D01*
X17495944Y-14695936D02*
X17486420Y-14705460D01*
X17486420Y-14705460D02*
X17467372Y-14714984D01*
X17467372Y-14714984D02*
X17410229Y-14714984D01*
X17410229Y-14714984D02*
X17391182Y-14705460D01*
X17391182Y-14705460D02*
X17381658Y-14695936D01*
X17572134Y-14514984D02*
X17695944Y-14514984D01*
X17695944Y-14514984D02*
X17629277Y-14591174D01*
X17629277Y-14591174D02*
X17657849Y-14591174D01*
X17657849Y-14591174D02*
X17676896Y-14600698D01*
X17676896Y-14600698D02*
X17686420Y-14610222D01*
X17686420Y-14610222D02*
X17695944Y-14629269D01*
X17695944Y-14629269D02*
X17695944Y-14676888D01*
X17695944Y-14676888D02*
X17686420Y-14695936D01*
X17686420Y-14695936D02*
X17676896Y-14705460D01*
X17676896Y-14705460D02*
X17657849Y-14714984D01*
X17657849Y-14714984D02*
X17600706Y-14714984D01*
X17600706Y-14714984D02*
X17581658Y-14705460D01*
X17581658Y-14705460D02*
X17572134Y-14695936D01*
X17772134Y-14514984D02*
X17772134Y-14553079D01*
X17848325Y-14514984D02*
X17848325Y-14553079D01*
X18143563Y-14791174D02*
X18134039Y-14781650D01*
X18134039Y-14781650D02*
X18114991Y-14753079D01*
X18114991Y-14753079D02*
X18105468Y-14734031D01*
X18105468Y-14734031D02*
X18095944Y-14705460D01*
X18095944Y-14705460D02*
X18086420Y-14657841D01*
X18086420Y-14657841D02*
X18086420Y-14619746D01*
X18086420Y-14619746D02*
X18095944Y-14572127D01*
X18095944Y-14572127D02*
X18105468Y-14543555D01*
X18105468Y-14543555D02*
X18114991Y-14524508D01*
X18114991Y-14524508D02*
X18134039Y-14495936D01*
X18134039Y-14495936D02*
X18143563Y-14486412D01*
X18305468Y-14514984D02*
X18267372Y-14514984D01*
X18267372Y-14514984D02*
X18248325Y-14524508D01*
X18248325Y-14524508D02*
X18238801Y-14534031D01*
X18238801Y-14534031D02*
X18219753Y-14562603D01*
X18219753Y-14562603D02*
X18210230Y-14600698D01*
X18210230Y-14600698D02*
X18210230Y-14676888D01*
X18210230Y-14676888D02*
X18219753Y-14695936D01*
X18219753Y-14695936D02*
X18229277Y-14705460D01*
X18229277Y-14705460D02*
X18248325Y-14714984D01*
X18248325Y-14714984D02*
X18286420Y-14714984D01*
X18286420Y-14714984D02*
X18305468Y-14705460D01*
X18305468Y-14705460D02*
X18314991Y-14695936D01*
X18314991Y-14695936D02*
X18324515Y-14676888D01*
X18324515Y-14676888D02*
X18324515Y-14629269D01*
X18324515Y-14629269D02*
X18314991Y-14610222D01*
X18314991Y-14610222D02*
X18305468Y-14600698D01*
X18305468Y-14600698D02*
X18286420Y-14591174D01*
X18286420Y-14591174D02*
X18248325Y-14591174D01*
X18248325Y-14591174D02*
X18229277Y-14600698D01*
X18229277Y-14600698D02*
X18219753Y-14610222D01*
X18219753Y-14610222D02*
X18210230Y-14629269D01*
X18562611Y-14714984D02*
X18562611Y-14514984D01*
X18648325Y-14714984D02*
X18648325Y-14610222D01*
X18648325Y-14610222D02*
X18638801Y-14591174D01*
X18638801Y-14591174D02*
X18619753Y-14581650D01*
X18619753Y-14581650D02*
X18591182Y-14581650D01*
X18591182Y-14581650D02*
X18572134Y-14591174D01*
X18572134Y-14591174D02*
X18562611Y-14600698D01*
X18772134Y-14714984D02*
X18753087Y-14705460D01*
X18753087Y-14705460D02*
X18743563Y-14695936D01*
X18743563Y-14695936D02*
X18734039Y-14676888D01*
X18734039Y-14676888D02*
X18734039Y-14619746D01*
X18734039Y-14619746D02*
X18743563Y-14600698D01*
X18743563Y-14600698D02*
X18753087Y-14591174D01*
X18753087Y-14591174D02*
X18772134Y-14581650D01*
X18772134Y-14581650D02*
X18800706Y-14581650D01*
X18800706Y-14581650D02*
X18819753Y-14591174D01*
X18819753Y-14591174D02*
X18829277Y-14600698D01*
X18829277Y-14600698D02*
X18838801Y-14619746D01*
X18838801Y-14619746D02*
X18838801Y-14676888D01*
X18838801Y-14676888D02*
X18829277Y-14695936D01*
X18829277Y-14695936D02*
X18819753Y-14705460D01*
X18819753Y-14705460D02*
X18800706Y-14714984D01*
X18800706Y-14714984D02*
X18772134Y-14714984D01*
X18953087Y-14714984D02*
X18934039Y-14705460D01*
X18934039Y-14705460D02*
X18924515Y-14686412D01*
X18924515Y-14686412D02*
X18924515Y-14514984D01*
X19105468Y-14705460D02*
X19086420Y-14714984D01*
X19086420Y-14714984D02*
X19048325Y-14714984D01*
X19048325Y-14714984D02*
X19029277Y-14705460D01*
X19029277Y-14705460D02*
X19019753Y-14686412D01*
X19019753Y-14686412D02*
X19019753Y-14610222D01*
X19019753Y-14610222D02*
X19029277Y-14591174D01*
X19029277Y-14591174D02*
X19048325Y-14581650D01*
X19048325Y-14581650D02*
X19086420Y-14581650D01*
X19086420Y-14581650D02*
X19105468Y-14591174D01*
X19105468Y-14591174D02*
X19114992Y-14610222D01*
X19114992Y-14610222D02*
X19114992Y-14629269D01*
X19114992Y-14629269D02*
X19019753Y-14648317D01*
X19191182Y-14705460D02*
X19210230Y-14714984D01*
X19210230Y-14714984D02*
X19248325Y-14714984D01*
X19248325Y-14714984D02*
X19267373Y-14705460D01*
X19267373Y-14705460D02*
X19276896Y-14686412D01*
X19276896Y-14686412D02*
X19276896Y-14676888D01*
X19276896Y-14676888D02*
X19267373Y-14657841D01*
X19267373Y-14657841D02*
X19248325Y-14648317D01*
X19248325Y-14648317D02*
X19219753Y-14648317D01*
X19219753Y-14648317D02*
X19200706Y-14638793D01*
X19200706Y-14638793D02*
X19191182Y-14619746D01*
X19191182Y-14619746D02*
X19191182Y-14610222D01*
X19191182Y-14610222D02*
X19200706Y-14591174D01*
X19200706Y-14591174D02*
X19219753Y-14581650D01*
X19219753Y-14581650D02*
X19248325Y-14581650D01*
X19248325Y-14581650D02*
X19267373Y-14591174D01*
X19343563Y-14791174D02*
X19353087Y-14781650D01*
X19353087Y-14781650D02*
X19372134Y-14753079D01*
X19372134Y-14753079D02*
X19381658Y-14734031D01*
X19381658Y-14734031D02*
X19391182Y-14705460D01*
X19391182Y-14705460D02*
X19400706Y-14657841D01*
X19400706Y-14657841D02*
X19400706Y-14619746D01*
X19400706Y-14619746D02*
X19391182Y-14572127D01*
X19391182Y-14572127D02*
X19381658Y-14543555D01*
X19381658Y-14543555D02*
X19372134Y-14524508D01*
X19372134Y-14524508D02*
X19353087Y-14495936D01*
X19353087Y-14495936D02*
X19343563Y-14486412D01*
M02*
